<?xml version="1.0" encoding="UTF-8"?>
<svg id="Layer_2" xmlns="http://www.w3.org/2000/svg" version="1.1" viewBox="0 0 273.2 49">
  <!-- Generator: Adobe Illustrator 29.2.1, SVG Export Plug-In . SVG Version: 2.1.0 Build 116)  -->
  <defs>
    <style>
      .st0 {
        fill: #001223;
      }
    </style>
  </defs>
  <g id="Layer_1-2">
    <path class="st0" d="M0,.9h9.2v18.9h22.5V.9h9.2v47.1h-9.2v-19.7H9.2v19.7H0V.9Z"/>
    <path class="st0" d="M49.5,20.5c0-12.6,7.2-20.5,20.5-20.5s20.7,7.8,20.7,20.5v27.6h-9.2v-14.1h-23v14.1h-9s0-27.6,0-27.6ZM81.4,25.6v-5.1c0-7.6-3.8-11.9-11.5-11.9s-11.5,4.3-11.5,11.9v5.1h23Z"/>
    <path class="st0" d="M95.9,31.3v-.4h9v.4c0,5.8,2.9,9.1,8.9,9.1s8.7-3.4,8.7-9.1V.9h9.2v30.4c0,10.7-6.4,17.6-18,17.6s-17.8-6.9-17.8-17.6h0Z"/>
    <path class="st0" d="M201.9,0c-7.2,0-13.3,2.5-17.7,6.7-1,.9-2.6.9-3.6,0-4.4-4.2-10.6-6.7-17.7-6.7-14.7,0-25.1,10.4-25.1,24.5s10.4,24.5,25.1,24.5,13.3-2.5,17.7-6.6c1-1,2.6-1,3.6,0,4.4,4.2,10.6,6.6,17.7,6.6,14.7,0,25.1-10.4,25.1-24.5S216.6,0,201.9,0ZM182.3,30.6c-2.6,0-5,1.2-6.4,3.3-2.7,4-7.3,6.5-13,6.5-9.4,0-15.7-6.8-15.7-16s6.3-15.9,15.7-15.9,10.3,2.5,13,6.5c1.4,2.1,3.9,3.3,6.4,3.3h.2c2.5,0,5-1.2,6.4-3.3,2.7-4,7.3-6.5,13-6.5,9.4,0,15.7,6.7,15.7,15.9s-6.3,16-15.7,16-10.3-2.5-13-6.5c-1.4-2.1-3.9-3.3-6.4-3.3h-.2,0Z"/>
    <path class="st0" d="M233.2,19.7c0-12.1,7.1-19.7,20-19.7s20,7.6,20,19.7v28.4h-9.2v-28.4c0-7-3.6-11.1-10.8-11.1s-10.8,4.1-10.8,11.1v28.4h-9.2s0-28.4,0-28.4Z"/>
  </g>
</svg>