<?xml version="1.0" encoding="UTF-8"?>
<svg id="Layer_2" data-name="Layer 2" xmlns="http://www.w3.org/2000/svg" viewBox="0 0 273.22 48.96">
  <defs>
    <style>
      .cls-1 {
        fill: #ededed;
      }
    </style>
  </defs>
  <g id="Layer_1-2" data-name="Layer 1">
    <path class="cls-1" d="M0,.94h9.22v18.94h22.54V.94h9.22v47.09h-9.22v-19.66H9.22v19.66H0V.94Z"/>
    <path class="cls-1" d="M49.46,20.45c0-12.6,7.2-20.45,20.52-20.45s20.67,7.85,20.67,20.45v27.58h-9.22v-14.11h-22.97v14.11h-9v-27.58ZM81.43,25.56v-5.11c0-7.56-3.75-11.88-11.52-11.88s-11.45,4.32-11.45,11.88v5.11h22.97Z"/>
    <path class="cls-1" d="M95.9,31.32v-.36h9v.36c0,5.76,2.88,9.14,8.86,9.14s8.71-3.38,8.71-9.14V.94h9.22v30.39c0,10.73-6.41,17.64-18,17.64s-17.79-6.91-17.79-17.64Z"/>
    <path class="cls-1" d="M201.94,0c-7.17,0-13.31,2.47-17.72,6.65-1,.95-2.57.95-3.57,0-4.41-4.17-10.55-6.65-17.72-6.65-14.69,0-25.06,10.37-25.06,24.48s10.37,24.48,25.06,24.48c7.17,0,13.31-2.47,17.72-6.64,1-.95,2.57-.95,3.57,0,4.41,4.17,10.55,6.64,17.72,6.64,14.69,0,25.06-10.37,25.06-24.48S216.63,0,201.94,0ZM182.34,30.61c-2.55,0-5.01,1.19-6.43,3.3-2.71,4.04-7.28,6.55-12.98,6.55-9.36,0-15.7-6.77-15.7-15.99s6.34-15.91,15.7-15.91c5.7,0,10.27,2.48,12.97,6.5,1.42,2.11,3.87,3.29,6.42,3.29h.22c2.54,0,5-1.18,6.42-3.29,2.71-4.02,7.28-6.5,12.97-6.5,9.36,0,15.7,6.7,15.7,15.91s-6.34,15.99-15.7,15.99c-5.7,0-10.27-2.51-12.98-6.55-1.42-2.12-3.88-3.3-6.43-3.3h-.2Z"/>
    <path class="cls-1" d="M233.19,19.66c0-12.1,7.13-19.66,20.02-19.66s20.02,7.56,20.02,19.66v28.37h-9.22v-28.37c0-6.98-3.6-11.09-10.8-11.09s-10.8,4.1-10.8,11.09v28.37h-9.22v-28.37Z"/>
  </g>
</svg>