<?xml version="1.0" encoding="UTF-8"?>
<svg id="Layer_2" data-name="Layer 2" xmlns="http://www.w3.org/2000/svg" viewBox="0 0 846.53 846.53">
  <defs>
    <style>
      .cls-1 {
        fill: #1e1e1e;
      }

      .cls-2 {
        fill: #4d4d4d;
      }

      .cls-3 {
        fill: #ededed;
      }

      .cls-4 {
        fill: #1a1a1a;
      }

      .cls-5 {
        fill: #302f2f;
      }
    </style>
  </defs>
  <g id="Layer_1-2" data-name="Layer 1">
    <g>
      <g>
        <g>
          <path class="cls-4" d="M475.57,814.6l-2.62.32s2.62-.32,2.62-.32Z"/>
          <path class="cls-4" d="M822.18,454.22c8.76-6.5,24.34-14.21,24.36-30.46.02-16.25-15.54-23.99-24.28-30.52-3.2-2.39-5.36-5.92-6.1-9.84l-1.22-9.83-1.71-12.58c-.29-3.98.89-7.95,3.37-11.08,6.77-8.55,19.83-20.03,15.64-35.72-4.19-15.7-21.22-19.15-31.35-23.19-3.71-1.48-6.71-4.33-8.44-7.93l-4.71-11.62.99,2.45-4.91-11.71c-1.31-3.77-1.19-7.91.39-11.57,4.33-10.01,13.97-24.48,5.86-38.56-8.11-14.08-25.46-13-36.29-14.29-3.97-.47-7.6-2.44-10.21-5.47l-7.56-10.01,1.59,2.11-7.77-10.04c-2.24-3.31-3.2-7.33-2.62-11.28,1.59-10.79,7.16-27.26-4.32-38.76-11.47-11.5-27.96-5.97-38.75-4.41-3.95.57-7.97-.39-11.27-2.64l-9.89-7.71,2.08,1.62-10.1-7.69c-3.02-2.61-4.99-6.25-5.45-10.22-1.26-10.84-.14-28.18-14.2-36.32-14.06-8.14-28.55,1.47-38.57,5.77-3.67,1.58-7.8,1.68-11.57.36l-11.55-4.89,2.43,1.03-11.75-4.81c-3.6-1.74-6.44-4.75-7.91-8.46-4.02-10.14-7.43-27.19-23.12-31.41-15.69-4.22-27.2,8.8-35.76,15.56-3.14,2.47-7.1,3.65-11.08,3.35l-12.42-1.73,2.62.37-12.6-1.61c-3.92-.75-7.44-2.92-9.83-6.13C447.72,15.6,440.01.02,423.77,0c-16.25-.02-23.99,15.54-30.52,24.28-2.39,3.2-5.92,5.36-9.84,6.1l-9.83,1.22-12.58,1.71c-3.98.29-7.95-.89-11.08-3.37-8.55-6.77-20.03-19.83-35.72-15.64-15.7,4.19-19.15,21.22-23.19,31.35-1.48,3.71-4.33,6.71-7.93,8.44l-11.62,4.71,2.45-.99-11.71,4.91c-3.77,1.31-7.91,1.19-11.57-.39-10.01-4.33-24.48-13.97-38.56-5.86-14.08,8.11-13,25.46-14.29,36.29-.47,3.97-2.44,7.6-5.47,10.21l-10.01,7.56,2.11-1.59-10.04,7.77c-3.31,2.24-7.33,3.2-11.28,2.62-10.79-1.59-27.26-7.16-38.76,4.32-11.5,11.47-5.97,27.95-4.41,38.75.57,3.95-.39,7.97-2.64,11.27l-7.71,9.89,1.63-2.08-7.69,10.1c-2.61,3.02-6.25,4.99-10.22,5.45-10.84,1.26-28.18.14-36.32,14.2-8.14,14.06,1.47,28.55,5.77,38.57,1.58,3.67,1.68,7.8.36,11.57l-4.89,11.55,1.03-2.43-4.81,11.75c-1.74,3.6-4.75,6.44-8.46,7.91-10.14,4.02-27.19,7.43-31.41,23.12-4.22,15.69,8.8,27.2,15.56,35.76,2.47,3.14,3.65,7.1,3.35,11.08l-1.73,12.42.37-2.62-1.61,12.6c-.75,3.92-2.92,7.44-6.13,9.83C15.6,398.81.02,406.52,0,422.77c-.02,16.25,15.54,23.99,24.28,30.52,3.2,2.39,5.36,5.92,6.1,9.84l1.22,9.83,1.71,12.58c.29,3.98-.89,7.95-3.37,11.08-6.77,8.55-19.83,20.03-15.64,35.72,4.19,15.7,21.22,19.15,31.35,23.19,3.71,1.48,6.71,4.33,8.44,7.93l4.71,11.62-.99-2.45,4.91,11.71c1.31,3.77,1.19,7.91-.39,11.57-4.33,10.01-13.97,24.48-5.86,38.56,8.11,14.08,25.46,13,36.29,14.29,3.97.47,7.6,2.44,10.21,5.47l7.56,10.01-1.59-2.11,7.77,10.04c2.24,3.31,3.2,7.33,2.62,11.28-1.59,10.79-7.16,27.26,4.32,38.76,11.47,11.5,27.96,5.97,38.75,4.41,3.95-.57,7.97.39,11.27,2.64l9.89,7.71-2.08-1.62,10.1,7.69c3.02,2.61,4.99,6.25,5.45,10.22,1.26,10.84.14,28.18,14.2,36.32,14.06,8.14,28.55-1.47,38.57-5.77,3.67-1.58,7.8-1.68,11.57-.36l11.55,4.89-2.43-1.03,11.75,4.81c3.6,1.74,6.44,4.75,7.91,8.46,4.02,10.14,7.43,27.19,23.12,31.41,15.69,4.22,27.2-8.8,35.76-15.56,3.14-2.47,7.1-3.65,11.08-3.35l12.42,1.73-2.62-.37,12.6,1.61c3.92.75,7.44,2.92,9.83,6.13,6.5,8.76,14.21,24.34,30.46,24.36,16.25.02,23.99-15.54,30.52-24.28,2.39-3.2,5.92-5.36,9.84-6.1l9.83-1.22,12.58-1.71c3.98-.29,7.95.89,11.08,3.37,8.55,6.77,20.03,19.83,35.72,15.64,15.7-4.19,19.15-21.22,23.19-31.35,1.48-3.71,4.33-6.71,7.93-8.44l11.62-4.71-2.45.99,11.71-4.91c3.77-1.31,7.91-1.19,11.57.39,10.01,4.33,24.48,13.97,38.56,5.86,14.08-8.11,13-25.46,14.29-36.29.47-3.97,2.44-7.6,5.47-10.21l10.01-7.56-2.11,1.59,10.04-7.77c3.31-2.24,7.33-3.2,11.28-2.62,10.79,1.59,27.26,7.16,38.76-4.32,11.5-11.47,5.97-27.96,4.41-38.75-.57-3.95.39-7.97,2.64-11.27l7.71-9.89-1.62,2.08,7.69-10.1c2.61-3.02,6.25-4.99,10.22-5.45,10.84-1.26,28.18-.14,36.32-14.2,8.14-14.06-1.47-28.55-5.77-38.57-1.58-3.67-1.68-7.8-.36-11.57l4.89-11.55-1.03,2.43,4.81-11.75c1.74-3.6,4.75-6.44,8.46-7.91,10.14-4.02,27.19-7.43,31.41-23.12,4.22-15.69-8.8-27.2-15.56-35.76-2.47-3.14-3.65-7.1-3.35-11.08l1.73-12.42-.37,2.62,1.61-12.6c.75-3.92,2.92-7.44,6.13-9.83Z"/>
          <path class="cls-4" d="M370.96,31.93l2.62-.32s-2.62.32-2.62.32Z"/>
        </g>
        <path d="M199.99,715.4c-54.83-81.01-92.54-278.81,16.88-401.2,109.43-122.4,270.5-196.49,270.5-196.49,0,0,84.95-21.76,232.19,85.41l10.16-35.79-2.45-31.33s-12.24-4.9-13.71-4.9-26.44,2.94-26.44,2.94l-24.97-14.2s-13.71-30.35-12.24-32.8c1.47-2.45-8.81-17.62-8.81-17.62,0,0-19.09,14.2-39.17,10.77-20.07-3.43-40.15-12.73-39.66-15.67.49-2.94-5.87-23.4-8.81-24.92-2.94-1.52-19.09-9.43-19.09-9.43,0,0-29.38,18.19-31.33,18.68-1.96.49-31.33-5.87-35.25-7.83-3.92-1.96-18.11-16.93-19.58-18.5-1.47-1.57-5.87-5.49-5.87-5.49,0,0-9.3-6.85-14.69-1.47-5.39,5.38-12.24,10.7-16.16,16.61-3.92,5.91,9.3,12.74-13.22,14.96-22.52,2.21-37.7,0-37.7,0l-19.09-19.33-15.18-1.47s-13.29,10.42-12.94,12.24c.35,1.82-9.1,24.48-10.07,25.95-.98,1.47-9.3,8.81-9.3,8.81l-36.72,3.43s-20.07-11.75-21.54-11.26c-1.47.49-18.11,9.3-18.11,10.77s.98,12.61-3.43,24.66c-4.41,12.06-4.9,26.25-14.69,28.21-9.79,1.96-10.28,5.38-20.07,4.41-9.79-.98-7.34-6.37-17.13-2.94-9.79,3.43-10.79.27-16.76,6.73-5.96,6.46-6.74,1.11-7.23,10.41-.49,9.3.98,16.16-1.47,23.5-2.45,7.34-.49,6.36-5.87,15.67-5.39,9.3-5.76,15.18-11.2,19.58-5.45,4.41-11.67,7.83-16.15,7.83s-17.69-3.43-24.06,1.47c-6.37,4.9-11.75,4.9-8.32,15.67s14.19,20.56,14.93,25.95c.74,5.39-10.52,23.5-12.97,26.93-2.45,3.43-.98,10.77-7.34,14.2-6.36,3.43-27.42,14.69-29.86,18.6-2.45,3.92-15.18,8.32-3.92,19.58,11.26,11.26,16.65,11.75,17.62,25.46.98,13.71,1.38,33.78-1.76,36.72-3.14,2.94-29.58,18.6-30.56,24.97-.98,6.36-5.39,13.22,1.47,19.09,6.85,5.88,26.44,16.16,26.44,18.6s8.81,37.7,8.32,40.15c-.49,2.45-6.36,15.18-10.77,19.58-4.41,4.41-11.26,6.36-9.79,15.67,1.47,9.3,2.94,7.83,12.73,14.2,9.79,6.36,28.89,22.42,28.89,22.42,0,0,7.83,25.07,7.34,27.03-.49,1.96-14.69,35.25-14.69,35.25l11.26,12.24,35.74,2.94s23.83,27.91,23.42,29.86c-.41,1.96-3.35,23.5-3.35,25.46s5.39,20.56,5.39,20.56c0,0,4.9,2.94,14.2.98,9.3-1.96,21.02-2.71,23.49-3.31,2.46-.61,22.54-9.18,22.54-9.18Z"/>
        <g>
          <path class="cls-2" d="M748.1,611.11c-1.07-.25-1.89.97-1.25,1.87,14.52,20.4,23.79,24.53,28.7,18.07,6.25-8.22-7.95-15.4-27.45-19.94Z"/>
          <path class="cls-2" d="M784.77,521.8c-.95.05-1.33,1.26-.58,1.85,17.01,13.37,25.7,14.53,28.19,7.98,3.17-8.34-10.34-10.82-27.61-9.83Z"/>
          <path class="cls-2" d="M789.48,334.82c-.66.51-.33,1.58.5,1.63,18.99,1.19,25.86-2.31,24.4-8.3-1.86-7.62-12.89-2.67-24.9,6.66Z"/>
          <path class="cls-2" d="M802.1,431.34c-.78.34-.73,1.48.09,1.74,18.5,5.96,26.19,4.22,26.24-2.07.07-8.01-12.09-5.89-26.33.33Z"/>
          <path class="cls-2" d="M757.53,242.51c-.51.67.08,1.61.9,1.45,18.66-3.71,24.41-8.86,21.46-14.27-3.75-6.89-13.15.71-22.36,12.82Z"/>
          <path class="cls-2" d="M696.94,160.46c-.4.73.32,1.58,1.11,1.3,17.91-6.42,22.83-12.36,19.12-17.27-4.73-6.26-12.9,2.65-20.23,15.98Z"/>
          <path class="cls-2" d="M687.32,691.64c-1.05-.46-2.12.64-1.63,1.68,11.06,23.62,19.8,29.58,26.03,23.88,7.94-7.26-5.27-17.26-24.4-25.56Z"/>
          <path class="cls-2" d="M607.91,747.84c-.94-.66-2.2.2-1.93,1.32,6.1,25.36,13.46,32.95,20.71,28.61,9.23-5.52-1.7-17.97-18.78-29.93Z"/>
          <path class="cls-2" d="M425.94,794.09c-.38-.97-1.77-.96-2.13.02-8.19,22.26-6.45,31.71,1.22,32.09,9.76.49,7.78-14.44.91-32.11Z"/>
          <path class="cls-2" d="M335.83,781.87c-.15-1-1.47-1.27-2.01-.42-12.35,19.27-12.68,28.54-5.53,30.5,9.1,2.49,10.34-11.99,7.54-30.07Z"/>
          <path class="cls-2" d="M243.06,752.15c.06-1-1.17-1.55-1.88-.83-16.1,16.26-18.36,25.26-11.78,28.67,8.38,4.34,12.62-9.56,13.66-27.83Z"/>
          <path class="cls-2" d="M161.61,695.32c.39-.93-.59-1.85-1.5-1.41-20.56,10.05-25.66,17.8-20.57,23.18,6.48,6.86,15.07-4.87,22.07-21.78Z"/>
          <path class="cls-2" d="M519.62,784.32c-.6-.75-1.81-.35-1.85.61-1.03,21.73,3.1,29.52,9.91,27.74,8.68-2.27,2.83-14.78-8.06-28.34Z"/>
        </g>
        <path class="cls-5" d="M683.7,219.33c53.7,68.75,80.81,159.27,65.89,256.07-21.34,138.52-128.7,248.71-266.74,272.96-79.74,14.01-155.48-.56-218.68-35.16-1.15-.63-.39-2.38.85-1.97,85.45,27.6,89.07,24.18,157.41,24.26,110.16.13,292.92-66.57,293.21-312.34,0-7.03.16-15.8-.07-22.87-.04-1.29,1.81-1.55,2.12-.3,5.12,20.38,10.14,59.26,7.03,95.55-.11,1.31,1.78,1.63,2.12.36,5.48-20.34,8.44-43.36,8.47-72.72.09-80.4-39.44-172.41-53.45-202.73-.53-1.16,1.04-2.12,1.83-1.11Z"/>
        <path class="cls-1" d="M470.79,95.89c-11.98-1.74-24.18-2.84-36.54-3.27-191.9-6.53-347.1,147.74-341.69,339.68,1.33,47.22,12.57,91.96,31.71,132.21.55,1.15,2.29.55,2.02-.69-8.67-39.55-16.03-110-16.03-141.01,0-167.86,122.61-261.8,194.98-288.75,60.81-22.64,105.43-33.23,165.44-36.32,1.12-.06,1.21-1.69.1-1.85Z"/>
        <path class="cls-1" d="M139.12,290.64c-5.75,13.05-10.03,54.97-6.03,85.51.13,1.02-1.27,1.42-1.68.47-4.86-11.33-9.06-34.04-8.84-42.24l1.01-24.09,15.54-19.65Z"/>
      </g>
      <g>
        <path class="cls-3" d="M309.33,362.05h7.92v20.04l4.14-5.28,12.12-14.76h9.66l-15.84,19.08,16.62,24.06h-9.48l-12.36-18.18-4.86,5.1v13.08h-7.92v-43.14Z"/>
        <path class="cls-3" d="M341.85,380.83h15.96v6.06h-15.96v-6.06Z"/>
        <path class="cls-3" d="M372.99,405.19h-7.92v-43.14h16.62c3.28,0,6.12.59,8.52,1.77,2.4,1.18,4.23,2.82,5.49,4.92,1.26,2.1,1.89,4.51,1.89,7.23,0,4.16-1.4,7.44-4.2,9.84-2.8,2.4-6.7,3.6-11.7,3.6h-8.7v15.78ZM372.99,383.05h8.7c2.68,0,4.66-.63,5.94-1.89,1.28-1.26,1.92-2.97,1.92-5.13s-.65-4.02-1.95-5.46c-1.3-1.44-3.27-2.16-5.91-2.16h-8.7v14.64Z"/>
        <path class="cls-3" d="M402.99,362.05h28.38v6.36h-20.46v11.46h17.58v6.18h-17.58v12.78h20.58v6.36h-28.5v-43.14Z"/>
        <path class="cls-3" d="M435.5,373.09h7.2l.24,3.84c1.12-1.44,2.48-2.54,4.08-3.3,1.6-.76,3.36-1.14,5.28-1.14,6.76,0,10.14,4.02,10.14,12.06v20.64h-7.62v-20.7c0-2.08-.45-3.55-1.35-4.41-.9-.86-2.29-1.29-4.17-1.29-1.4,0-2.62.32-3.66.96-1.04.64-1.86,1.54-2.46,2.7v22.74h-7.68v-32.1Z"/>
        <path class="cls-3" d="M491.03,391.03c-.5-.8-1.39-1.53-2.67-2.19-1.28-.66-3.16-1.37-5.64-2.13-4.52-1.4-8.03-3.13-10.53-5.19-2.5-2.06-3.75-4.75-3.75-8.07,0-2.36.66-4.45,1.98-6.27s3.15-3.23,5.49-4.23c2.34-1,5.03-1.5,8.07-1.5s5.92.58,8.28,1.74c2.36,1.16,4.18,2.74,5.46,4.74,1.28,2,1.92,4.24,1.92,6.72h-7.92c0-2.12-.66-3.8-1.98-5.04-1.32-1.24-3.28-1.86-5.88-1.86-2.44,0-4.3.52-5.58,1.56-1.28,1.04-1.92,2.4-1.92,4.08,0,1.48.73,2.75,2.19,3.81,1.46,1.06,3.75,2.05,6.87,2.97,4.88,1.44,8.48,3.24,10.8,5.4,2.32,2.16,3.48,4.94,3.48,8.34,0,3.68-1.4,6.58-4.2,8.7-2.8,2.12-6.56,3.18-11.28,3.18-2.92,0-5.68-.52-8.28-1.56-2.6-1.04-4.72-2.6-6.36-4.68-1.64-2.08-2.46-4.62-2.46-7.62h7.92c0,2.6.83,4.52,2.49,5.76,1.66,1.24,3.89,1.86,6.69,1.86,2.44,0,4.31-.51,5.61-1.53,1.3-1.02,1.95-2.37,1.95-4.05,0-1.16-.25-2.14-.75-2.94Z"/>
        <path class="cls-3" d="M517.52,362.05h7.2l16.26,43.14h-8.28l-3.36-9.66h-16.38l-3.3,9.66h-8.34l16.2-43.14ZM521.18,371.71l-6,17.4h11.94l-5.94-17.4Z"/>
      </g>
      <g>
        <path class="cls-3" d="M305.25,666.79l6.99-7.68c1.18-1.3,1.99-2.36,2.44-3.18s.67-1.62.67-2.4c0-1.06-.3-1.92-.9-2.58s-1.43-.99-2.49-.99c-1.26,0-2.22.38-2.88,1.12-.66.75-.99,1.75-.99,2.99h-3.27c0-1.26.29-2.4.85-3.42.57-1.02,1.4-1.83,2.48-2.43,1.08-.6,2.36-.9,3.84-.9,2.08,0,3.71.53,4.88,1.58s1.75,2.47,1.75,4.27c0,1.22-.37,2.46-1.11,3.72-.74,1.26-1.79,2.61-3.15,4.05l-5.07,5.52h10.23v2.61h-14.28v-2.28Z"/>
        <path class="cls-3" d="M334.05,667.15c-1.2,1.48-2.9,2.22-5.1,2.22s-3.92-.75-5.15-2.23c-1.23-1.49-1.84-3.87-1.84-7.12v-3.42c0-3.28.6-5.64,1.81-7.09,1.21-1.45,2.92-2.17,5.15-2.17s3.93.73,5.13,2.17c1.2,1.45,1.8,3.82,1.8,7.09v3.42c0,3.28-.6,5.66-1.8,7.14ZM331.66,651.39c-.61-.95-1.53-1.43-2.75-1.43s-2.17.48-2.77,1.43c-.61.95-.92,2.51-.92,4.69v4.41c0,2.18.31,3.77.94,4.77s1.55,1.5,2.77,1.5,2.13-.5,2.73-1.5.9-2.59.9-4.77v-4.41c0-2.18-.31-3.74-.91-4.69Z"/>
        <path class="cls-3" d="M338.73,666.79l6.99-7.68c1.18-1.3,1.99-2.36,2.44-3.18s.67-1.62.67-2.4c0-1.06-.3-1.92-.9-2.58s-1.43-.99-2.49-.99c-1.26,0-2.22.38-2.88,1.12-.66.75-.99,1.75-.99,2.99h-3.27c0-1.26.29-2.4.85-3.42.57-1.02,1.4-1.83,2.48-2.43,1.08-.6,2.36-.9,3.84-.9,2.08,0,3.71.53,4.88,1.58s1.75,2.47,1.75,4.27c0,1.22-.37,2.46-1.11,3.72-.74,1.26-1.79,2.61-3.15,4.05l-5.07,5.52h10.23v2.61h-14.28v-2.28Z"/>
        <path class="cls-3" d="M364.83,655.89c.66-.63.99-1.46.99-2.51,0-1.1-.29-1.94-.87-2.53s-1.44-.89-2.58-.89c-1.04,0-1.89.29-2.53.87-.65.58-.98,1.37-.98,2.37h-3.3c0-1.1.29-2.1.87-3,.58-.9,1.38-1.6,2.42-2.12,1.03-.51,2.19-.76,3.46-.76,2.08,0,3.73.53,4.95,1.58,1.22,1.05,1.83,2.55,1.83,4.51,0,.9-.29,1.79-.85,2.66-.57.87-1.4,1.54-2.48,2,1.26.4,2.19,1.05,2.77,1.95.59.9.89,1.92.89,3.06,0,1.3-.31,2.43-.92,3.38-.61.95-1.45,1.68-2.52,2.17-1.07.5-2.29.75-3.65.75-1.26,0-2.43-.24-3.5-.71-1.07-.47-1.92-1.16-2.55-2.07-.63-.91-.95-2-.95-3.26h3.3c0,1.02.34,1.85,1.02,2.48.68.63,1.58.95,2.7.95,1.18,0,2.1-.32,2.78-.95.67-.63,1-1.54,1-2.71,0-1.24-.37-2.17-1.11-2.78-.74-.61-1.77-.92-3.09-.92h-2.04v-2.58h2.04c1.26,0,2.22-.31,2.88-.94Z"/>
        <path class="cls-3" d="M373.17,666.07c.34-.36.81-.54,1.41-.54s1.07.18,1.42.54c.35.36.52.81.52,1.35s-.17.95-.51,1.29c-.34.34-.82.51-1.44.51s-1.07-.17-1.41-.51c-.34-.34-.51-.77-.51-1.29s.17-.99.51-1.35Z"/>
        <path class="cls-3" d="M391.89,667.15c-1.2,1.48-2.9,2.22-5.1,2.22s-3.92-.75-5.15-2.23c-1.23-1.49-1.84-3.87-1.84-7.12v-3.42c0-3.28.6-5.64,1.81-7.09,1.21-1.45,2.92-2.17,5.15-2.17s3.93.73,5.13,2.17c1.2,1.45,1.8,3.82,1.8,7.09v3.42c0,3.28-.6,5.66-1.8,7.14ZM389.5,651.39c-.61-.95-1.53-1.43-2.75-1.43s-2.17.48-2.77,1.43c-.61.95-.92,2.51-.92,4.69v4.41c0,2.18.31,3.77.94,4.77s1.55,1.5,2.77,1.5,2.13-.5,2.73-1.5.9-2.59.9-4.77v-4.41c0-2.18-.31-3.74-.91-4.69Z"/>
        <path class="cls-3" d="M402.6,661.9c-1.34,0-2.47-.33-3.38-.99-.91-.66-1.59-1.53-2.04-2.62-.45-1.09-.68-2.27-.68-3.55,0-1.38.27-2.62.81-3.74.54-1.11,1.32-1.98,2.35-2.62,1.03-.64,2.25-.96,3.68-.96s2.75.39,3.82,1.16c1.07.77,1.88,1.79,2.45,3.08.56,1.28.84,2.66.84,4.14v4.23c0,1.84-.28,3.47-.84,4.89-.56,1.42-1.39,2.54-2.48,3.34-1.09.81-2.41,1.21-3.95,1.21-1.1,0-2.11-.23-3.03-.69-.92-.46-1.67-1.08-2.23-1.86-.57-.78-.89-1.62-.95-2.52h3.15c.16.62.5,1.18,1.02,1.69.52.51,1.25.77,2.19.77,1.34,0,2.3-.58,2.9-1.73.59-1.15.88-2.85.88-5.11-1.14,1.26-2.65,1.89-4.53,1.89ZM406.67,652.56c-.34-.83-.8-1.46-1.38-1.88s-1.22-.63-1.92-.63c-1.14,0-2.03.42-2.67,1.27-.64.85-.96,1.96-.96,3.34,0,1.3.31,2.39.94,3.27s1.52,1.32,2.69,1.32c.86,0,1.64-.25,2.34-.75s1.19-1.13,1.47-1.89v-1.11c0-1.14-.17-2.12-.51-2.96Z"/>
        <path class="cls-3" d="M419.48,657.1h7.59v2.61h-7.59v-2.61Z"/>
        <path class="cls-3" d="M436.1,666.79l6.99-7.68c1.18-1.3,1.99-2.36,2.44-3.18s.67-1.62.67-2.4c0-1.06-.3-1.92-.9-2.58s-1.43-.99-2.49-.99c-1.26,0-2.22.38-2.88,1.12-.66.75-.99,1.75-.99,2.99h-3.27c0-1.26.29-2.4.85-3.42.57-1.02,1.4-1.83,2.48-2.43,1.08-.6,2.36-.9,3.84-.9,2.08,0,3.71.53,4.88,1.58s1.75,2.47,1.75,4.27c0,1.22-.37,2.46-1.11,3.72-.74,1.26-1.79,2.61-3.15,4.05l-5.07,5.52h10.23v2.61h-14.28v-2.28Z"/>
        <path class="cls-3" d="M464.9,667.15c-1.2,1.48-2.9,2.22-5.1,2.22s-3.92-.75-5.15-2.23c-1.23-1.49-1.84-3.87-1.84-7.12v-3.42c0-3.28.6-5.64,1.81-7.09,1.21-1.45,2.92-2.17,5.15-2.17s3.93.73,5.13,2.17c1.2,1.45,1.8,3.82,1.8,7.09v3.42c0,3.28-.6,5.66-1.8,7.14ZM462.52,651.39c-.61-.95-1.53-1.43-2.75-1.43s-2.17.48-2.77,1.43c-.61.95-.92,2.51-.92,4.69v4.41c0,2.18.31,3.77.94,4.77s1.55,1.5,2.77,1.5,2.13-.5,2.73-1.5.9-2.59.9-4.77v-4.41c0-2.18-.31-3.74-.91-4.69Z"/>
        <path class="cls-3" d="M469.58,666.79l6.99-7.68c1.18-1.3,1.99-2.36,2.44-3.18s.67-1.62.67-2.4c0-1.06-.3-1.92-.9-2.58s-1.43-.99-2.49-.99c-1.26,0-2.22.38-2.88,1.12-.66.75-.99,1.75-.99,2.99h-3.27c0-1.26.29-2.4.85-3.42.57-1.02,1.4-1.83,2.48-2.43,1.08-.6,2.36-.9,3.84-.9,2.08,0,3.71.53,4.88,1.58s1.75,2.47,1.75,4.27c0,1.22-.37,2.46-1.11,3.72-.74,1.26-1.79,2.61-3.15,4.05l-5.07,5.52h10.23v2.61h-14.28v-2.28Z"/>
        <path class="cls-3" d="M499.52,647.62v2.85h-8.61l-.6,5.43c.4-.24.89-.45,1.48-.62.59-.17,1.23-.25,1.94-.25,2.02,0,3.6.64,4.74,1.92,1.14,1.28,1.71,3.03,1.71,5.25s-.6,3.85-1.78,5.17c-1.19,1.33-2.92,2-5.18,2-1.2,0-2.31-.23-3.33-.69-1.02-.46-1.85-1.15-2.49-2.07-.64-.92-1-2.02-1.08-3.3h3.18c.14,1.1.53,1.95,1.17,2.55.64.6,1.49.9,2.55.9,1.18,0,2.09-.42,2.73-1.25s.96-1.96.96-3.38c0-1.3-.35-2.36-1.05-3.18-.7-.82-1.68-1.23-2.94-1.23-.8,0-1.42.1-1.86.31-.44.21-.91.55-1.41,1.01l-2.61-.69,1.14-10.74h11.34Z"/>
        <path class="cls-3" d="M504.02,666.07c.34-.36.81-.54,1.41-.54s1.07.18,1.42.54c.35.36.52.81.52,1.35s-.17.95-.51,1.29c-.34.34-.82.51-1.44.51s-1.07-.17-1.41-.51c-.34-.34-.51-.77-.51-1.29s.17-.99.51-1.35Z"/>
        <path class="cls-3" d="M522.74,667.15c-1.2,1.48-2.9,2.22-5.1,2.22s-3.92-.75-5.15-2.23c-1.23-1.49-1.84-3.87-1.84-7.12v-3.42c0-3.28.6-5.64,1.81-7.09,1.21-1.45,2.92-2.17,5.15-2.17s3.93.73,5.13,2.17c1.2,1.45,1.8,3.82,1.8,7.09v3.42c0,3.28-.6,5.66-1.8,7.14ZM520.36,651.39c-.61-.95-1.53-1.43-2.75-1.43s-2.17.48-2.77,1.43c-.61.95-.92,2.51-.92,4.69v4.41c0,2.18.31,3.77.94,4.77s1.55,1.5,2.77,1.5,2.13-.5,2.73-1.5.9-2.59.9-4.77v-4.41c0-2.18-.31-3.74-.91-4.69Z"/>
        <path class="cls-3" d="M540.62,647.62v2.85h-8.61l-.6,5.43c.4-.24.89-.45,1.48-.62.59-.17,1.23-.25,1.94-.25,2.02,0,3.6.64,4.74,1.92,1.14,1.28,1.71,3.03,1.71,5.25s-.6,3.85-1.78,5.17c-1.19,1.33-2.92,2-5.18,2-1.2,0-2.31-.23-3.33-.69-1.02-.46-1.85-1.15-2.49-2.07-.64-.92-1-2.02-1.08-3.3h3.18c.14,1.1.53,1.95,1.17,2.55.64.6,1.49.9,2.55.9,1.18,0,2.09-.42,2.73-1.25s.96-1.96.96-3.38c0-1.3-.35-2.36-1.05-3.18-.7-.82-1.68-1.23-2.94-1.23-.8,0-1.42.1-1.86.31-.44.21-.91.55-1.41,1.01l-2.61-.69,1.14-10.74h11.34Z"/>
      </g>
      <g>
        <path class="cls-3" d="M233.77,449.34h5.33v25.74h-4.1v-9.04l.43-11.16-7.96,20.2h-2.95l-7.88-20.2.4,11.16v9.04h-4.07v-25.74h5.29l7.78,20.23,7.74-20.23Z"/>
        <path class="cls-3" d="M253.64,459.53c-.62-.62-1.52-.94-2.7-.94-1.08,0-1.95.27-2.61.81-.66.54-.99,1.21-.99,2h-3.96c0-.98.32-1.93.97-2.83.65-.9,1.56-1.62,2.74-2.16s2.53-.81,4.07-.81c2.23,0,4.01.56,5.35,1.67s2,2.73,2,4.84v8.64c0,1.66.24,3,.72,4.03v.29h-4.07c-.17-.38-.32-1.02-.47-1.91-.62.67-1.38,1.22-2.27,1.64-.89.42-1.87.63-2.95.63-1.27,0-2.39-.25-3.37-.74s-1.73-1.17-2.29-2.03c-.55-.86-.83-1.84-.83-2.92,0-2.04.76-3.6,2.29-4.68,1.52-1.08,3.65-1.62,6.39-1.62h2.92v-1.37c0-1.08-.31-1.93-.94-2.56ZM252.83,471.5c.78-.49,1.36-1.1,1.75-1.82v-3.71h-2.48c-1.68,0-2.96.29-3.85.86-.89.58-1.33,1.4-1.33,2.48,0,.86.29,1.57.86,2.11.58.54,1.37.81,2.38.81s1.9-.25,2.68-.74Z"/>
        <path class="cls-3" d="M262.64,455.97h3.74l.11,2.2c1.06-1.7,2.54-2.56,4.46-2.56.26,0,.55.02.85.07.3.05.51.1.63.14l-.04,3.67c-.72-.1-1.27-.14-1.66-.14-1.06,0-1.93.22-2.63.67-.7.44-1.21,1.06-1.55,1.85v13.21h-3.92v-19.12Z"/>
        <path class="cls-3" d="M274.7,449.34h3.89v14.51l1.51-1.8,5.54-6.08h4.75l-7.27,7.96,8.06,11.16h-4.61l-6.01-8.46-1.98,2.02v6.44h-3.89v-25.74Z"/>
        <path class="cls-3" d="M296.19,474.24c-1.37-.8-2.42-1.91-3.17-3.31-.74-1.4-1.12-2.99-1.12-4.77,0-2.18.38-4.07,1.15-5.67.77-1.6,1.8-2.81,3.1-3.64,1.3-.83,2.74-1.24,4.32-1.24,2.66,0,4.67.85,6.03,2.56s2.03,3.97,2.03,6.8v1.73h-12.67c.1,1.63.62,2.98,1.57,4.03.95,1.06,2.19,1.58,3.73,1.58,1.99,0,3.62-.83,4.9-2.48l2.16,1.98c-.7,1.06-1.64,1.93-2.84,2.61-1.2.68-2.68,1.03-4.43,1.03s-3.38-.4-4.75-1.21ZM297.45,460.05c-.79.88-1.3,2.11-1.51,3.69h8.71v-.32c-.07-1.34-.44-2.46-1.12-3.35-.67-.89-1.7-1.33-3.1-1.33-1.2,0-2.2.44-2.99,1.31Z"/>
        <path class="cls-3" d="M317.16,471.72c.35.3.86.45,1.53.45.53,0,1.03-.06,1.51-.18v3.06c-.89.26-1.79.4-2.7.4-1.46,0-2.63-.42-3.49-1.26-.86-.84-1.3-2.18-1.3-4.03v-11.27h-3.28v-2.92h3.28v-4.72h3.92v4.72h3.49v2.92h-3.49v11.09c0,.86.17,1.45.52,1.75Z"/>
        <path class="cls-3" d="M324.34,449.36c.41-.4.96-.59,1.66-.59s1.25.2,1.66.59c.41.4.61.91.61,1.53s-.2,1.13-.61,1.53c-.41.4-.96.59-1.66.59s-1.25-.2-1.66-.59c-.41-.4-.61-.91-.61-1.53s.2-1.13.61-1.53ZM324.02,455.97h3.92v19.12h-3.92v-19.12Z"/>
        <path class="cls-3" d="M332.91,455.97h3.71l.14,2.3c.67-.86,1.49-1.52,2.45-1.98s2.02-.68,3.17-.68c1.94,0,3.44.56,4.5,1.67,1.06,1.12,1.58,2.91,1.58,5.38v12.42h-3.92v-12.46c0-1.37-.29-2.34-.86-2.92-.58-.58-1.46-.86-2.66-.86-.94,0-1.76.23-2.47.7s-1.28,1.1-1.71,1.89v13.64h-3.92v-19.12Z"/>
        <path class="cls-3" d="M352.64,460.25c.62-1.46,1.51-2.6,2.65-3.42,1.14-.82,2.49-1.22,4.05-1.22,2.26,0,4.01.77,5.26,2.3l.18-1.94h3.56v18.65c0,2.52-.78,4.48-2.34,5.89s-3.61,2.11-6.16,2.11c-1.25,0-2.56-.26-3.92-.79-1.37-.53-2.42-1.32-3.17-2.38l1.87-2.38c1.39,1.63,3.05,2.45,4.97,2.45,1.51,0,2.69-.41,3.53-1.24.84-.83,1.26-2.02,1.26-3.58v-1.4c-1.22,1.44-2.92,2.16-5.08,2.16-1.54,0-2.87-.42-4.01-1.26-1.14-.84-2.02-2-2.65-3.47s-.94-3.14-.94-4.99v-.36c0-1.94.31-3.65.94-5.11ZM356.79,470.39c.78,1.21,1.94,1.82,3.47,1.82,1.87,0,3.24-.82,4.1-2.45v-8.57c-.86-1.56-2.22-2.34-4.07-2.34-1.56,0-2.73.61-3.51,1.82-.78,1.21-1.17,2.78-1.17,4.7v.36c0,1.9.39,3.45,1.17,4.66Z"/>
        <path class="cls-3" d="M396.07,473.07c-1.69,1.58-4.05,2.38-7.07,2.38-2.06,0-3.87-.5-5.42-1.49s-2.74-2.4-3.58-4.21c-.84-1.81-1.26-3.93-1.26-6.35v-2.3c0-2.42.43-4.55,1.28-6.37.85-1.82,2.07-3.23,3.65-4.23,1.58-1,3.44-1.49,5.58-1.49,2.9,0,5.18.79,6.84,2.38,1.66,1.58,2.63,3.72,2.92,6.41h-4.1c-.22-1.82-.76-3.19-1.64-4.1-.88-.91-2.21-1.37-4.01-1.37-2.09,0-3.68.76-4.77,2.29-1.09,1.52-1.64,3.68-1.64,6.46v2.34c0,2.69.51,4.82,1.53,6.39,1.02,1.57,2.56,2.36,4.63,2.36,1.92,0,3.32-.44,4.21-1.31.89-.88,1.45-2.23,1.69-4.05h4.07c-.24,2.62-1.21,4.72-2.9,6.3Z"/>
        <path class="cls-3" d="M402.14,449.34h3.92v8.78c.67-.82,1.47-1.44,2.39-1.87s1.94-.65,3.04-.65c4.13,0,6.19,2.36,6.19,7.09v12.38h-3.92v-12.42c0-1.37-.29-2.35-.88-2.93-.59-.59-1.47-.88-2.65-.88-.94,0-1.76.23-2.47.68s-1.28,1.08-1.71,1.87v13.68h-3.92v-25.74Z"/>
        <path class="cls-3" d="M431.69,459.53c-.62-.62-1.52-.94-2.7-.94-1.08,0-1.95.27-2.61.81-.66.54-.99,1.21-.99,2h-3.96c0-.98.32-1.93.97-2.83.65-.9,1.56-1.62,2.74-2.16s2.53-.81,4.07-.81c2.23,0,4.01.56,5.35,1.67s2,2.73,2,4.84v8.64c0,1.66.24,3,.72,4.03v.29h-4.07c-.17-.38-.32-1.02-.47-1.91-.62.67-1.38,1.22-2.27,1.64-.89.42-1.87.63-2.95.63-1.27,0-2.39-.25-3.37-.74s-1.73-1.17-2.29-2.03c-.55-.86-.83-1.84-.83-2.92,0-2.04.76-3.6,2.29-4.68,1.52-1.08,3.65-1.62,6.39-1.62h2.92v-1.37c0-1.08-.31-1.93-.94-2.56ZM430.88,471.5c.78-.49,1.36-1.1,1.75-1.82v-3.71h-2.48c-1.68,0-2.96.29-3.85.86-.89.58-1.33,1.4-1.33,2.48,0,.86.29,1.57.86,2.11.58.54,1.37.81,2.38.81s1.9-.25,2.68-.74Z"/>
        <path class="cls-3" d="M441.3,449.36c.41-.4.96-.59,1.66-.59s1.25.2,1.66.59c.41.4.61.91.61,1.53s-.2,1.13-.61,1.53c-.41.4-.96.59-1.66.59s-1.25-.2-1.66-.59c-.41-.4-.61-.91-.61-1.53s.2-1.13.61-1.53ZM440.98,455.97h3.92v19.12h-3.92v-19.12Z"/>
        <path class="cls-3" d="M449.91,455.97h3.74l.11,2.2c1.06-1.7,2.54-2.56,4.46-2.56.26,0,.55.02.85.07.3.05.51.1.63.14l-.04,3.67c-.72-.1-1.27-.14-1.66-.14-1.06,0-1.93.22-2.63.67-.7.44-1.21,1.06-1.55,1.85v13.21h-3.92v-19.12Z"/>
        <path class="cls-3" d="M480.36,449.34l-9.9,25.74h-3.85l9.9-25.74h3.85Z"/>
        <path class="cls-3" d="M500.59,475.08h-3.89l-9.36-25.74h4.5l6.77,20.56,6.84-20.56h4.46l-9.32,25.74Z"/>
        <path class="cls-3" d="M516.54,475.08h-4.07v-25.74h9.68c1.92,0,3.58.34,4.97,1.03,1.39.68,2.45,1.63,3.19,2.84s1.1,2.61,1.1,4.19c0,2.5-.81,4.44-2.43,5.83-1.62,1.39-3.89,2.09-6.82,2.09h-5.62v9.76ZM516.54,462.05h5.62c1.75,0,3.05-.41,3.89-1.24.84-.83,1.26-1.95,1.26-3.37s-.43-2.51-1.28-3.44c-.85-.92-2.14-1.39-3.87-1.39h-5.62v9.43Z"/>
        <path class="cls-3" d="M541.99,449.34h4.07v25.74h-4.07v-25.74Z"/>
        <path class="cls-3" d="M550.74,455.97h3.71l.14,2.3c.67-.86,1.49-1.52,2.45-1.98s2.02-.68,3.17-.68c1.94,0,3.44.56,4.5,1.67,1.06,1.12,1.58,2.91,1.58,5.38v12.42h-3.92v-12.46c0-1.37-.29-2.34-.86-2.92-.58-.58-1.46-.86-2.66-.86-.94,0-1.76.23-2.47.7s-1.28,1.1-1.71,1.89v13.64h-3.92v-19.12Z"/>
        <path class="cls-3" d="M575.85,471.72c.35.3.86.45,1.53.45.53,0,1.03-.06,1.51-.18v3.06c-.89.26-1.79.4-2.7.4-1.46,0-2.63-.42-3.49-1.26-.86-.84-1.3-2.18-1.3-4.03v-11.27h-3.28v-2.92h3.28v-4.72h3.92v4.72h3.49v2.92h-3.49v11.09c0,.86.17,1.45.52,1.75Z"/>
        <path class="cls-3" d="M585.08,474.24c-1.37-.8-2.42-1.91-3.17-3.31-.74-1.4-1.12-2.99-1.12-4.77,0-2.18.38-4.07,1.15-5.67.77-1.6,1.8-2.81,3.1-3.64,1.3-.83,2.74-1.24,4.32-1.24,2.66,0,4.67.85,6.03,2.56s2.03,3.97,2.03,6.8v1.73h-12.67c.1,1.63.62,2.98,1.57,4.03.95,1.06,2.19,1.58,3.73,1.58,1.99,0,3.62-.83,4.9-2.48l2.16,1.98c-.7,1.06-1.64,1.93-2.84,2.61-1.2.68-2.68,1.03-4.43,1.03s-3.38-.4-4.75-1.21ZM586.34,460.05c-.79.88-1.3,2.11-1.51,3.69h8.71v-.32c-.07-1.34-.44-2.46-1.12-3.35-.67-.89-1.7-1.33-3.1-1.33-1.2,0-2.2.44-2.99,1.31Z"/>
        <path class="cls-3" d="M600.49,455.97h3.74l.11,2.2c1.06-1.7,2.54-2.56,4.46-2.56.26,0,.55.02.85.07.3.05.51.1.63.14l-.04,3.67c-.72-.1-1.27-.14-1.66-.14-1.06,0-1.93.22-2.63.67-.7.44-1.21,1.06-1.55,1.85v13.21h-3.92v-19.12Z"/>
        <path class="cls-3" d="M612.48,455.97h3.71l.14,2.3c.67-.86,1.49-1.52,2.45-1.98s2.02-.68,3.17-.68c1.94,0,3.44.56,4.5,1.67,1.06,1.12,1.58,2.91,1.58,5.38v12.42h-3.92v-12.46c0-1.37-.29-2.34-.86-2.92-.58-.58-1.46-.86-2.66-.86-.94,0-1.76.23-2.47.7s-1.28,1.1-1.71,1.89v13.64h-3.92v-19.12Z"/>
        <path class="cls-3" d="M642.07,459.53c-.62-.62-1.52-.94-2.7-.94-1.08,0-1.95.27-2.61.81-.66.54-.99,1.21-.99,2h-3.96c0-.98.32-1.93.97-2.83.65-.9,1.56-1.62,2.74-2.16s2.53-.81,4.07-.81c2.23,0,4.01.56,5.35,1.67s2,2.73,2,4.84v8.64c0,1.66.24,3,.72,4.03v.29h-4.07c-.17-.38-.32-1.02-.47-1.91-.62.67-1.38,1.22-2.27,1.64-.89.42-1.87.63-2.95.63-1.27,0-2.39-.25-3.37-.74s-1.73-1.17-2.29-2.03c-.55-.86-.83-1.84-.83-2.92,0-2.04.76-3.6,2.29-4.68,1.52-1.08,3.65-1.62,6.39-1.62h2.92v-1.37c0-1.08-.31-1.93-.94-2.56ZM641.26,471.5c.78-.49,1.36-1.1,1.75-1.82v-3.71h-2.48c-1.68,0-2.96.29-3.85.86-.89.58-1.33,1.4-1.33,2.48,0,.86.29,1.57.86,2.11.58.54,1.37.81,2.38.81s1.9-.25,2.68-.74Z"/>
        <path class="cls-3" d="M651.36,449.34h3.92v25.74h-3.92v-25.74Z"/>
      </g>
    </g>
  </g>
</svg>