<?xml version="1.0" encoding="UTF-8"?>
<svg id="Layer_2" data-name="Layer 2" xmlns="http://www.w3.org/2000/svg" viewBox="0 0 846.53 846.53">
  <defs>
    <style>
      .cls-1 {
        fill: #1e1e1e;
      }

      .cls-2 {
        fill: #4d4d4d;
      }

      .cls-3 {
        fill: #ededed;
      }

      .cls-4 {
        fill: #1a1a1a;
      }

      .cls-5 {
        fill: #302f2f;
      }
    </style>
  </defs>
  <g id="Layer_1-2" data-name="Layer 1">
    <g>
      <g>
        <g>
          <path class="cls-4" d="M475.57,814.6l-2.62.32s2.62-.32,2.62-.32Z"/>
          <path class="cls-4" d="M822.18,454.22c8.76-6.5,24.34-14.21,24.36-30.46.02-16.25-15.54-23.99-24.28-30.52-3.2-2.39-5.36-5.92-6.1-9.84l-1.22-9.83-1.71-12.58c-.29-3.98.89-7.95,3.37-11.08,6.77-8.55,19.83-20.03,15.64-35.72-4.19-15.7-21.22-19.15-31.35-23.19-3.71-1.48-6.71-4.33-8.44-7.93l-4.71-11.62.99,2.45-4.91-11.71c-1.31-3.77-1.19-7.91.39-11.57,4.33-10.01,13.97-24.48,5.86-38.56-8.11-14.08-25.46-13-36.29-14.29-3.97-.47-7.6-2.44-10.21-5.47l-7.56-10.01,1.59,2.11-7.77-10.04c-2.24-3.31-3.2-7.33-2.62-11.28,1.59-10.79,7.16-27.26-4.32-38.76-11.47-11.5-27.96-5.97-38.75-4.41-3.95.57-7.97-.39-11.27-2.64l-9.89-7.71,2.08,1.62-10.1-7.69c-3.02-2.61-4.99-6.25-5.45-10.22-1.26-10.84-.14-28.18-14.2-36.32-14.06-8.14-28.55,1.47-38.57,5.77-3.67,1.58-7.8,1.68-11.57.36l-11.55-4.89,2.43,1.03-11.75-4.81c-3.6-1.74-6.44-4.75-7.91-8.46-4.02-10.14-7.43-27.19-23.12-31.41-15.69-4.22-27.2,8.8-35.76,15.56-3.14,2.47-7.1,3.65-11.08,3.35l-12.42-1.73,2.62.37-12.6-1.61c-3.92-.75-7.44-2.92-9.83-6.13C447.72,15.6,440.01.02,423.77,0c-16.25-.02-23.99,15.54-30.52,24.28-2.39,3.2-5.92,5.36-9.84,6.1l-9.83,1.22-12.58,1.71c-3.98.29-7.95-.89-11.08-3.37-8.55-6.77-20.03-19.83-35.72-15.64-15.7,4.19-19.15,21.22-23.19,31.35-1.48,3.71-4.33,6.71-7.93,8.44l-11.62,4.71,2.45-.99-11.71,4.91c-3.77,1.31-7.91,1.19-11.57-.39-10.01-4.33-24.48-13.97-38.56-5.86-14.08,8.11-13,25.46-14.29,36.29-.47,3.97-2.44,7.6-5.47,10.21l-10.01,7.56,2.11-1.59-10.04,7.77c-3.31,2.24-7.33,3.2-11.28,2.62-10.79-1.59-27.26-7.16-38.76,4.32s-5.97,27.95-4.41,38.75c.57,3.95-.39,7.97-2.64,11.27l-7.71,9.89,1.63-2.08-7.69,10.1c-2.61,3.02-6.25,4.99-10.22,5.45-10.84,1.26-28.18.14-36.32,14.2-8.14,14.06,1.47,28.55,5.77,38.57,1.58,3.67,1.68,7.8.36,11.57l-4.89,11.55,1.03-2.43-4.81,11.75c-1.74,3.6-4.75,6.44-8.46,7.91-10.14,4.02-27.19,7.43-31.41,23.12-4.22,15.69,8.8,27.2,15.56,35.76,2.47,3.14,3.65,7.1,3.35,11.08l-1.73,12.42.37-2.62-1.61,12.6c-.75,3.92-2.92,7.44-6.13,9.83C15.6,398.81.02,406.52,0,422.77c-.02,16.25,15.54,23.99,24.28,30.52,3.2,2.39,5.36,5.92,6.1,9.84l1.22,9.83,1.71,12.58c.29,3.98-.89,7.95-3.37,11.08-6.77,8.55-19.83,20.03-15.64,35.72,4.19,15.7,21.22,19.15,31.35,23.19,3.71,1.48,6.71,4.33,8.44,7.93l4.71,11.62-.99-2.45,4.91,11.71c1.31,3.77,1.19,7.91-.39,11.57-4.33,10.01-13.97,24.48-5.86,38.56,8.11,14.08,25.46,13,36.29,14.29,3.97.47,7.6,2.44,10.21,5.47l7.56,10.01-1.59-2.11,7.77,10.04c2.24,3.31,3.2,7.33,2.62,11.28-1.59,10.79-7.16,27.26,4.32,38.76,11.47,11.5,27.96,5.97,38.75,4.41,3.95-.57,7.97.39,11.27,2.64l9.89,7.71-2.08-1.62,10.1,7.69c3.02,2.61,4.99,6.25,5.45,10.22,1.26,10.84.14,28.18,14.2,36.32,14.06,8.14,28.55-1.47,38.57-5.77,3.67-1.58,7.8-1.68,11.57-.36l11.55,4.89-2.43-1.03,11.75,4.81c3.6,1.74,6.44,4.75,7.91,8.46,4.02,10.14,7.43,27.19,23.12,31.41,15.69,4.22,27.2-8.8,35.76-15.56,3.14-2.47,7.1-3.65,11.08-3.35l12.42,1.73-2.62-.37,12.6,1.61c3.92.75,7.44,2.92,9.83,6.13,6.5,8.76,14.21,24.34,30.46,24.36,16.25.02,23.99-15.54,30.52-24.28,2.39-3.2,5.92-5.36,9.84-6.1l9.83-1.22,12.58-1.71c3.98-.29,7.95.89,11.08,3.37,8.55,6.77,20.03,19.83,35.72,15.64,15.7-4.19,19.15-21.22,23.19-31.35,1.48-3.71,4.33-6.71,7.93-8.44l11.62-4.71-2.45.99,11.71-4.91c3.77-1.31,7.91-1.19,11.57.39,10.01,4.33,24.48,13.97,38.56,5.86,14.08-8.11,13-25.46,14.29-36.29.47-3.97,2.44-7.6,5.47-10.21l10.01-7.56-2.11,1.59,10.04-7.77c3.31-2.24,7.33-3.2,11.28-2.62,10.79,1.59,27.26,7.16,38.76-4.32,11.5-11.47,5.97-27.96,4.41-38.75-.57-3.95.39-7.97,2.64-11.27l7.71-9.89-1.62,2.08,7.69-10.1c2.61-3.02,6.25-4.99,10.22-5.45,10.84-1.26,28.18-.14,36.32-14.2,8.14-14.06-1.47-28.55-5.77-38.57-1.58-3.67-1.68-7.8-.36-11.57l4.89-11.55-1.03,2.43,4.81-11.75c1.74-3.6,4.75-6.44,8.46-7.91,10.14-4.02,27.19-7.43,31.41-23.12,4.22-15.69-8.8-27.2-15.56-35.76-2.47-3.14-3.65-7.1-3.35-11.08l1.73-12.42-.37,2.62,1.61-12.6c.75-3.92,2.92-7.44,6.13-9.83Z"/>
          <path class="cls-4" d="M370.96,31.93l2.62-.32s-2.62.32-2.62.32Z"/>
        </g>
        <path d="M199.99,715.4c-54.83-81.01-92.54-278.81,16.88-401.2,109.43-122.4,270.5-196.49,270.5-196.49,0,0,84.95-21.76,232.19,85.41l10.16-35.79-2.45-31.33s-12.24-4.9-13.71-4.9-26.44,2.94-26.44,2.94l-24.97-14.2s-13.71-30.35-12.24-32.8c1.47-2.45-8.81-17.62-8.81-17.62,0,0-19.09,14.2-39.17,10.77-20.07-3.43-40.15-12.73-39.66-15.67.49-2.94-5.87-23.4-8.81-24.92-2.94-1.52-19.09-9.43-19.09-9.43,0,0-29.38,18.19-31.33,18.68-1.96.49-31.33-5.87-35.25-7.83-3.92-1.96-18.11-16.93-19.58-18.5-1.47-1.57-5.87-5.49-5.87-5.49,0,0-9.3-6.85-14.69-1.47-5.39,5.38-12.24,10.7-16.16,16.61-3.92,5.91,9.3,12.74-13.22,14.96-22.52,2.21-37.7,0-37.7,0l-19.09-19.33-15.18-1.47s-13.29,10.42-12.94,12.24c.35,1.82-9.1,24.48-10.07,25.95-.98,1.47-9.3,8.81-9.3,8.81l-36.72,3.43s-20.07-11.75-21.54-11.26c-1.47.49-18.11,9.3-18.11,10.77s.98,12.61-3.43,24.66c-4.41,12.06-4.9,26.25-14.69,28.21-9.79,1.96-10.28,5.38-20.07,4.41-9.79-.98-7.34-6.37-17.13-2.94-9.79,3.43-10.79.27-16.76,6.73-5.96,6.46-6.74,1.11-7.23,10.41-.49,9.3.98,16.16-1.47,23.5-2.45,7.34-.49,6.36-5.87,15.67-5.39,9.3-5.76,15.18-11.2,19.58-5.45,4.41-11.67,7.83-16.15,7.83s-17.69-3.43-24.06,1.47c-6.37,4.9-11.75,4.9-8.32,15.67s14.19,20.56,14.93,25.95c.74,5.39-10.52,23.5-12.97,26.93-2.45,3.43-.98,10.77-7.34,14.2-6.36,3.43-27.42,14.69-29.86,18.6-2.45,3.92-15.18,8.32-3.92,19.58,11.26,11.26,16.65,11.75,17.62,25.46.98,13.71,1.38,33.78-1.76,36.72-3.14,2.94-29.58,18.6-30.56,24.97-.98,6.36-5.39,13.22,1.47,19.09,6.85,5.88,26.44,16.16,26.44,18.6s8.81,37.7,8.32,40.15c-.49,2.45-6.36,15.18-10.77,19.58-4.41,4.41-11.26,6.36-9.79,15.67,1.47,9.3,2.94,7.83,12.73,14.2,9.79,6.36,28.89,22.42,28.89,22.42,0,0,7.83,25.07,7.34,27.03-.49,1.96-14.69,35.25-14.69,35.25l11.26,12.24,35.74,2.94s23.83,27.91,23.42,29.86c-.41,1.96-3.35,23.5-3.35,25.46s5.39,20.56,5.39,20.56c0,0,4.9,2.94,14.2.98,9.3-1.96,21.02-2.71,23.49-3.31,2.46-.61,22.54-9.18,22.54-9.18Z"/>
        <g>
          <path class="cls-2" d="M748.1,611.11c-1.07-.25-1.89.97-1.25,1.87,14.52,20.4,23.79,24.53,28.7,18.07,6.25-8.22-7.95-15.4-27.45-19.94Z"/>
          <path class="cls-2" d="M784.77,521.8c-.95.05-1.33,1.26-.58,1.85,17.01,13.37,25.7,14.53,28.19,7.98,3.17-8.34-10.34-10.82-27.61-9.83Z"/>
          <path class="cls-2" d="M789.48,334.82c-.66.51-.33,1.58.5,1.63,18.99,1.19,25.86-2.31,24.4-8.3-1.86-7.62-12.89-2.67-24.9,6.66Z"/>
          <path class="cls-2" d="M802.1,431.34c-.78.34-.73,1.48.09,1.74,18.5,5.96,26.19,4.22,26.24-2.07.07-8.01-12.09-5.89-26.33.33Z"/>
          <path class="cls-2" d="M757.53,242.51c-.51.67.08,1.61.9,1.45,18.66-3.71,24.41-8.86,21.46-14.27-3.75-6.89-13.15.71-22.36,12.82Z"/>
          <path class="cls-2" d="M696.94,160.46c-.4.73.32,1.58,1.11,1.3,17.91-6.42,22.83-12.36,19.12-17.27-4.73-6.26-12.9,2.65-20.23,15.98Z"/>
          <path class="cls-2" d="M687.32,691.64c-1.05-.46-2.12.64-1.63,1.68,11.06,23.62,19.8,29.58,26.03,23.88,7.94-7.26-5.27-17.26-24.4-25.56Z"/>
          <path class="cls-2" d="M607.91,747.84c-.94-.66-2.2.2-1.93,1.32,6.1,25.36,13.46,32.95,20.71,28.61,9.23-5.52-1.7-17.97-18.78-29.93Z"/>
          <path class="cls-2" d="M425.94,794.09c-.38-.97-1.77-.96-2.13.02-8.19,22.26-6.45,31.71,1.22,32.09,9.76.49,7.78-14.44.91-32.11Z"/>
          <path class="cls-2" d="M335.83,781.87c-.15-1-1.47-1.27-2.01-.42-12.35,19.27-12.68,28.54-5.53,30.5,9.1,2.49,10.34-11.99,7.54-30.07Z"/>
          <path class="cls-2" d="M243.06,752.15c.06-1-1.17-1.55-1.88-.83-16.1,16.26-18.36,25.26-11.78,28.67,8.38,4.34,12.62-9.56,13.66-27.83Z"/>
          <path class="cls-2" d="M161.61,695.32c.39-.93-.59-1.85-1.5-1.41-20.56,10.05-25.66,17.8-20.57,23.18,6.48,6.86,15.07-4.87,22.07-21.78Z"/>
          <path class="cls-2" d="M519.62,784.32c-.6-.75-1.81-.35-1.85.61-1.03,21.73,3.1,29.52,9.91,27.74,8.68-2.27,2.83-14.78-8.06-28.34Z"/>
        </g>
        <path class="cls-5" d="M683.7,219.33c53.7,68.75,80.81,159.27,65.89,256.07-21.34,138.52-128.7,248.71-266.74,272.96-79.74,14.01-155.48-.56-218.68-35.16-1.15-.63-.39-2.38.85-1.97,85.45,27.6,89.07,24.18,157.41,24.26,110.16.13,292.92-66.57,293.21-312.34,0-7.03.16-15.8-.07-22.87-.04-1.29,1.81-1.55,2.12-.3,5.12,20.38,10.14,59.26,7.03,95.55-.11,1.31,1.78,1.63,2.12.36,5.48-20.34,8.44-43.36,8.47-72.72.09-80.4-39.44-172.41-53.45-202.73-.53-1.16,1.04-2.12,1.83-1.11Z"/>
        <path class="cls-1" d="M470.79,95.89c-11.98-1.74-24.18-2.84-36.54-3.27-191.9-6.53-347.1,147.74-341.69,339.68,1.33,47.22,12.57,91.96,31.71,132.21.55,1.15,2.29.55,2.02-.69-8.67-39.55-16.03-110-16.03-141.01,0-167.86,122.61-261.8,194.98-288.75,60.81-22.64,105.43-33.23,165.44-36.32,1.12-.06,1.21-1.69.1-1.85Z"/>
        <path class="cls-1" d="M139.12,290.64c-5.75,13.05-10.03,54.97-6.03,85.51.13,1.02-1.27,1.42-1.68.47-4.86-11.33-9.06-34.04-8.84-42.24l1.01-24.09,15.54-19.65Z"/>
      </g>
      <g>
        <path class="cls-3" d="M272.37,392.17h-44.52v-5.76h44.52v5.76ZM259.2,361.6c2.7.94,4.8,2.26,6.3,3.96s2.25,3.67,2.25,5.91-.75,4.19-2.25,5.85c-1.5,1.66-3.59,2.95-6.27,3.87-2.68.92-5.76,1.38-9.24,1.38s-6.5-.46-9.18-1.38c-2.68-.92-4.77-2.21-6.27-3.87-1.5-1.66-2.25-3.61-2.25-5.85s.75-4.21,2.25-5.91,3.59-3.02,6.27-3.96c2.68-.94,5.74-1.41,9.18-1.41s6.51.47,9.21,1.41ZM245.13,408.61h-7.14v-18.42h7.14v18.42ZM242.31,367.33c-1.84.96-2.76,2.34-2.76,4.14s.92,3.1,2.76,4.02c1.84.92,4.4,1.38,7.68,1.38s5.86-.46,7.74-1.38c1.88-.92,2.82-2.26,2.82-4.02s-.94-3.13-2.82-4.11c-1.88-.98-4.46-1.47-7.74-1.47s-5.84.48-7.68,1.44ZM261.99,408.61h-7.08v-18.42h7.08v18.42Z"/>
        <path class="cls-3" d="M302.97,368.53h-28.86v-5.58h28.86v5.58ZM294.78,371.38c1.82.78,3.24,1.86,4.26,3.24,1.02,1.38,1.53,2.97,1.53,4.77s-.51,3.4-1.53,4.8c-1.02,1.4-2.44,2.49-4.26,3.27-1.82.78-3.89,1.17-6.21,1.17s-4.4-.39-6.24-1.17c-1.84-.78-3.27-1.87-4.29-3.27-1.02-1.4-1.53-3-1.53-4.8s.52-3.39,1.56-4.77c1.04-1.38,2.47-2.46,4.29-3.24,1.82-.78,3.89-1.17,6.21-1.17s4.39.39,6.21,1.17ZM312.75,408.61h-7.02v-10.86h-25.74v-5.76h32.76v16.62ZM284.76,376.54c-.94.66-1.41,1.61-1.41,2.85s.47,2.18,1.41,2.82c.94.64,2.21.96,3.81.96s2.87-.32,3.81-.96c.94-.64,1.41-1.58,1.41-2.82s-.47-2.19-1.41-2.85c-.94-.66-2.21-.99-3.81-.99s-2.87.33-3.81.99ZM292.17,366.13h-7.14v-7.8h7.14v7.8ZM312.75,389.95h-7.02v-31.44h7.02v31.44ZM319.23,377.35h-8.46v-5.88h8.46v5.88Z"/>
        <path class="cls-3" d="M352.26,361.99c1.98,1,3.53,2.37,4.65,4.11,1.12,1.74,1.68,3.71,1.68,5.91s-.56,4.23-1.68,5.97c-1.12,1.74-2.67,3.1-4.65,4.08-1.98.98-4.21,1.47-6.69,1.47s-4.71-.49-6.69-1.47c-1.98-.98-3.54-2.34-4.68-4.08-1.14-1.74-1.71-3.73-1.71-5.97s.57-4.17,1.71-5.91c1.14-1.74,2.7-3.11,4.68-4.11,1.98-1,4.21-1.5,6.69-1.5s4.71.5,6.69,1.5ZM354.27,399.49h-10.08v6.3h-6.78v-11.22h9.96v-2.76h-9.96v-5.34h16.86v13.02ZM350.34,402.52c2.26-.14,4.49-.43,6.69-.87l.72,5.28c-2.36.48-4.72.79-7.08.93-2.36.14-5.68.21-9.96.21h-3.3v-5.34h3.3c4.16,0,7.37-.07,9.63-.21ZM341.04,367.87c-1.14,1-1.71,2.38-1.71,4.14s.58,3.15,1.74,4.17c1.16,1.02,2.66,1.53,4.5,1.53s3.34-.51,4.5-1.53c1.16-1.02,1.74-2.41,1.74-4.17s-.58-3.14-1.74-4.14c-1.16-1-2.66-1.5-4.5-1.5s-3.39.5-4.53,1.5ZM372.39,408.43h-6.9v-16.26h-9.36v-5.7h16.26v21.96ZM372.39,384.43h-6.96v-25.92h6.96v25.92Z"/>
        <path class="cls-3" d="M397.95,364.18c1.92,1.46,3.42,3.55,4.5,6.27,1.08,2.72,1.62,5.88,1.62,9.48s-.54,6.75-1.62,9.45c-1.08,2.7-2.58,4.78-4.5,6.24-1.92,1.46-4.12,2.19-6.6,2.19s-4.61-.73-6.51-2.19c-1.9-1.46-3.39-3.54-4.47-6.24-1.08-2.7-1.62-5.85-1.62-9.45s.54-6.75,1.62-9.45,2.57-4.79,4.47-6.27c1.9-1.48,4.07-2.22,6.51-2.22s4.68.73,6.6,2.19ZM387.06,371.5c-1.06,1.98-1.59,4.79-1.59,8.43s.53,6.38,1.59,8.34c1.06,1.96,2.49,2.94,4.29,2.94s3.31-.98,4.41-2.94c1.1-1.96,1.65-4.74,1.65-8.34s-.55-6.45-1.65-8.43c-1.1-1.98-2.57-2.97-4.41-2.97s-3.23.99-4.29,2.97ZM415.05,382.27h-13.08v-5.7h13.08v5.7ZM419.07,408.67h-7.02v-50.16h7.02v50.16Z"/>
        <path class="cls-3" d="M468.51,391.81h-44.34v-5.7h44.34v5.7ZM446.12,373.72c-1.52,2.46-3.75,4.52-6.69,6.18-2.94,1.66-6.45,2.77-10.53,3.33l-2.58-5.58c3.44-.44,6.36-1.28,8.76-2.52,2.4-1.24,4.2-2.7,5.4-4.38,1.2-1.68,1.8-3.4,1.8-5.16v-1.38h6.12v1.38c0,2.96-.76,5.67-2.28,8.13ZM464.54,366.73h-36.36v-5.52h36.36v5.52ZM449.73,408.55h-7.02v-18.24h7.02v18.24ZM452.25,370.75c1.2,1.68,3,3.14,5.4,4.38,2.4,1.24,5.32,2.08,8.76,2.52l-2.52,5.58c-4.08-.56-7.59-1.67-10.53-3.33-2.94-1.66-5.17-3.72-6.69-6.18s-2.28-5.17-2.28-8.13v-1.38h6.06v1.38c0,1.76.6,3.48,1.8,5.16Z"/>
        <path class="cls-3" d="M514.82,388.63h-44.52v-5.58h44.52v5.58ZM482.48,403.27h-7.14v-10.62h7.14v10.62ZM510.08,407.53h-34.74v-5.76h34.74v5.76ZM482.84,374.89h-7.02v-14.58h7.02v14.58ZM509.9,377.71h-34.08v-5.64h34.08v5.64Z"/>
        <path class="cls-3" d="M537.08,381.43h-7.08v-20.46h7.08v20.46ZM555.8,376.27l.78,5.82c-6.84,1.4-14.28,2.1-22.32,2.1h-4.26v-5.88h4.26c7.36,0,14.54-.68,21.54-2.04ZM566.66,408.01h-31.92v-18.96h31.92v18.96ZM541.64,402.37h18.18v-7.8h-18.18v7.8ZM566.66,386.77h-7.02v-28.2h7.02v28.2ZM573.2,374.95h-8.46v-5.82h8.46v5.82Z"/>
        <path class="cls-3" d="M589.22,383.26c-1.04,3.62-2.59,6.84-4.65,9.66-2.06,2.82-4.53,4.91-7.41,6.27l-3.96-5.7c2.6-1.24,4.8-3.01,6.6-5.31,1.8-2.3,3.15-4.86,4.05-7.68.9-2.82,1.35-5.63,1.35-8.43v-5.58h5.58v5.58c0,3.84-.52,7.57-1.56,11.19ZM602,369.19h-26.94v-5.82h26.94v5.82ZM593.66,379.96c.88,2.62,2.2,5.02,3.96,7.2,1.76,2.18,3.94,3.89,6.54,5.13l-3.84,5.7c-2.88-1.4-5.34-3.45-7.38-6.15-2.04-2.7-3.58-5.76-4.62-9.18s-1.56-6.95-1.56-10.59v-5.58h5.58v5.58c0,2.64.44,5.27,1.32,7.89ZM612.68,408.61h-7.08v-50.1h7.08v50.1ZM619.7,383.53h-8.64v-5.94h8.64v5.94Z"/>
      </g>
      <g>
        <path class="cls-3" d="M305.25,666.79l6.99-7.68c1.18-1.3,2-2.36,2.44-3.18.45-.82.68-1.62.68-2.4,0-1.06-.3-1.92-.9-2.58s-1.43-.99-2.49-.99c-1.26,0-2.22.38-2.88,1.12-.66.75-.99,1.75-.99,2.99h-3.27c0-1.26.29-2.4.85-3.42.57-1.02,1.4-1.83,2.48-2.43,1.08-.6,2.36-.9,3.84-.9,2.08,0,3.71.53,4.88,1.58s1.75,2.47,1.75,4.27c0,1.22-.37,2.46-1.11,3.72-.74,1.26-1.79,2.61-3.15,4.05l-5.07,5.52h10.23v2.61h-14.28v-2.28Z"/>
        <path class="cls-3" d="M334.05,667.15c-1.2,1.48-2.9,2.22-5.1,2.22s-3.92-.75-5.15-2.23c-1.23-1.49-1.84-3.87-1.84-7.12v-3.42c0-3.28.6-5.64,1.81-7.09,1.21-1.45,2.93-2.17,5.15-2.17s3.93.73,5.13,2.17c1.2,1.45,1.8,3.82,1.8,7.09v3.42c0,3.28-.6,5.66-1.8,7.14ZM331.66,651.39c-.61-.95-1.53-1.43-2.75-1.43s-2.17.48-2.77,1.43c-.61.95-.92,2.51-.92,4.69v4.41c0,2.18.32,3.77.95,4.77s1.55,1.5,2.78,1.5,2.13-.5,2.73-1.5.9-2.59.9-4.77v-4.41c0-2.18-.3-3.74-.91-4.69Z"/>
        <path class="cls-3" d="M344.94,651.67l-4.02,2.13v-3l5.61-3.27h1.68v21.54h-3.27v-17.4Z"/>
        <path class="cls-3" d="M361.5,661.9c-1.34,0-2.46-.33-3.38-.99s-1.59-1.53-2.04-2.62c-.45-1.09-.68-2.27-.68-3.55,0-1.38.27-2.62.81-3.74.54-1.11,1.32-1.98,2.35-2.62,1.03-.64,2.25-.96,3.67-.96s2.75.39,3.83,1.16c1.07.77,1.88,1.79,2.45,3.08.56,1.28.84,2.66.84,4.14v4.23c0,1.84-.28,3.47-.84,4.89-.56,1.42-1.39,2.54-2.48,3.34-1.09.81-2.4,1.21-3.95,1.21-1.1,0-2.11-.23-3.03-.69s-1.67-1.08-2.23-1.86c-.57-.78-.89-1.62-.95-2.52h3.15c.16.62.5,1.18,1.02,1.69.52.51,1.25.77,2.19.77,1.34,0,2.3-.58,2.9-1.73.59-1.15.88-2.85.88-5.11-1.14,1.26-2.65,1.89-4.53,1.89ZM365.58,652.56c-.34-.83-.8-1.46-1.38-1.88s-1.22-.63-1.92-.63c-1.14,0-2.03.42-2.67,1.27-.64.85-.96,1.96-.96,3.34,0,1.3.31,2.39.95,3.27.63.88,1.52,1.32,2.68,1.32.86,0,1.64-.25,2.34-.75s1.19-1.13,1.47-1.89v-1.11c0-1.14-.17-2.12-.51-2.96Z"/>
        <path class="cls-3" d="M373.17,666.07c.34-.36.81-.54,1.41-.54s1.07.18,1.42.54c.35.36.52.81.52,1.35s-.17.95-.51,1.29c-.34.34-.82.51-1.44.51s-1.07-.17-1.41-.51c-.34-.34-.51-.77-.51-1.29s.17-.99.51-1.35Z"/>
        <path class="cls-3" d="M391.89,667.15c-1.2,1.48-2.9,2.22-5.1,2.22s-3.92-.75-5.15-2.23c-1.23-1.49-1.84-3.87-1.84-7.12v-3.42c0-3.28.6-5.64,1.81-7.09,1.21-1.45,2.92-2.17,5.14-2.17s3.93.73,5.13,2.17c1.2,1.45,1.8,3.82,1.8,7.09v3.42c0,3.28-.6,5.66-1.8,7.14ZM389.5,651.39c-.61-.95-1.53-1.43-2.75-1.43s-2.16.48-2.77,1.43-.92,2.51-.92,4.69v4.41c0,2.18.31,3.77.95,4.77.63,1,1.55,1.5,2.77,1.5s2.13-.5,2.73-1.5c.6-1,.9-2.59.9-4.77v-4.41c0-2.18-.3-3.74-.91-4.69Z"/>
        <path class="cls-3" d="M402.77,651.67l-4.02,2.13v-3l5.61-3.27h1.68v21.54h-3.27v-17.4Z"/>
        <path class="cls-3" d="M419.49,657.1h7.59v2.61h-7.59v-2.61Z"/>
        <path class="cls-3" d="M436.1,666.79l6.99-7.68c1.18-1.3,1.99-2.36,2.44-3.18s.67-1.62.67-2.4c0-1.06-.3-1.92-.9-2.58-.6-.66-1.43-.99-2.49-.99-1.26,0-2.22.38-2.88,1.12s-.99,1.75-.99,2.99h-3.27c0-1.26.29-2.4.85-3.42.57-1.02,1.4-1.83,2.48-2.43,1.08-.6,2.36-.9,3.84-.9,2.08,0,3.71.53,4.88,1.58s1.75,2.47,1.75,4.27c0,1.22-.37,2.46-1.11,3.72-.74,1.26-1.79,2.61-3.15,4.05l-5.07,5.52h10.23v2.61h-14.28v-2.28Z"/>
        <path class="cls-3" d="M464.9,667.15c-1.2,1.48-2.9,2.22-5.1,2.22s-3.92-.75-5.14-2.23c-1.23-1.49-1.85-3.87-1.85-7.12v-3.42c0-3.28.61-5.64,1.82-7.09,1.21-1.45,2.92-2.17,5.15-2.17s3.93.73,5.13,2.17c1.2,1.45,1.8,3.82,1.8,7.09v3.42c0,3.28-.6,5.66-1.8,7.14ZM462.52,651.39c-.61-.95-1.53-1.43-2.74-1.43s-2.17.48-2.78,1.43c-.61.95-.92,2.51-.92,4.69v4.41c0,2.18.32,3.77.94,4.77.63,1,1.55,1.5,2.78,1.5s2.13-.5,2.73-1.5c.6-1,.9-2.59.9-4.77v-4.41c0-2.18-.31-3.74-.92-4.69Z"/>
        <path class="cls-3" d="M469.58,666.79l6.99-7.68c1.18-1.3,2-2.36,2.45-3.18s.67-1.62.67-2.4c0-1.06-.3-1.92-.9-2.58-.6-.66-1.43-.99-2.49-.99-1.26,0-2.22.38-2.88,1.12-.66.75-.99,1.75-.99,2.99h-3.27c0-1.26.29-2.4.86-3.42.57-1.02,1.39-1.83,2.47-2.43,1.08-.6,2.36-.9,3.84-.9,2.08,0,3.71.53,4.88,1.58s1.76,2.47,1.76,4.27c0,1.22-.37,2.46-1.11,3.72-.74,1.26-1.79,2.61-3.15,4.05l-5.07,5.52h10.23v2.61h-14.28v-2.28Z"/>
        <path class="cls-3" d="M498.38,667.15c-1.2,1.48-2.9,2.22-5.1,2.22s-3.92-.75-5.15-2.23c-1.23-1.49-1.84-3.87-1.84-7.12v-3.42c0-3.28.6-5.64,1.81-7.09,1.21-1.45,2.92-2.17,5.14-2.17s3.93.73,5.13,2.17c1.2,1.45,1.8,3.82,1.8,7.09v3.42c0,3.28-.6,5.66-1.8,7.14ZM496,651.39c-.61-.95-1.53-1.43-2.75-1.43s-2.16.48-2.77,1.43-.92,2.51-.92,4.69v4.41c0,2.18.31,3.77.95,4.77.63,1,1.55,1.5,2.77,1.5s2.13-.5,2.73-1.5c.6-1,.9-2.59.9-4.77v-4.41c0-2.18-.3-3.74-.91-4.69Z"/>
        <path class="cls-3" d="M504.02,666.07c.34-.36.81-.54,1.41-.54s1.08.18,1.43.54c.35.36.52.81.52,1.35s-.17.95-.51,1.29-.82.51-1.44.51-1.07-.17-1.41-.51c-.34-.34-.51-.77-.51-1.29s.17-.99.51-1.35Z"/>
        <path class="cls-3" d="M522.74,667.15c-1.2,1.48-2.9,2.22-5.1,2.22s-3.92-.75-5.15-2.23c-1.23-1.49-1.84-3.87-1.84-7.12v-3.42c0-3.28.6-5.64,1.81-7.09,1.21-1.45,2.93-2.17,5.15-2.17s3.93.73,5.13,2.17c1.2,1.45,1.8,3.82,1.8,7.09v3.42c0,3.28-.6,5.66-1.8,7.14ZM520.36,651.39c-.61-.95-1.53-1.43-2.75-1.43s-2.17.48-2.77,1.43c-.61.95-.92,2.51-.92,4.69v4.41c0,2.18.32,3.77.95,4.77s1.55,1.5,2.78,1.5,2.13-.5,2.73-1.5.9-2.59.9-4.77v-4.41c0-2.18-.3-3.74-.91-4.69Z"/>
        <path class="cls-3" d="M533.45,661.9c-1.34,0-2.47-.33-3.38-.99-.91-.66-1.59-1.53-2.04-2.62-.45-1.09-.68-2.27-.68-3.55,0-1.38.27-2.62.81-3.74.54-1.11,1.32-1.98,2.36-2.62,1.03-.64,2.25-.96,3.67-.96s2.75.39,3.83,1.16c1.07.77,1.88,1.79,2.45,3.08.56,1.28.84,2.66.84,4.14v4.23c0,1.84-.28,3.47-.84,4.89-.56,1.42-1.39,2.54-2.48,3.34-1.09.81-2.41,1.21-3.95,1.21-1.1,0-2.11-.23-3.03-.69s-1.66-1.08-2.23-1.86-.88-1.62-.95-2.52h3.15c.16.62.5,1.18,1.02,1.69.52.51,1.25.77,2.19.77,1.34,0,2.3-.58,2.9-1.73.59-1.15.88-2.85.88-5.11-1.14,1.26-2.65,1.89-4.53,1.89ZM537.53,652.56c-.34-.83-.8-1.46-1.38-1.88s-1.22-.63-1.92-.63c-1.14,0-2.03.42-2.67,1.27-.64.85-.96,1.96-.96,3.34,0,1.3.32,2.39.95,3.27s1.53,1.32,2.69,1.32c.86,0,1.64-.25,2.34-.75.7-.5,1.19-1.13,1.47-1.89v-1.11c0-1.14-.17-2.12-.51-2.96Z"/>
      </g>
      <g>
        <path class="cls-3" d="M268.81,457.45c-1.64,2.52-3.97,4.28-6.99,5.29l-2.27-3.44c2.66-.84,4.7-2.22,6.11-4.14,1.41-1.92,2.12-4.08,2.12-6.49v-2.73h3.49v2.73c0,3.33-.82,6.26-2.46,8.78ZM288.03,473.11h-17.93v4.66h-4.24v-7.9h17.89v-2.39h-17.93v-3.4h22.22v9.03ZM289.04,479.16h-23.18v-3.49h23.18v3.49ZM274.13,454.69c1.37,1.81,3.32,3.12,5.84,3.93l-2.27,3.4c-2.91-.98-5.17-2.67-6.76-5.06-1.6-2.39-2.39-5.16-2.39-8.29v-2.73h3.53v2.73c0,2.21.69,4.22,2.06,6.03ZM285.63,453.79h-8.53v-3.49h8.53v3.49ZM288.03,462.57h-4.33v-17.77h4.33v17.77Z"/>
        <path class="cls-3" d="M309.11,456.48h-11.26v5.75h-4.28v-9.11h11.3v-3.19h-11.3v-3.49h15.54v10.04ZM305.42,459.71c2.27-.11,4.58-.38,6.93-.8l.5,3.53c-2.49.42-4.95.7-7.37.84-2.42.14-5.41.21-8.97.21h-2.94v-3.61h2.94c3.67,0,6.64-.06,8.9-.17ZM301.8,468.95h13.82v-3.28h4.28v13.48h-22.34v-13.48h4.24v3.28ZM315.62,475.63v-3.28h-13.82v3.28h13.82ZM319.91,464.12h-4.33v-19.28h4.33v19.28Z"/>
        <path class="cls-3" d="M334,462.13c-.77,2.48-1.88,4.68-3.32,6.59-1.44,1.92-3.12,3.35-5.02,4.3l-2.44-3.53c1.74-.84,3.25-2.07,4.54-3.68,1.29-1.61,2.27-3.4,2.96-5.38.69-1.97,1.03-3.93,1.03-5.86v-4.45h3.4v4.45c0,2.55-.38,5.06-1.15,7.54ZM343.01,451.82h-18.56v-3.57h18.56v3.57ZM337.02,460.09c.66,1.85,1.62,3.53,2.9,5.04,1.27,1.51,2.76,2.69,4.47,3.53l-2.35,3.49c-1.93-.95-3.61-2.34-5.02-4.18s-2.5-3.91-3.25-6.24-1.13-4.7-1.13-7.14v-4.45h3.4v4.45c0,1.82.33,3.65.99,5.5ZM350.31,479.58h-4.28v-34.78h4.28v34.78ZM355.4,461.98h-6.05v-3.7h6.05v3.7Z"/>
        <path class="cls-3" d="M379.12,447.2l-11.55,30.03h-4.49l11.55-30.03h4.49Z"/>
        <path class="cls-3" d="M403.99,453.79h-16.21v-3.57h16.21v3.57ZM399.54,456.63c1.09.69,1.95,1.65,2.56,2.9.62,1.25.92,2.65.92,4.22s-.31,3.02-.92,4.26c-.62,1.25-1.47,2.22-2.56,2.92s-2.34,1.05-3.74,1.05-2.6-.35-3.7-1.05-1.95-1.67-2.56-2.92c-.62-1.25-.92-2.67-.92-4.26s.31-2.97.92-4.2c.62-1.23,1.47-2.2,2.56-2.9,1.09-.7,2.32-1.05,3.7-1.05s2.65.34,3.74,1.03ZM393.32,460.51c-.64.81-.97,1.89-.97,3.23s.32,2.46.97,3.28c.64.81,1.47,1.22,2.48,1.22s1.88-.41,2.54-1.22c.66-.81.99-1.9.99-3.28s-.33-2.42-.99-3.23c-.66-.81-1.5-1.22-2.54-1.22s-1.83.41-2.48,1.22ZM398.07,452.45h-4.28v-6.76h4.28v6.76ZM408.94,461.44h-5.8v-3.65h5.8v3.65ZM410.25,477.98h-4.03v-32.51h4.03v32.51ZM416.92,479.58h-4.12v-34.78h4.12v34.78Z"/>
        <path class="cls-3" d="M450.65,475.17h-30.79v-3.61h30.79v3.61ZM447,451.36h-19.15v11.17h-4.24v-14.74h23.39v3.57ZM447.29,464.59h-23.69v-3.57h23.69v3.57Z"/>
        <path class="cls-3" d="M478.16,451.52h-11.89v17.43h-4.37v-21h16.25v3.57ZM473.88,467.36c2.27-.14,4.54-.42,6.8-.84l.38,3.61c-2.24.45-4.54.75-6.89.9-2.35.15-5.46.23-9.32.23h-2.94v-3.7h2.94c3.75,0,6.76-.07,9.03-.21ZM487.95,479.62h-4.33v-34.82h4.33v34.82Z"/>
        <path class="cls-3" d="M502.04,462.13c-.77,2.48-1.88,4.68-3.32,6.59-1.44,1.92-3.12,3.35-5.02,4.3l-2.44-3.53c1.74-.84,3.25-2.07,4.54-3.68,1.29-1.61,2.27-3.4,2.96-5.38.69-1.97,1.03-3.93,1.03-5.86v-4.45h3.4v4.45c0,2.55-.38,5.06-1.15,7.54ZM511.04,451.82h-18.56v-3.57h18.56v3.57ZM505.06,460.09c.66,1.85,1.62,3.53,2.9,5.04,1.27,1.51,2.76,2.69,4.47,3.53l-2.35,3.49c-1.93-.95-3.61-2.34-5.02-4.18s-2.5-3.91-3.25-6.24-1.13-4.7-1.13-7.14v-4.45h3.4v4.45c0,1.82.33,3.65.99,5.5ZM518.35,479.58h-4.28v-34.78h4.28v34.78ZM523.43,461.98h-6.05v-3.7h6.05v3.7Z"/>
        <path class="cls-3" d="M538.37,448.84c1.33,1.01,2.37,2.44,3.13,4.3s1.13,4.03,1.13,6.49-.38,4.63-1.13,6.49c-.76,1.86-1.8,3.3-3.13,4.31-1.33,1.01-2.83,1.51-4.51,1.51s-3.23-.5-4.58-1.51-2.39-2.44-3.15-4.31c-.76-1.86-1.13-4.02-1.13-6.49s.38-4.63,1.13-6.49,1.81-3.3,3.15-4.3c1.34-1.01,2.87-1.51,4.58-1.51s3.18.5,4.51,1.51ZM530.41,453.48c-.84,1.47-1.26,3.52-1.26,6.15s.42,4.64,1.26,6.11c.84,1.47,1.99,2.21,3.44,2.21s2.52-.73,3.36-2.21c.84-1.47,1.26-3.51,1.26-6.11s-.42-4.65-1.26-6.13c-.84-1.48-1.96-2.23-3.36-2.23s-2.6.74-3.44,2.21ZM551.99,479.62h-4.33v-34.82h4.33v34.82Z"/>
        <path class="cls-3" d="M562.07,470.17h-4.33v-21.59h4.33v21.59ZM575.72,466.35l.42,3.61c-2.49.53-4.99.9-7.5,1.09-2.51.2-5.2.29-8.08.29h-2.81v-3.65h2.81c5.63,0,10.68-.45,15.16-1.34ZM581.27,459.34h-10.79v-3.57h10.79v3.57ZM584.29,479.62h-4.29v-34.82h4.29v34.82Z"/>
      </g>
    </g>
  </g>
</svg>