<?xml version="1.0" encoding="UTF-8"?>
<svg id="Layer_2" data-name="Layer 2" xmlns="http://www.w3.org/2000/svg" viewBox="0 0 846.53 846.53">
  <defs>
    <style>
      .cls-1 {
        fill: #1e1e1e;
      }

      .cls-2 {
        fill: #4d4d4d;
      }

      .cls-3 {
        fill: #ededed;
      }

      .cls-4 {
        fill: #1a1a1a;
      }

      .cls-5 {
        fill: #302f2f;
      }
    </style>
  </defs>
  <g id="Layer_1-2" data-name="Layer 1">
    <g>
      <g>
        <g>
          <path class="cls-4" d="M475.57,814.6l-2.62.32s2.62-.32,2.62-.32Z"/>
          <path class="cls-4" d="M822.18,454.22c8.76-6.5,24.34-14.21,24.36-30.46.02-16.25-15.54-23.99-24.28-30.52-3.2-2.39-5.36-5.92-6.1-9.84l-1.22-9.83-1.71-12.58c-.29-3.98.89-7.95,3.37-11.08,6.77-8.55,19.83-20.03,15.64-35.72-4.19-15.7-21.22-19.15-31.35-23.19-3.71-1.48-6.71-4.33-8.44-7.93l-4.71-11.62.99,2.45-4.91-11.71c-1.31-3.77-1.19-7.91.39-11.57,4.33-10.01,13.97-24.48,5.86-38.56-8.11-14.08-25.46-13-36.29-14.29-3.97-.47-7.6-2.44-10.21-5.47l-7.56-10.01,1.59,2.11-7.77-10.04c-2.24-3.31-3.2-7.33-2.62-11.28,1.59-10.79,7.16-27.26-4.32-38.76-11.47-11.5-27.96-5.97-38.75-4.41-3.95.57-7.97-.39-11.27-2.64l-9.89-7.71,2.08,1.62-10.1-7.69c-3.02-2.61-4.99-6.25-5.45-10.22-1.26-10.84-.14-28.18-14.2-36.32-14.06-8.14-28.55,1.47-38.57,5.77-3.67,1.58-7.8,1.68-11.57.36l-11.55-4.89,2.43,1.03-11.75-4.81c-3.6-1.74-6.44-4.75-7.91-8.46-4.02-10.14-7.43-27.19-23.12-31.41-15.69-4.22-27.2,8.8-35.76,15.56-3.14,2.47-7.1,3.65-11.08,3.35l-12.42-1.73,2.62.37-12.6-1.61c-3.92-.75-7.44-2.92-9.83-6.13C447.72,15.6,440.01.02,423.77,0c-16.25-.02-23.99,15.54-30.52,24.28-2.39,3.2-5.92,5.36-9.84,6.1l-9.83,1.22-12.58,1.71c-3.98.29-7.95-.89-11.08-3.37-8.55-6.77-20.03-19.83-35.72-15.64-15.7,4.19-19.15,21.22-23.19,31.35-1.48,3.71-4.33,6.71-7.93,8.44l-11.62,4.71,2.45-.99-11.71,4.91c-3.77,1.31-7.91,1.19-11.57-.39-10.01-4.33-24.48-13.97-38.56-5.86-14.08,8.11-13,25.46-14.29,36.29-.47,3.97-2.44,7.6-5.47,10.21l-10.01,7.56,2.11-1.59-10.04,7.77c-3.31,2.24-7.33,3.2-11.28,2.62-10.79-1.59-27.26-7.16-38.76,4.32-11.5,11.47-5.97,27.95-4.41,38.75.57,3.95-.39,7.97-2.64,11.27l-7.71,9.89,1.63-2.08-7.69,10.1c-2.61,3.02-6.25,4.99-10.22,5.45-10.84,1.26-28.18.14-36.32,14.2-8.14,14.06,1.47,28.55,5.77,38.57,1.58,3.67,1.68,7.8.36,11.57l-4.89,11.55,1.03-2.43-4.81,11.75c-1.74,3.6-4.75,6.44-8.46,7.91-10.14,4.02-27.19,7.43-31.41,23.12-4.22,15.69,8.8,27.2,15.56,35.76,2.47,3.14,3.65,7.1,3.35,11.08l-1.73,12.42.37-2.62-1.61,12.6c-.75,3.92-2.92,7.44-6.13,9.83C15.6,398.81.02,406.52,0,422.77c-.02,16.25,15.54,23.99,24.28,30.52,3.2,2.39,5.36,5.92,6.1,9.84l1.22,9.83,1.71,12.58c.29,3.98-.89,7.95-3.37,11.08-6.77,8.55-19.83,20.03-15.64,35.72,4.19,15.7,21.22,19.15,31.35,23.19,3.71,1.48,6.71,4.33,8.44,7.93l4.71,11.62-.99-2.45,4.91,11.71c1.31,3.77,1.19,7.91-.39,11.57-4.33,10.01-13.97,24.48-5.86,38.56,8.11,14.08,25.46,13,36.29,14.29,3.97.47,7.6,2.44,10.21,5.47l7.56,10.01-1.59-2.11,7.77,10.04c2.24,3.31,3.2,7.33,2.62,11.28-1.59,10.79-7.16,27.26,4.32,38.76,11.47,11.5,27.96,5.97,38.75,4.41,3.95-.57,7.97.39,11.27,2.64l9.89,7.71-2.08-1.62,10.1,7.69c3.02,2.61,4.99,6.25,5.45,10.22,1.26,10.84.14,28.18,14.2,36.32,14.06,8.14,28.55-1.47,38.57-5.77,3.67-1.58,7.8-1.68,11.57-.36l11.55,4.89-2.43-1.03,11.75,4.81c3.6,1.74,6.44,4.75,7.91,8.46,4.02,10.14,7.43,27.19,23.12,31.41,15.69,4.22,27.2-8.8,35.76-15.56,3.14-2.47,7.1-3.65,11.08-3.35l12.42,1.73-2.62-.37,12.6,1.61c3.92.75,7.44,2.92,9.83,6.13,6.5,8.76,14.21,24.34,30.46,24.36,16.25.02,23.99-15.54,30.52-24.28,2.39-3.2,5.92-5.36,9.84-6.1l9.83-1.22,12.58-1.71c3.98-.29,7.95.89,11.08,3.37,8.55,6.77,20.03,19.83,35.72,15.64,15.7-4.19,19.15-21.22,23.19-31.35,1.48-3.71,4.33-6.71,7.93-8.44l11.62-4.71-2.45.99,11.71-4.91c3.77-1.31,7.91-1.19,11.57.39,10.01,4.33,24.48,13.97,38.56,5.86,14.08-8.11,13-25.46,14.29-36.29.47-3.97,2.44-7.6,5.47-10.21l10.01-7.56-2.11,1.59,10.04-7.77c3.31-2.24,7.33-3.2,11.28-2.62,10.79,1.59,27.26,7.16,38.76-4.32,11.5-11.47,5.97-27.96,4.41-38.75-.57-3.95.39-7.97,2.64-11.27l7.71-9.89-1.62,2.08,7.69-10.1c2.61-3.02,6.25-4.99,10.22-5.45,10.84-1.26,28.18-.14,36.32-14.2,8.14-14.06-1.47-28.55-5.77-38.57-1.58-3.67-1.68-7.8-.36-11.57l4.89-11.55-1.03,2.43,4.81-11.75c1.74-3.6,4.75-6.44,8.46-7.91,10.14-4.02,27.19-7.43,31.41-23.12,4.22-15.69-8.8-27.2-15.56-35.76-2.47-3.14-3.65-7.1-3.35-11.08l1.73-12.42-.37,2.62,1.61-12.6c.75-3.92,2.92-7.44,6.13-9.83Z"/>
          <path class="cls-4" d="M370.96,31.93l2.62-.32s-2.62.32-2.62.32Z"/>
        </g>
        <path d="M199.99,715.4c-54.83-81.01-92.54-278.81,16.88-401.2,109.43-122.4,270.5-196.49,270.5-196.49,0,0,84.95-21.76,232.19,85.41l10.16-35.79-2.45-31.33s-12.24-4.9-13.71-4.9-26.44,2.94-26.44,2.94l-24.97-14.2s-13.71-30.35-12.24-32.8c1.47-2.45-8.81-17.62-8.81-17.62,0,0-19.09,14.2-39.17,10.77-20.07-3.43-40.15-12.73-39.66-15.67.49-2.94-5.87-23.4-8.81-24.92-2.94-1.52-19.09-9.43-19.09-9.43,0,0-29.38,18.19-31.33,18.68-1.96.49-31.33-5.87-35.25-7.83-3.92-1.96-18.11-16.93-19.58-18.5-1.47-1.57-5.87-5.49-5.87-5.49,0,0-9.3-6.85-14.69-1.47-5.39,5.38-12.24,10.7-16.16,16.61-3.92,5.91,9.3,12.74-13.22,14.96-22.52,2.21-37.7,0-37.7,0l-19.09-19.33-15.18-1.47s-13.29,10.42-12.94,12.24c.35,1.82-9.1,24.48-10.07,25.95-.98,1.47-9.3,8.81-9.3,8.81l-36.72,3.43s-20.07-11.75-21.54-11.26c-1.47.49-18.11,9.3-18.11,10.77s.98,12.61-3.43,24.66c-4.41,12.06-4.9,26.25-14.69,28.21-9.79,1.96-10.28,5.38-20.07,4.41-9.79-.98-7.34-6.37-17.13-2.94-9.79,3.43-10.79.27-16.76,6.73-5.96,6.46-6.74,1.11-7.23,10.41-.49,9.3.98,16.16-1.47,23.5-2.45,7.34-.49,6.36-5.87,15.67-5.39,9.3-5.76,15.18-11.2,19.58-5.45,4.41-11.67,7.83-16.15,7.83s-17.69-3.43-24.06,1.47c-6.37,4.9-11.75,4.9-8.32,15.67,3.43,10.77,14.19,20.56,14.93,25.95.74,5.39-10.52,23.5-12.97,26.93-2.45,3.43-.98,10.77-7.34,14.2-6.36,3.43-27.42,14.69-29.86,18.6-2.45,3.92-15.18,8.32-3.92,19.58,11.26,11.26,16.65,11.75,17.62,25.46.98,13.71,1.38,33.78-1.76,36.72-3.14,2.94-29.58,18.6-30.56,24.97-.98,6.36-5.39,13.22,1.47,19.09,6.85,5.88,26.44,16.16,26.44,18.6s8.81,37.7,8.32,40.15c-.49,2.45-6.36,15.18-10.77,19.58-4.41,4.41-11.26,6.36-9.79,15.67,1.47,9.3,2.94,7.83,12.73,14.2,9.79,6.36,28.89,22.42,28.89,22.42,0,0,7.83,25.07,7.34,27.03-.49,1.96-14.69,35.25-14.69,35.25l11.26,12.24,35.74,2.94s23.83,27.91,23.42,29.86c-.41,1.96-3.35,23.5-3.35,25.46s5.39,20.56,5.39,20.56c0,0,4.9,2.94,14.2.98,9.3-1.96,21.02-2.71,23.49-3.31,2.46-.61,22.54-9.18,22.54-9.18Z"/>
        <g>
          <path class="cls-2" d="M748.1,611.11c-1.07-.25-1.89.97-1.25,1.87,14.52,20.4,23.79,24.53,28.7,18.07,6.25-8.22-7.95-15.4-27.45-19.94Z"/>
          <path class="cls-2" d="M784.77,521.8c-.95.05-1.33,1.26-.58,1.85,17.01,13.37,25.7,14.53,28.19,7.98,3.17-8.34-10.34-10.82-27.61-9.83Z"/>
          <path class="cls-2" d="M789.48,334.82c-.66.51-.33,1.58.5,1.63,18.99,1.19,25.86-2.31,24.4-8.3-1.86-7.62-12.89-2.67-24.9,6.66Z"/>
          <path class="cls-2" d="M802.1,431.34c-.78.34-.73,1.48.09,1.74,18.5,5.96,26.19,4.22,26.24-2.07.07-8.01-12.09-5.89-26.33.33Z"/>
          <path class="cls-2" d="M757.53,242.51c-.51.67.08,1.61.9,1.45,18.66-3.71,24.41-8.86,21.46-14.27-3.75-6.89-13.15.71-22.36,12.82Z"/>
          <path class="cls-2" d="M696.94,160.46c-.4.73.32,1.58,1.11,1.3,17.91-6.42,22.83-12.36,19.12-17.27-4.73-6.26-12.9,2.65-20.23,15.98Z"/>
          <path class="cls-2" d="M687.32,691.64c-1.05-.46-2.12.64-1.63,1.68,11.06,23.62,19.8,29.58,26.03,23.88,7.94-7.26-5.27-17.26-24.4-25.56Z"/>
          <path class="cls-2" d="M607.91,747.84c-.94-.66-2.2.2-1.93,1.32,6.1,25.36,13.46,32.95,20.71,28.61,9.23-5.52-1.7-17.97-18.78-29.93Z"/>
          <path class="cls-2" d="M425.94,794.09c-.38-.97-1.77-.96-2.13.02-8.19,22.26-6.45,31.71,1.22,32.09,9.76.49,7.78-14.44.91-32.11Z"/>
          <path class="cls-2" d="M335.83,781.87c-.15-1-1.47-1.27-2.01-.42-12.35,19.27-12.68,28.54-5.53,30.5,9.1,2.49,10.34-11.99,7.54-30.07Z"/>
          <path class="cls-2" d="M243.06,752.15c.06-1-1.17-1.55-1.88-.83-16.1,16.26-18.36,25.26-11.78,28.67,8.38,4.34,12.62-9.56,13.66-27.83Z"/>
          <path class="cls-2" d="M161.61,695.32c.39-.93-.59-1.85-1.5-1.41-20.56,10.05-25.66,17.8-20.57,23.18,6.48,6.86,15.07-4.87,22.07-21.78Z"/>
          <path class="cls-2" d="M519.62,784.32c-.6-.75-1.81-.35-1.85.61-1.03,21.73,3.1,29.52,9.91,27.74,8.68-2.27,2.83-14.78-8.06-28.34Z"/>
        </g>
        <path class="cls-5" d="M683.7,219.33c53.7,68.75,80.81,159.27,65.89,256.07-21.34,138.52-128.7,248.71-266.74,272.96-79.74,14.01-155.48-.56-218.68-35.16-1.15-.63-.39-2.38.85-1.97,85.45,27.6,89.07,24.18,157.41,24.26,110.16.13,292.92-66.57,293.21-312.34,0-7.03.16-15.8-.07-22.87-.04-1.29,1.81-1.55,2.12-.3,5.12,20.38,10.14,59.26,7.03,95.55-.11,1.31,1.78,1.63,2.12.36,5.48-20.34,8.44-43.36,8.47-72.72.09-80.4-39.44-172.41-53.45-202.73-.53-1.16,1.04-2.12,1.83-1.11Z"/>
        <path class="cls-1" d="M470.79,95.89c-11.98-1.74-24.18-2.84-36.54-3.27-191.9-6.53-347.1,147.74-341.69,339.68,1.33,47.22,12.57,91.96,31.71,132.21.55,1.15,2.29.55,2.02-.69-8.67-39.55-16.03-110-16.03-141.01,0-167.86,122.61-261.8,194.98-288.75,60.81-22.64,105.43-33.23,165.44-36.32,1.12-.06,1.21-1.69.1-1.85Z"/>
        <path class="cls-1" d="M139.12,290.64c-5.75,13.05-10.03,54.97-6.03,85.51.13,1.02-1.27,1.42-1.68.47-4.86-11.33-9.06-34.04-8.84-42.24l1.01-24.09,15.54-19.65Z"/>
      </g>
      <g>
        <path class="cls-3" d="M239.22,375.19v30h-7.92v-43.14h7.92l18.78,30v-30h7.86v43.14h-7.92l-18.72-30Z"/>
        <path class="cls-3" d="M306.12,362.05l-14.4,27.3v15.84h-7.98v-15.84l-14.4-27.3h8.7l9.72,20.1,9.66-20.1h8.7Z"/>
        <path class="cls-3" d="M318.42,362.05h7.2l16.26,43.14h-8.28l-3.36-9.66h-16.38l-3.3,9.66h-8.34l16.2-43.14ZM322.08,371.71l-6,17.4h11.94l-5.94-17.4Z"/>
        <path class="cls-3" d="M353.46,375.19v30h-7.92v-43.14h7.92l18.78,30v-30h7.86v43.14h-7.92l-18.72-30Z"/>
        <path class="cls-3" d="M415.23,403.93c-2.62,1.24-6.05,1.86-10.29,1.86-3.68,0-6.91-.82-9.69-2.46-2.78-1.64-4.94-4.02-6.48-7.14-1.54-3.12-2.31-6.84-2.31-11.16v-2.82c0-4.36.72-8.1,2.16-11.22s3.5-5.49,6.18-7.11c2.68-1.62,5.86-2.43,9.54-2.43,5.16,0,9.11,1.24,11.85,3.72s4.37,5.88,4.89,10.2h-7.74c-.84-5.08-3.8-7.62-8.88-7.62-3.28,0-5.77,1.24-7.47,3.72-1.7,2.48-2.55,6.04-2.55,10.68v2.88c0,4.64.94,8.2,2.82,10.68,1.88,2.48,4.56,3.72,8.04,3.72,2.16,0,3.83-.23,5.01-.69,1.18-.46,2.15-1.05,2.91-1.77v-8.16h-8.7v-5.94h16.56v16.8c-1.28,1.6-3.23,3.02-5.85,4.26Z"/>
        <path class="cls-3" d="M428.52,362.05h7.86v43.14h-7.86v-43.14Z"/>
        <path class="cls-3" d="M463.86,405.19h-7.92l-15.36-43.14h8.7l10.56,33.36,10.62-33.36h8.7l-15.3,43.14Z"/>
        <path class="cls-3" d="M482.76,362.05h28.38v6.36h-20.46v11.46h17.58v6.18h-17.58v12.78h20.58v6.36h-28.5v-43.14Z"/>
        <path class="cls-3" d="M543.18,365.38c2.72,2.22,4.08,5.43,4.08,9.63,0,2.92-.68,5.37-2.04,7.35-1.36,1.98-3.3,3.49-5.82,4.53l9.6,17.88v.42h-8.52l-8.46-16.32h-8.04v16.32h-7.86v-43.14h15.48c5,0,8.86,1.11,11.58,3.33ZM523.98,382.45h7.68c2.48,0,4.38-.63,5.7-1.89,1.32-1.26,1.98-2.95,1.98-5.07,0-2.24-.64-3.98-1.92-5.22-1.28-1.24-3.22-1.86-5.82-1.86h-7.62v14.04Z"/>
        <path class="cls-3" d="M575.3,391.03c-.5-.8-1.39-1.53-2.67-2.19-1.28-.66-3.16-1.37-5.64-2.13-4.52-1.4-8.03-3.13-10.53-5.19-2.5-2.06-3.75-4.75-3.75-8.07,0-2.36.66-4.45,1.98-6.27,1.32-1.82,3.15-3.23,5.49-4.23,2.34-1,5.03-1.5,8.07-1.5s5.92.58,8.28,1.74c2.36,1.16,4.18,2.74,5.46,4.74,1.28,2,1.92,4.24,1.92,6.72h-7.92c0-2.12-.66-3.8-1.98-5.04-1.32-1.24-3.28-1.86-5.88-1.86-2.44,0-4.3.52-5.58,1.56s-1.92,2.4-1.92,4.08c0,1.48.73,2.75,2.19,3.81,1.46,1.06,3.75,2.05,6.87,2.97,4.88,1.44,8.48,3.24,10.8,5.4,2.32,2.16,3.48,4.94,3.48,8.34,0,3.68-1.4,6.58-4.2,8.7-2.8,2.12-6.56,3.18-11.28,3.18-2.92,0-5.68-.52-8.28-1.56-2.6-1.04-4.72-2.6-6.36-4.68s-2.46-4.62-2.46-7.62h7.92c0,2.6.83,4.52,2.49,5.76,1.66,1.24,3.89,1.86,6.69,1.86,2.44,0,4.31-.51,5.61-1.53,1.3-1.02,1.95-2.37,1.95-4.05,0-1.16-.25-2.14-.75-2.94Z"/>
        <path class="cls-3" d="M589.37,362.05h28.38v6.36h-20.46v11.46h17.58v6.18h-17.58v12.78h20.58v6.36h-28.5v-43.14Z"/>
      </g>
      <g>
        <path class="cls-3" d="M305.25,666.79l6.99-7.68c1.18-1.3,2-2.36,2.44-3.18.45-.82.68-1.62.68-2.4,0-1.06-.3-1.92-.9-2.58s-1.43-.99-2.49-.99c-1.26,0-2.22.38-2.88,1.12-.66.75-.99,1.75-.99,2.99h-3.27c0-1.26.29-2.4.85-3.42.57-1.02,1.4-1.83,2.48-2.43,1.08-.6,2.36-.9,3.84-.9,2.08,0,3.71.53,4.88,1.58s1.75,2.47,1.75,4.27c0,1.22-.37,2.46-1.11,3.72-.74,1.26-1.79,2.61-3.15,4.05l-5.07,5.52h10.23v2.61h-14.28v-2.28Z"/>
        <path class="cls-3" d="M334.05,667.15c-1.2,1.48-2.9,2.22-5.1,2.22s-3.92-.75-5.15-2.23c-1.23-1.49-1.84-3.87-1.84-7.12v-3.42c0-3.28.6-5.64,1.81-7.09,1.21-1.45,2.93-2.17,5.15-2.17s3.93.73,5.13,2.17c1.2,1.45,1.8,3.82,1.8,7.09v3.42c0,3.28-.6,5.66-1.8,7.14ZM331.66,651.39c-.61-.95-1.53-1.43-2.75-1.43s-2.17.48-2.77,1.43c-.61.95-.92,2.51-.92,4.69v4.41c0,2.18.32,3.77.95,4.77s1.55,1.5,2.78,1.5,2.13-.5,2.73-1.5.9-2.59.9-4.77v-4.41c0-2.18-.3-3.74-.91-4.69Z"/>
        <path class="cls-3" d="M338.73,666.79l6.99-7.68c1.18-1.3,1.99-2.36,2.45-3.18.45-.82.67-1.62.67-2.4,0-1.06-.3-1.92-.9-2.58s-1.43-.99-2.49-.99c-1.26,0-2.22.38-2.88,1.12s-.99,1.75-.99,2.99h-3.27c0-1.26.29-2.4.86-3.42.57-1.02,1.39-1.83,2.47-2.43,1.08-.6,2.36-.9,3.84-.9,2.08,0,3.71.53,4.88,1.58s1.75,2.47,1.75,4.27c0,1.22-.37,2.46-1.11,3.72-.74,1.26-1.79,2.61-3.15,4.05l-5.07,5.52h10.23v2.61h-14.28v-2.28Z"/>
        <path class="cls-3" d="M368.67,647.62v2.85h-8.61l-.6,5.43c.4-.24.89-.45,1.48-.62s1.23-.25,1.94-.25c2.02,0,3.6.64,4.74,1.92,1.14,1.28,1.71,3.03,1.71,5.25s-.6,3.85-1.79,5.17c-1.19,1.33-2.92,2-5.17,2-1.2,0-2.31-.23-3.33-.69-1.02-.46-1.85-1.15-2.49-2.07-.64-.92-1-2.02-1.08-3.3h3.18c.14,1.1.53,1.95,1.17,2.55.64.6,1.49.9,2.55.9,1.18,0,2.09-.42,2.73-1.25.64-.83.96-1.96.96-3.38,0-1.3-.35-2.36-1.05-3.18-.7-.82-1.68-1.23-2.94-1.23-.8,0-1.42.1-1.86.31-.44.21-.91.55-1.41,1.01l-2.61-.69,1.14-10.74h11.34Z"/>
        <path class="cls-3" d="M373.17,666.07c.34-.36.81-.54,1.41-.54s1.07.18,1.42.54c.35.36.52.81.52,1.35s-.17.95-.51,1.29c-.34.34-.82.51-1.44.51s-1.07-.17-1.41-.51c-.34-.34-.51-.77-.51-1.29s.17-.99.51-1.35Z"/>
        <path class="cls-3" d="M391.89,667.15c-1.2,1.48-2.9,2.22-5.1,2.22s-3.92-.75-5.15-2.23c-1.23-1.49-1.84-3.87-1.84-7.12v-3.42c0-3.28.6-5.64,1.81-7.09,1.21-1.45,2.92-2.17,5.14-2.17s3.93.73,5.13,2.17c1.2,1.45,1.8,3.82,1.8,7.09v3.42c0,3.28-.6,5.66-1.8,7.14ZM389.5,651.39c-.61-.95-1.53-1.43-2.75-1.43s-2.16.48-2.77,1.43-.92,2.51-.92,4.69v4.41c0,2.18.31,3.77.95,4.77.63,1,1.55,1.5,2.77,1.5s2.13-.5,2.73-1.5c.6-1,.9-2.59.9-4.77v-4.41c0-2.18-.3-3.74-.91-4.69Z"/>
        <path class="cls-3" d="M396.57,666.79l6.99-7.68c1.18-1.3,1.99-2.36,2.44-3.18s.67-1.62.67-2.4c0-1.06-.3-1.92-.9-2.58-.6-.66-1.43-.99-2.49-.99-1.26,0-2.22.38-2.88,1.12s-.99,1.75-.99,2.99h-3.27c0-1.26.29-2.4.85-3.42.57-1.02,1.4-1.83,2.48-2.43,1.08-.6,2.36-.9,3.84-.9,2.08,0,3.71.53,4.88,1.58s1.75,2.47,1.75,4.27c0,1.22-.37,2.46-1.11,3.72-.74,1.26-1.79,2.61-3.15,4.05l-5.07,5.52h10.23v2.61h-14.28v-2.28Z"/>
        <path class="cls-3" d="M419.49,657.1h7.59v2.61h-7.59v-2.61Z"/>
        <path class="cls-3" d="M436.1,666.79l6.99-7.68c1.18-1.3,1.99-2.36,2.44-3.18s.67-1.62.67-2.4c0-1.06-.3-1.92-.9-2.58-.6-.66-1.43-.99-2.49-.99-1.26,0-2.22.38-2.88,1.12s-.99,1.75-.99,2.99h-3.27c0-1.26.29-2.4.85-3.42.57-1.02,1.4-1.83,2.48-2.43,1.08-.6,2.36-.9,3.84-.9,2.08,0,3.71.53,4.88,1.58s1.75,2.47,1.75,4.27c0,1.22-.37,2.46-1.11,3.72-.74,1.26-1.79,2.61-3.15,4.05l-5.07,5.52h10.23v2.61h-14.28v-2.28Z"/>
        <path class="cls-3" d="M464.9,667.15c-1.2,1.48-2.9,2.22-5.1,2.22s-3.92-.75-5.14-2.23c-1.23-1.49-1.85-3.87-1.85-7.12v-3.42c0-3.28.61-5.64,1.82-7.09,1.21-1.45,2.92-2.17,5.15-2.17s3.93.73,5.13,2.17c1.2,1.45,1.8,3.82,1.8,7.09v3.42c0,3.28-.6,5.66-1.8,7.14ZM462.52,651.39c-.61-.95-1.53-1.43-2.74-1.43s-2.17.48-2.78,1.43c-.61.95-.92,2.51-.92,4.69v4.41c0,2.18.32,3.77.94,4.77.63,1,1.55,1.5,2.78,1.5s2.13-.5,2.73-1.5c.6-1,.9-2.59.9-4.77v-4.41c0-2.18-.31-3.74-.92-4.69Z"/>
        <path class="cls-3" d="M469.58,666.79l6.99-7.68c1.18-1.3,2-2.36,2.45-3.18s.67-1.62.67-2.4c0-1.06-.3-1.92-.9-2.58-.6-.66-1.43-.99-2.49-.99-1.26,0-2.22.38-2.88,1.12-.66.75-.99,1.75-.99,2.99h-3.27c0-1.26.29-2.4.86-3.42.57-1.02,1.39-1.83,2.47-2.43,1.08-.6,2.36-.9,3.84-.9,2.08,0,3.71.53,4.88,1.58s1.76,2.47,1.76,4.27c0,1.22-.37,2.46-1.11,3.72-.74,1.26-1.79,2.61-3.15,4.05l-5.07,5.52h10.23v2.61h-14.28v-2.28Z"/>
        <path class="cls-3" d="M499.52,647.62v2.85h-8.61l-.6,5.43c.4-.24.89-.45,1.48-.62s1.24-.25,1.94-.25c2.02,0,3.6.64,4.74,1.92,1.14,1.28,1.71,3.03,1.71,5.25s-.59,3.85-1.78,5.17c-1.19,1.33-2.92,2-5.17,2-1.2,0-2.31-.23-3.33-.69s-1.85-1.15-2.49-2.07c-.64-.92-1-2.02-1.08-3.3h3.18c.14,1.1.53,1.95,1.17,2.55.64.6,1.49.9,2.55.9,1.18,0,2.09-.42,2.73-1.25s.96-1.96.96-3.38c0-1.3-.35-2.36-1.05-3.18-.7-.82-1.68-1.23-2.94-1.23-.8,0-1.42.1-1.86.31-.44.21-.91.55-1.41,1.01l-2.61-.69,1.14-10.74h11.34Z"/>
        <path class="cls-3" d="M504.02,666.07c.34-.36.81-.54,1.41-.54s1.08.18,1.43.54c.35.36.52.81.52,1.35s-.17.95-.51,1.29-.82.51-1.44.51-1.07-.17-1.41-.51c-.34-.34-.51-.77-.51-1.29s.17-.99.51-1.35Z"/>
        <path class="cls-3" d="M522.74,667.15c-1.2,1.48-2.9,2.22-5.1,2.22s-3.92-.75-5.15-2.23c-1.23-1.49-1.84-3.87-1.84-7.12v-3.42c0-3.28.6-5.64,1.81-7.09,1.21-1.45,2.93-2.17,5.15-2.17s3.93.73,5.13,2.17c1.2,1.45,1.8,3.82,1.8,7.09v3.42c0,3.28-.6,5.66-1.8,7.14ZM520.36,651.39c-.61-.95-1.53-1.43-2.75-1.43s-2.17.48-2.77,1.43c-.61.95-.92,2.51-.92,4.69v4.41c0,2.18.32,3.77.95,4.77s1.55,1.5,2.78,1.5,2.13-.5,2.73-1.5.9-2.59.9-4.77v-4.41c0-2.18-.3-3.74-.91-4.69Z"/>
        <path class="cls-3" d="M536.06,664.18h-9.45l-.06-1.95,9.39-14.61h3.39v13.95h2.79v2.61h-2.79v4.89h-3.27v-4.89ZM536.06,652.03l-.3.54-5.73,9h6.03v-9.54Z"/>
      </g>
      <g>
        <path class="cls-3" d="M323.07,462.57c-2.14,4.38-5.79,8.11-10.94,11.18l-2.88-3.5c4.45-2.62,7.62-5.71,9.5-9.26,1.89-3.55,2.83-7.79,2.83-12.72v-1.01h4.7c0,5.83-1.07,10.93-3.22,15.31ZM323.02,451.34h-11.95v-4.08h11.95v4.08ZM333.96,480.24h-4.56v-36.91h4.56v36.91ZM339.44,461.66h-6.82v-4.03h6.82v4.03ZM342.7,482.06h-4.7v-39.74h4.7v39.74Z"/>
        <path class="cls-3" d="M362.59,446.23c1.58.85,2.83,2.03,3.74,3.55.91,1.52,1.37,3.22,1.37,5.11s-.46,3.64-1.37,5.16c-.91,1.52-2.16,2.71-3.74,3.55s-3.35,1.27-5.3,1.27-3.72-.42-5.3-1.27-2.83-2.03-3.74-3.55c-.91-1.52-1.37-3.24-1.37-5.16s.46-3.58,1.37-5.09c.91-1.5,2.17-2.69,3.77-3.55,1.6-.86,3.36-1.3,5.28-1.3s3.72.42,5.3,1.27ZM353.26,450.86c-1.05,1.02-1.58,2.37-1.58,4.03s.53,3.06,1.58,4.08c1.06,1.02,2.4,1.54,4.03,1.54s2.93-.51,3.98-1.54c1.06-1.02,1.58-2.38,1.58-4.08s-.53-3.01-1.58-4.03-2.38-1.54-3.98-1.54-2.98.51-4.03,1.54ZM357.72,478.85h-4.94v-10.7h4.94v10.7ZM379.32,481.29h-26.54v-4.03h26.54v4.03ZM378.32,471.02h-4.94v-28.66h4.94v28.66Z"/>
        <path class="cls-3" d="M427.08,477.31h-35.18v-4.22h35.18v4.22ZM424.06,450.05h-29.28v-4.08h29.28v4.08ZM423.91,466.46h-28.94v-3.94h28.94v3.94ZM405.15,462.86h-4.85v-13.2h4.85v13.2ZM418.54,462.86h-4.9v-13.2h4.9v13.2Z"/>
        <path class="cls-3" d="M463.71,477.5h-35.18v-4.13h35.18v4.13ZM459.63,457.82h-22.03v7.1h-4.9v-11.04h21.98v-4.8h-22.03v-4.08h26.98v12.82ZM460.49,466.94h-27.79v-4.08h27.79v4.08ZM448.49,475.05h-4.9v-9.46h4.9v9.46Z"/>
        <path class="cls-3" d="M473.98,460.08c-1.47,2.75-3.68,4.75-6.62,6l-2.54-3.94c2.5-.99,4.38-2.53,5.66-4.61s1.92-4.32,1.92-6.72v-2.78h3.79v2.78c0,3.42-.74,6.51-2.21,9.26ZM483.1,449.37h-17.14v-4.08h17.14v4.08ZM498.07,482.06h-4.85v-9.94h-21.55v-4.03h26.4v13.97ZM478.9,457.05c1.2,1.92,2.97,3.36,5.3,4.32l-2.45,3.89c-2.82-1.18-4.94-3.07-6.36-5.66-1.42-2.59-2.14-5.52-2.14-8.78v-2.78h3.84v2.78c0,2.24.6,4.32,1.8,6.24ZM487.56,456.33h-6.43v-4.08h6.43v4.08ZM490.49,466.27h-4.71v-23.14h4.71v23.14ZM498.07,466.56h-4.66v-24.24h4.66v24.24Z"/>
        <path class="cls-3" d="M536.95,477.31h-35.18v-4.13h35.18v4.13ZM532.78,449.47h-21.74v14.74h-4.99v-18.82h26.74v4.08ZM533.11,467.09h-27.07v-3.98h27.07v3.98ZM531.86,458.11h-22.32v-3.94h22.32v3.94Z"/>
      </g>
    </g>
  </g>
</svg>