<?xml version="1.0" encoding="UTF-8"?>
<svg id="Layer_2" data-name="Layer 2" xmlns="http://www.w3.org/2000/svg" viewBox="0 0 846.53 846.53">
  <defs>
    <style>
      .cls-1 {
        fill: #e6e6e6;
      }

      .cls-2 {
        fill: #f4f4f4;
      }

      .cls-3 {
        fill: #191817;
      }

      .cls-4 {
        fill: #fff;
      }

      .cls-5 {
        fill: #666;
      }

      .cls-6 {
        fill: #e2779b;
      }

      .cls-7 {
        opacity: .54;
      }

      .cls-8 {
        opacity: .17;
      }

      .cls-9 {
        opacity: .15;
      }

      .cls-10 {
        fill: #e5f6ff;
      }

      .cls-11 {
        fill: #9bc4db;
      }

      .cls-12 {
        fill: #fcd0d0;
      }

      .cls-13 {
        fill: #e27197;
      }

      .cls-14 {
        fill: #7a797a;
      }

      .cls-15 {
        fill: #a8a8a8;
      }

      .cls-16 {
        fill: #e2aabd;
      }

      .cls-17 {
        fill: #fcc5c5;
      }
    </style>
  </defs>
  <g id="Layer_1-2" data-name="Layer 1">
    <path class="cls-6" d="M715.02,326.92v1.37h-102.8v61.68h-124.73v68.53H176.34v65.79h-67.65c44.13,131.29,168.06,225.92,314.23,225.92,183.15,0,331.62-148.47,331.62-331.62,0-31.83-4.65-62.55-13.03-91.68h-26.5Z"/>
    <path class="cls-10" d="M560.4,324.61h266.37c.36-2.8.36-5.71-.47-8.83-4.12-15.47-20.91-18.87-30.9-22.86-3.66-1.46-6.61-4.26-8.32-7.81l-3.67-9.05-4.83-11.54c-1.29-3.72-1.18-7.79.38-11.4,4.27-9.87,13.77-24.12,5.78-38-7.99-13.87-25.09-12.82-35.76-14.08-3.91-.46-7.49-2.41-10.06-5.39l-5.9-7.81-7.63-9.87c-2.21-3.25-3.15-7.22-2.58-11.12,1.57-10.64,7.05-26.86-4.25-38.2-11.31-11.33-27.55-5.89-38.19-4.34-3.9.57-7.86-.39-11.11-2.6l-7.7-6-9.96-7.58c-2.98-2.57-4.91-6.16-5.37-10.07-1.24-10.68-.14-27.77-13.99-35.79-13.86-8.02-28.13,1.44-38.01,5.69-3.62,1.55-7.69,1.66-11.41.36l-9-3.81-11.56-4.74c-3.54-1.71-6.34-4.68-7.79-8.34-3.96-9.99-7.32-26.79-22.78-30.95-15.46-4.16-26.8,8.68-35.24,15.33-3.09,2.44-7,3.59-10.92,3.3l-12.24-1.71,2.58.36-12.41-1.59c-3.87-.74-7.34-2.88-9.68-6.03-6.41-8.63-14.01-23.98-30.02-24-16.01-.02-23.64,15.32-30.07,23.93-2.36,3.16-5.83,5.28-9.7,6.01l-9.68,1.2-12.4,1.68c-3.93.29-7.83-.88-10.92-3.32-8.43-6.68-19.74-19.54-35.21-15.42-15.47,4.13-18.87,20.92-22.86,30.9-1.46,3.66-4.26,6.61-7.81,8.32l-11.45,4.64,2.41-.98-11.54,4.83c-3.72,1.29-7.79,1.18-11.4-.38-9.87-4.27-24.12-13.77-38-5.78-13.87,7.99-12.82,25.09-14.08,35.76-.46,3.91-2.41,7.49-5.39,10.06l-9.86,7.45,2.08-1.57-9.9,7.65c-3.26,2.21-7.22,3.16-11.12,2.58-10.63-1.57-26.86-7.05-38.2,4.26-11.33,11.31-5.88,27.55-4.34,38.19.57,3.9-.39,7.86-2.6,11.11l-6.02,7.71-7.56,9.94c-2.57,2.98-6.16,4.91-10.07,5.37-10.68,1.24-27.77.14-35.79,13.99-8.02,13.86,1.44,28.13,5.69,38.01,1.56,3.62,1.66,7.69.36,11.41l-3.81,8.99-4.74,11.57c-1.72,3.54-4.68,6.34-8.34,7.79-10,3.96-26.79,7.32-30.95,22.78-4.16,15.46,8.68,26.8,15.33,35.24,2.44,3.09,3.59,7,3.3,10.93l-1.35,9.71-1.58,12.37c-.74,3.87-2.88,7.33-6.04,9.68-8.63,6.41-23.98,14.01-24,30.02-.02,16.01,15.32,23.64,23.93,30.07,3.15,2.35,5.28,5.83,6.01,9.7l1.2,9.68,1.68,12.4c.28,3.93-.88,7.83-3.33,10.92-5.58,7.05-15.38,16.16-16.05,27.99h282.6v-92.22h258.21v-106.71Z"/>
    <path class="cls-11" d="M826.5,324.61c1.26-1.97,1.91-4.45,1.34-8.01-1.48-9.39-14.46-11.48-24.34-17.91-9.88-6.42-17.65-19.04-17.65-19.04,0,0-7.9-25.3-7.41-27.28.49-1.98,11.87-31.86,11.87-31.86l-9.38-14.76-35.1-4.27s-24.04-28.16-23.63-30.14c.41-1.98,3.38-23.71,3.38-25.69s-5.43-20.75-5.43-20.75c0,0-4.94-2.96-14.33-.99-9.38,1.98-21.21,2.73-23.7,3.34-2.49.61-23.97,7.78-23.97,7.78,27.83,41.11,52.42,113.52,54.77,189.56h113.57Z"/>
    <g>
      <path class="cls-11" d="M231.08,67c-3-1.33.32-4.26-1.25-4.56-1.95-.36-10.95-1.34-12.63-.47-1.5.75-4.96,4.23-6.92,6.9-1.5,2.1-2.95,7.78-3.59,13.97-.36,3.97-2.6,12.98-3.74,15.26-2.44,4.83.15,9.65-6.35,14.12-4.39,3.06-15.28,10.02-16.93,10.86-2.8,1.44-4.54,1.89-10.13,2.63-7.69,1.01-9.92.92-15.99-.65-3.09-.82-13.94-.59-15.93.31-.72.3-2.01.87-2.89,1.23-2.2.9-3.43,2.31-4.55,5.32-.87,2.28-.99,3.24-1.15,8.71-.13,4.81-.04,6.67.41,8.48,1.59,6.07,1.67,8.3.61,15.99-.76,5.56-1.21,7.3-2.63,10.12-.84,1.62-7.86,12.49-10.9,16.91-4.49,6.49-7.95,9.76-12.79,12.19-2.26,1.14-11.27,3.32-15.24,3.71-1.47.15-4,.51-5.65.83-6.55,1.25-14.27-.71-18.78,3.46-2.86,2.64-3.85,4.5-4.13,7.57-.18,2.25,4.2.22,5.35,3.32,5.1,13.73,41.59,25.55,44.01,25.78,6.09.56,14.2-1.91-1.5-22.51-3.8-4.98-4.92-6.86-4.26-8.48.78-1.86.92-3.04,5.04-2.74,4.12.28,7.99-.36,11.09-2.37,3.04-1.98,6.14-5.22,10.62-11.23,3.52-4.65,11.12-16.27,11.69-18.67,1.09-4.59.55-8.21.02-13.34-.18-1.74-.98-5.29.28-6.18,3.78-2.64,18.44,10.17,25.38,12.78,6.12,2.3,9.63-1.55,7.35-8.83-1.23-3.92-2.57-6.91-6.41-16.06-1.89-4.51-4.28-9.7-2.94-11.61,1.02-1.45,4.07-1.01,9.47.3,7.4,1.79,13.83-3.13,18.04-5.41,3.49-1.92,12.04-8.57,15.47-11.39,1.41-1.2,9.26-6.41,8.85-17.25-.1-2.71-.95-7.08,2.3-6.76,2.46.25,5.69,3.58,17.73,12.04,3.18,2.23,8.62,4.73,10.63,4.73,2.16,0,3.88-.8,4.15-2.46.85-5.14.04-9.86-3.16-18.49-4.19-11.22-10.75-24.83-18.08-28.09Z"/>
      <path class="cls-11" d="M330.33,29.7c-3.84-3.57-10.65-12.33-14.02-10.05-3.67,2.43-6.5,6.93-9.09,14.38-1.75,5.05-2.74,7.03-4.79,9.73-3.88,5.07-7.76,7.74-15.16,10.38-2.25.81-4.93,1.86-5.92,2.34-2.34,1.2-12.12,4.73-14.73,5.36-.25.06-.59.1-.89.16v2.94h-2.24l2.16,7.16.9.99c2.43,2.59,8.45,7.4,13.06,8.07,4.02.58,10.24-1.54,12.05-2.17,2.12-.75,14.24-5.32,17.04-13.47.96-2.78,1.42-4.84,1.9-5.35.96-1.02,2.27-.83,3.41.1,1.11.87,5.06,7.3,8.41,11.75,3.31,4.41,8.63,8.78,11.66,8.56,1.84-.13,4.71-3.51,5.34-7.68,1.54-10.33-1.01-35.69-9.09-43.2Z"/>
      <path class="cls-11" d="M390.95,56.92s6.25-.95,7.84-2.02c2.62-1.77,6.13-6.14,7.63-8,3.07-3.81,3.84-5.3,5.33-5.22,1.88.09,3.15,6.95,3.86,11.63,1.34,8.45,1.55,9.32,2.81,12.09,1.09,2.38,2.81,5.46,6.25,5.47,3.64,0,6.87-6.57,8.25-13.51,2.41-12.24,6.6-28.76.24-40.89-1.39-2.66,4.77,2.63,2.98-.18-2.31-3.58-5.26-9.99-9.41-10.86-2.19-.48-5.98.3-8.36,1.67-2.11,1.23-5.02,4.62-9.21,10.69-2.2,3.21-5.27,7.06-7.98,9.94-3.07,3.27-8.99,6.63-13.95,7.89-8.12,2.03-16.32,3.17-24.56,3.37-3.01.09-7.47,4.61-7.56,4.7-.21.21,6.75,9.83,18.93,13.1,3.49.94,12.04.82,16.9.15Z"/>
      <path class="cls-11" d="M71.25,335.77c-.23.03-.62.04-.88.06-.61.1-1.17.21-1.89.3l2.77-.37Z"/>
      <path class="cls-11" d="M70.37,335.83c3.31-.56,5.1-1.28,6.2-2.57,1.44-1.71,1.24-2.91-.87-4.87-.96-.93-2.85-2.41-4.2-3.31-6.67-4.49-10.51-7.95-10.51-9.42,0-1.44.96-2.29,4.18-3.03,9.5-2.18,13.97-16.33,16.14-22.6,2.45-7.09,2.57-10.13,2.44-12.48-.41-7.66-4.17-16.73-9.12-22.15l-9.38.86.24,3.46c.15,2.13.09,4.27-.19,5.56-.51,2.37-4.37,13.07-5.61,15.47-.45.87-1.48,3.45-2.29,5.74-2.65,7.39-5.24,11.17-10.51,15.23-3.13,2.46-14.55,2.6-19.09,4.4-3.61,1.41-3.88,12.97-2.5,15.87,6.47,13.55,35.01,14.9,45.05,13.86Z"/>
      <path class="cls-11" d="M57.17,428.37c4.16-1.95,5.12-4.15,5.03-5.54-.03-.99-.36-1.8-.84-2.25-1.26-1.17-8.91-4.76-12.3-5.82-4.09-1.3-6.33-2.37-6.63-3.52-.51-2.01.9-3.38,5.62-5.8,7.49-3.83,8.72-14.6,8.72-14.6.95-8.73,1.52-14.15.32-18.15-.54-1.86-1.18-4.11-1.65-4.9-5.65-9.62-16.37-16.4-17.3-15.5-.21.24-.51,5.1-.57,7.87-.16,7.51-1.4,16.08-3.42,24.04-1.24,4.96-4.61,10.87-7.89,13.91-2.92,2.73-6.77,5.79-9.96,7.98-8.96,6.12-11.1,8.4-12.22,13.15-.85,3.58-.25,6.31,1.73,8.03,1.38,1.2,4.08-.75,7.19,1.3,12.53,8.24,35.92,3.68,44.17-.19Z"/>
      <path class="cls-11" d="M688.83,141.35c1.83.84.94,3.76-3.67,11.09-3.61,5.77-5.44,8.37-5.69,12.96-.15,2.73,1.62,3.78,4.49,3.53,5.44-1.26,14.54-5.33,22.55-12.11,5.75-4.92,10.58-9.36,11.58-14.35.58-2.91,4.26-3.06,4.11-5.01-.15-2.19-1.32-5.59-2.43-7.16-.66-.87-1.92-1.59-5.53-3.22-2.16-.96-12.86-1.25-16.11-.41-6.1,1.55-8.3,1.64-16.02.61-7.81-1.06-8.38-1.3-18.14-7.65-11.89-7.74-15.61-10.57-17.77-13.58l-1.41-1.92-2.33,2.85c-.97,14.41,4.05,18.57,8.66,22.78,3.61,3.3,18.45,14.03,25.63,12.5,3-.64,11.39-1.21,12.08-.91Z"/>
      <path class="cls-11" d="M510.08,65.18c.2,8.35.56,11.36,1.73,13.58.63,1.23,1.57,4.95,6.28,3.58,7.5-2.18,24.32-34.24,18.22-52.79-.89-2.69-3.6-8.13-6.6-8.23-2.19-.06-7.88,3-11.25,6.03-6.68,6-12.75,9.69-18.08,10.95-9.02,2.15-34.03,5.22-41.75.88-3.75-2.08-3.63-2.05-2.94-.75.3.63-1.91-1.15-1.4.17,2.34,6.22,7.03,13.45,12.53,17.85,1.82,1.46,8.51,2.15,11.72,2.5,7.33.79,13.48,2.67,20.51,0,2.89-1.1,7.04-4.49,8.1-4.58,1.08-.09,1.47.21,2.04,1.14.6.99.72,2.26.89,9.68Z"/>
      <path class="cls-11" d="M606.76,85.57c.78.99.54,3.07-.85,7.06-1.06,3.03-1.47,4.77-1.69,8.29-.66,10.53,3.72,9.53,4.98,9.32.84-.15,2.37-.87,3.43-1.62,3.76-2.64,6.47-5.43,10.29-10.51,4.24-5.68,7.5-11.62,10.66-19.4,1.66-4.15.84-7.23-.75-9.91l3.08-1.21-1.44-1.53c-2.52-2.59-3.93-3.13-8.05-3.08-4.66.06-8.15,1.01-14.82,4.01-8.15,3.72-10.97,4.4-20.02,5.08-4.33.33-6.22.32-7.81,0-2.34-.48-13.07-4.34-15.47-5.58-.87-.45-3.39-1.48-5.62-2.26-4.27-1.54-6.7-2.65-8.53-3.95-.57-.42-.99-.6-.93-.42,2.76,6.34,6.05,16.5,9.63,18.94,6.46,4.39,14,6.59,23.58,9.21,3.31.94,10.62-.47,13.54-1.9,4.49-2.2,5.78-1.85,6.81-.55Z"/>
    </g>
    <path class="cls-10" d="M687.11,202.66c-63.09-75.41-157.83-123.41-263.85-123.41-189.99,0-344.01,154.02-344.01,344.01,0,34.89,5.24,68.54,14.89,100.27h208.05v-92.22h258.21v-106.71h126.71v-121.95Z"/>
    <g>
      <path class="cls-2" d="M71.43,219.82c-6.3,8.3,8.02,15.53,27.7,20.12,1.08.25,1.91-.98,1.26-1.88-14.65-20.59-24.01-24.75-28.96-18.23Z"/>
      <path class="cls-2" d="M34.26,320.13c-3.2,8.41,10.43,10.92,27.86,9.92.96-.05,1.34-1.27.59-1.87-17.16-13.49-25.93-14.66-28.44-8.05Z"/>
      <path class="cls-2" d="M44.55,419.58c-18.67-6.01-26.43-4.26-26.48,2.09-.07,8.09,12.2,5.95,26.57-.33.79-.35.73-1.49-.09-1.76Z"/>
      <path class="cls-2" d="M135.83,132.89c-8.01,7.32,5.31,17.42,24.62,25.79,1.06.46,2.13-.65,1.65-1.69-11.16-23.83-19.98-29.84-26.27-24.09Z"/>
      <path class="cls-2" d="M221.63,71.76c-9.31,5.57,1.71,18.13,18.95,30.2.95.67,2.22-.2,1.95-1.33-6.15-25.59-13.58-33.24-20.9-28.87Z"/>
      <path class="cls-2" d="M425.11,22.9c-9.85-.49-7.86,14.57-.92,32.4.38.98,1.78.97,2.15-.02,8.26-22.46,6.51-32-1.23-32.38Z"/>
      <path class="cls-2" d="M522.73,37.29c-9.19-2.51-10.44,12.1-7.61,30.35.16,1,1.48,1.28,2.03.43,12.46-19.44,12.79-28.8,5.58-30.77Z"/>
      <path class="cls-2" d="M622.52,69.53c-8.45-4.38-12.73,9.65-13.78,28.08-.06,1.01,1.18,1.56,1.89.84,16.25-16.41,18.53-25.49,11.89-28.93Z"/>
      <path class="cls-2" d="M713.19,132.99c-6.54-6.92-15.2,4.91-22.27,21.97-.39.94.6,1.86,1.51,1.42,20.75-10.14,25.89-17.96,20.76-23.39Z"/>
      <path class="cls-2" d="M321.54,36.56c-8.75,2.29-2.85,14.91,8.13,28.6.6.75,1.83.35,1.87-.61,1.04-21.92-3.13-29.78-10-27.99Z"/>
    </g>
    <path class="cls-11" d="M747.71,324.61c-4.13-12.13-8.87-23.98-14.32-35.44-.55-1.16-2.32-.56-2.04.7,2.19,10,4.3,21.95,6.23,34.74h10.13Z"/>
    <path class="cls-10" d="M560.4,324.61h165.95c-41.55-127.72-161.5-220.07-303.09-220.07-176.03,0-318.73,142.7-318.73,318.73,0,35.05,5.74,68.73,16.19,100.27h181.47v-92.22h258.21v-106.71Z"/>
    <path class="cls-16" d="M816.45,393.68c-3.15-2.35-5.28-5.83-6.01-9.7l-1.2-9.68-1.68-12.4c-.29-3.92.88-7.83,3.33-10.92,3.5-4.42,8.65-9.65,12.21-15.83h-119.1v1.32h-98.8v59.28h-119.88v65.87H186.27v63.23H19.46c0,1.9.22,3.85.77,5.89,4.13,15.47,20.92,18.87,30.9,22.86,3.66,1.46,6.61,4.26,8.32,7.81l4.64,11.46-.98-2.41,4.84,11.54c1.29,3.72,1.18,7.79-.39,11.41-4.27,9.87-13.77,24.12-5.78,38,7.99,13.87,25.09,12.82,35.76,14.08,3.91.46,7.49,2.41,10.06,5.39l5.9,7.81,7.63,9.87c2.21,3.26,3.15,7.22,2.58,11.12-1.57,10.64-7.05,26.86,4.25,38.2,11.31,11.34,27.55,5.89,38.19,4.34,3.9-.56,7.86.39,11.11,2.61l7.7,6,9.96,7.57c2.98,2.57,4.91,6.16,5.37,10.07,1.24,10.68.14,27.77,13.99,35.79,13.86,8.02,28.13-1.44,38.01-5.69,3.62-1.55,7.69-1.66,11.41-.36l9,3.81,11.56,4.74c3.54,1.72,6.34,4.68,7.79,8.34,3.96,10,7.32,26.79,22.78,30.95,15.46,4.16,26.8-8.68,35.24-15.33,3.09-2.44,7-3.59,10.92-3.3l12.24,1.71-2.58-.36,12.41,1.59c3.87.74,7.34,2.88,9.68,6.04,6.41,8.63,14.01,23.98,30.02,24,16.01.02,23.64-15.32,30.07-23.93,2.36-3.15,5.83-5.28,9.7-6.01l9.68-1.2,12.4-1.68c3.93-.29,7.83.88,10.92,3.32,8.43,6.68,19.73,19.54,35.2,15.42,15.47-4.13,18.87-20.91,22.86-30.9,1.46-3.66,4.26-6.61,7.81-8.32l9.04-3.66,11.54-4.83c3.72-1.29,7.79-1.18,11.41.38,9.87,4.27,24.12,13.77,38,5.78,13.87-7.99,12.82-25.09,14.08-35.76.46-3.91,2.41-7.49,5.39-10.05l7.82-5.91,9.86-7.63c3.26-2.21,7.22-3.15,11.12-2.58,10.63,1.57,26.86,7.05,38.2-4.25,11.33-11.31,5.89-27.55,4.34-38.19-.57-3.9.39-7.86,2.61-11.11l6-7.7,7.57-9.95c2.57-2.98,6.16-4.92,10.07-5.37,10.68-1.24,27.77-.14,35.79-13.99,8.02-13.86-1.44-28.13-5.69-38.01-1.56-3.62-1.66-7.69-.36-11.4l3.81-9,4.74-11.57c1.72-3.54,4.68-6.34,8.34-7.79,9.99-3.96,26.79-7.32,30.95-22.78,4.16-15.46-8.68-26.8-15.33-35.24-2.44-3.09-3.59-7-3.3-10.92l1.35-9.68,1.58-12.4c.74-3.87,2.88-7.34,6.04-9.69,8.63-6.41,23.98-14,24-30.02.02-16.01-15.32-23.64-23.93-30.07Z"/>
    <path class="cls-12" d="M815.49,392.68c0-2.47-8.89-38.04-8.4-40.51.42-2.08,4.67-11.43,8.65-17.02h-102.62c.42,72.07-18.43,147.68-70.78,206.23-110.42,123.5-272.95,198.27-272.95,198.27,0,0-85.72,21.95-234.29-86.18l-10.25,36.12,2.47,31.62s12.35,4.94,13.83,4.94,26.68-2.96,26.68-2.96l25.19,14.33s13.83,30.63,12.35,33.1c-1.48,2.47,8.89,17.79,8.89,17.79,0,0,19.27-14.33,39.52-10.87,20.25,3.46,40.51,12.85,40.02,15.81-.49,2.96,5.93,23.61,8.89,25.14,2.96,1.53,19.26,9.51,19.26,9.51,0,0,29.64-18.35,31.62-18.85,1.98-.49,31.62,5.93,35.57,7.9,3.95,1.98,18.28,17.08,19.76,18.67,1.48,1.58,5.93,5.54,5.93,5.54,0,0,9.39,6.92,14.82,1.48,5.43-5.43,12.35-10.79,16.3-16.76,3.95-5.97-9.39-12.86,13.34-15.09,22.72-2.23,38.04,0,38.04,0l19.95,18.13,14.64,2.85s13.41-10.51,13.05-12.35c-.35-1.84,9.18-24.7,10.17-26.18.99-1.48,9.39-8.89,9.39-8.89l37.05-3.46s20.23,10.28,21.71,9.79c1.48-.49,18.3-7.81,18.3-9.29s-.99-12.72,3.46-24.88c4.45-12.16,4.94-26.49,14.82-28.47,9.88-1.97,10.38-5.43,20.26-4.45,9.88.99,9.73,1.64,19.61-1.82,9.88-3.46,8.57,4.52,14.59-2,6.02-6.52,6.8-1.12,7.29-10.51.49-9.39-.99-16.3,1.48-23.71,2.47-7.41.5-6.42,5.93-15.81,5.44-9.39,5.81-15.31,11.3-19.76,5.49-4.45,11.78-7.9,16.29-7.9s17.85,3.46,24.28-1.48c6.42-4.94,11.86-4.94,8.4-15.81-3.46-10.87-14.32-20.75-15.06-26.18-.75-5.43,10.62-23.71,13.09-27.17,2.47-3.46.99-10.87,7.41-14.33,6.42-3.46,27.66-14.82,30.13-18.77,2.47-3.95,10.6-11.84-.77-23.21-11.36-11.36-12.08-8.41-13.07-22.24-.99-13.83-1.4-34.09,1.77-37.05,3.17-2.96,29.84-18.77,30.83-25.19.99-6.42.12-14.01-6.79-19.94-6.91-5.93-21.36-15.63-21.36-18.1Z"/>
    <g>
      <path class="cls-16" d="M220.26,752.22c-3-.91-.91-6.78-.57-8.73,1.04-6.07-1.62-8.43-3.39-10.56-1.56-1.89-10.9-9.81-13.84-11.71-2.25-1.48-5.54-3.46-8.77-3.53-3.34-.07-12.08.71-16.38,2.85l-1.47.63,2.22,1.05c2.07.96,12.13,7.38,17.81,11.29,6.49,4.52,9.76,7.95,12.19,12.79,1.14,2.29,3.35,11.31,3.71,15.27.15,1.44.54,3.97.83,5.62,1.26,6.55.02,10.05,4.2,14.56,2.34,2.56,5.67,1.14,8.29,1.77.06,0,1.14-.51,2.41-1.17l.88-2.38c4.88-3.06,8.32-9.23,10.41-13.69,2.68-5.73,4.17-10.08,5.26-17.02.94-6.1.42-11.43-2.71-13.29-2.99-1.77-18.84,16.92-21.07,16.24Z"/>
      <path class="cls-16" d="M324.13,783.1c-2.77,5.05-5.55,10.72-6.52,10.99-1.29.3-3.29-.69-4.07-3.94-.87-3.7-2.05-9.07-3.82-10.52-1.83-1.5-6.32-4.31-9.47-5.33-6.67-2.17-14.82-5.09-18.49-5.07-3.73,0-15.03,4.67-15.03,5.63,0,.18,1.57.93,2.35,1.06,1.65.27,11.24,10.02,13.49,11.2.87.45,3.42,1.48,5.65,2.26,2.22.81,4.93,1.9,5.98,2.44,6.01,3.04,8.89,15.95,14.77,29.21,1.68,3.76,8.9,3.93,12,4.93,1.23.36,4.56-6.63,4.56-6.63,6.99-6.59,11.53-37.88,6.55-43.46-1.43-1.6-5.5,2.82-7.94,7.23Z"/>
      <path class="cls-3" d="M19.42,524.85c-.63.83-1.07,1.55-1.06,1.98.09,2.56,3.88.26,6.39,2.7,4.49,4.39,14.67,2.73,19,1.72,3.76-.95,9.41-3.62,14.31-6.4H19.42Z"/>
      <path class="cls-16" d="M155.56,685.32c-4.05,1.71-11.47,7.62-14.32,6.73-2.46-.77.06-7.94,1.89-12.72,2.38-6.25.78-12.25-4.92-21.24-2.71-4.27-5.46-7.93-7.15-9.77-3.97-4.32-8.17-6.57-18.66-6.52-3.52.03-6.52.17-6.67.32-.15.18.75,1.05,2.01,1.96,3.48,2.53,6.12,5.96,14.1,18.26,6.36,9.8,6.57,10.35,7.61,18.19,1.04,7.7.95,9.92-.65,15.99-.85,3.28-.59,13.94.37,16.14,1.74,3.91,2.4,4.93,3.6,5.74,1.74,1.17-.37,3.04,3.39,1.27l2.49-2.36c5.23-1.01,7.68-3.32,12.23-8.51,1.64-1.89,6.88-7.75,10.76-13.52,3.75-5.57,6.18-11.07,5.56-11.95-.45-.66-.81-.78-2.34-.63-3.49.32-6.39,1.41-9.29,2.63Z"/>
      <path class="cls-16" d="M739.67,644.21c-3.76.03-6.16-3.89-12.98,2.6-6.02,5.72-11.19,12.75-14.18,17.46-3.23,5.08-9.23,13.73-6.53,20.4,1.91,4.72,2.57,8.4,1.39,9.57-2.05,2.04-23.13-17.66-27.54-15.28-2.84,1.53,5.57,15.73,7.67,20.06.78,1.65,2.85,4.87,4.56,7.13,3.72,4.96,6.23,10.21,13.63,11.94,6.88,1.61,3.55,1.51,8.66,1.76.69.03,1.71-.33,2.46-.81,1.17-.78,1.8-1.83,3.55-5.71.99-2.19,1.25-12.86.41-16.14-1.55-6.07-1.64-8.3-.58-16.05,1.09-8.17,1.33-8.71,11.03-23.22,4.88-7.3,7.89-11.08,9.99-12.55.87-.57,1.56-1.08,1.56-1.14,0-.03-1.41-.06-3.1-.03Z"/>
      <path class="cls-16" d="M635.07,767.58c.2-4.66-.56-8.36-2.65-10.26-2.23-2.03-5.07-4.57-6.39-5.54-3.63-2.65-7.84-6.05-10.15-8.19-1.14-1.05-5.05-4.03-6.25-4.82-2.07-1.33-2.31-1.38-3.61-1-1.32.39-1.44.57-2.08,2.73-1.54,5.5.83,14.64,3.25,26.72,1.28,6.4,2.03,9.11,4.9,10.96,1.87,1.21,1.25,1.82,4.13,3.68.6.39,2.55,1.03,4.36,1.42,4.15.91,7.96.79,10.1-.32,1.53-.78,4.99-4.23,6.98-6.93,1.14-1.59,2.29-5.02,2.29-6.91,0-.66-4.97.64-4.88-1.56Z"/>
      <path class="cls-16" d="M774.77,559.26c-1.87,1.67-5.68,7.32-7.91,13.64-2.3,6.5-7.48,16.04-5.89,24.29.89,4.59,7.76,9.88,6.59,12.16-1.18,2.25-3.37.86-7.4-1.16-5.14-2.62-7.52-4.13-15.85-5.09-3.35-.39-5.02,1.35-3.25,4.63,2.76,5.2,9.98,12.16,16.46,16.4,3.27,2.17,11.92,9.65,20.47,8.19,1.89-.32,1.66,2.04,4.27,2.75l-1.27-2.11c2.56-.66.95-3.1,2.06-5.2.69-1.26.81-2.1.76-5.08-.05-4.66-.98-8.15-4.01-14.82-3.69-8.18-4.4-10.97-5.09-20.02-.33-4.33-.32-6.22,0-7.81.48-2.37,4.37-13.07,5.61-15.5.87-1.74,8.42-8.64,8.42-9.33,0-.21.09-2.31-.39-2.22-6.94,1.43-11.46,4.38-13.59,6.28Z"/>
      <path class="cls-16" d="M805.5,495.7c-1.35-5.65-.55-18.75,1.78-29.78.85-4.11,1.24-5.17,2.5-7.06.81-1.2,1.43-4.46,1.27-4.42-4.53,1.21-10.11,5.76-12.69,8.28-2.65,2.59-3.54,15.26-4.17,18.84-1.82,9.98-1.36,17.5,1.69,22.56,1.58,2.62,4.51,5.05,4.81,5.65.84,1.56.67,4.03-1.09,4.45-4.66,1.1-22.12-2.73-24.29-.23-1.45,1.67-1.43,2.5.2,4.75,3.11,4.26,32,22.81,42.75,16.6,3.84-2.22.93-.7,5.43-1.97,2.11-.6-4.18-16.22-7.21-19.59-6.03-6.68-9.72-12.75-10.98-18.07Z"/>
      <path class="cls-12" d="M544.98,814.58c.45-1.35.42-2.07.42-3.7l-.42,3.7Z"/>
      <path class="cls-12" d="M544.63,817.67l.35-3.09c-.19.57-.49,1.29-.89,2.22l.54.88Z"/>
      <path class="cls-16" d="M536.97,796.51c-3.42-5.82-8.27-12.3-10.79-16.51-3.69-6.17-5.44-9.63-7.6-10.74-2.34-1.2-3.36-.3-4.41,2.07-1.33,3.03-2.2,14.82-4.33,24.46-1.89,8.57-.56,15.33,2.82,18.2,2.09,1.78,7.61,7.43,11.33,9.48.93.51,2.52,1.38,3.54,1.99,4.87,2.8,6.73,3.13,9.62,1.66h.03c1.74-.9,3.55-2.97,4.64-5.37,1.03-2.23,1.75-3.77,2.27-4.96l-4.76-7.74c1.03-5.48-.26-8.97-2.36-12.54Z"/>
      <path class="cls-16" d="M433.2,795.72c-.66-1.9-2.78-5.1-4.25-5.38-3.49-.66-6.83,3.84-10.05,13.51-2.65,7.87-6.17,8.74-10.31,2.48-1.95-2.92-6.45-7.81-9.58-9.26-1.08-.51-9.63-2.09-11.07-2.25-3.63-.4-5.53-.93-11.93-1.36-4.53-.3-11.9,5.67-13.01,6.3l-4.45,2.7,1.41.27c.75.15,2.01.15,2.76.03,2.16-.36,13.98,4.01,20.32,5.43,6.19,1.39,8.02,1.74,12.43,4.99,3.63,2.68,8.58,8.87,10.89,12.36,3.84,5.68,8.34,10.94,10.32,12.26,1.23.78,9.03.44,10.38.51.21,0,.53.3,1.83,0l.91-.54c2.98-.72,4.27-1.38,6.35-3.27,1.79-1.65-4.99-2.69-3.38-5.23,6.9-10.85,2.71-26.95.42-33.55Z"/>
    </g>
    <path class="cls-16" d="M696.87,340.79v1.28h-96.23v57.73h-116.75v64.15H192.65v61.59h-89.29c42.2,136.73,169.52,236.09,320.1,236.09,185.03,0,335.03-150,335.03-335.03,0-29.71-4.09-58.41-11.38-85.81h-50.25Z"/>
    <g>
      <path class="cls-2" d="M16.12,410.82s32.18.8,43.3,9.44c11.12,8.64,33.4,5.87,45.12,2.08l56.21,152.98,8.42,40.37s-38.38,14.96-49.09,42.75l-24.78-16.92s-26.68-4.45-27.91-6.67c-1.24-2.22-9.82-13.08-9.82-13.08,0,0,16.74-15.57,18.71-25.45,1.98-9.88-13.34-47.18-13.34-47.18,0,0-28.41-4.2-30.38-6.17-1.98-1.98-10.51-5.02-11.8-10.54-1.29-5.52-2.03-16.38,3.4-19.84,5.43-3.46,16.8-2.72,20.01-16.55,3.21-13.83,3.12-30.63.45-35.08-2.67-4.45-31.08-21.74-34.29-24.7-3.21-2.96-.25-21.24-.25-21.24l6.05-4.19Z"/>
      <path class="cls-15" d="M70.76,512.87c-.54-2.24-3.37-4.01-10.1-3.97-4.61.03-10.59.91-10.91-1.54-.17-1.35,3.02-3.78,6.42-7.17,5.42-5.4,5.78-6.26,4.06-18.65-1.09-7.88-2.66-15.33-4.76-18.55-1.35-2.11-4.27-4.75-7.3-7.12-3.12-2.44-13.81-10.02-14.26-9.57-.06.09.63,1.5,1.56,3.16,3.24,5.71,5.69,18.64,6,31.77.11,5.14.02,6.52-.61,9.25-1.27,5.32-3.72,15.76-9.77,22.43-3.04,3.36-12.78,11.74-12.72,13.94.09,2.55,3.88.26,6.39,2.7,4.49,4.39,14.67,2.73,19,1.72,6.74-1.7,19.66-8.93,23.22-12.44,3.49-3.45,4.18-4.32,3.79-5.95Z"/>
      <path class="cls-15" d="M98.86,603.24c-2.76-.54-4.84-.25-10.22,1.43-3.01.93-6.59,2.21-7.49,1.52-1.53-1.14-1.04-2.8.67-5.44,3.95-6.13,6.89-8.87,7.32-13.64.46-5.12-4.04-14.94-6.88-22.11-3.96-10-8.67-15.86-11.49-17.33-5.39-2.82-21.61-3.9-22.03-3.48-.09.09.69,1.11,1.68,2.26,2.34,2.68,3.87,5.56,5.73,10.77.81,2.28,1.83,4.87,2.28,5.74,1.23,2.41,5.06,13.11,5.57,15.48.33,1.59,3.63,6.37,3.29,10.7-.7,9.04,2.67,9.72-1.04,17.89-3.04,6.67-8.63,10.1-8.69,14.76-.07,4.27.25,6.23,3.25,9.06l2.61,3.26,2.93-4.33c2.68,2.3,7.24,1.7,9.64.53,3.55-1.74,7.8-4.14,12.77-8.67,5.24-4.78,9.55-10.62,10.76-13.45,1.48-3.57,1.36-4.57-.66-4.93Z"/>
      <path class="cls-2" d="M32.24,525.45c1.88,7.69,13.01,2.7,25.12-6.73.67-.52.33-1.59-.51-1.65-19.16-1.2-26.09,2.33-24.62,8.37Z"/>
      <path class="cls-2" d="M67.04,624.81c3.79,6.95,13.26-.72,22.57-12.93.51-.67-.08-1.63-.91-1.46-18.83,3.74-24.63,8.94-21.65,14.39Z"/>
      <path class="cls-2" d="M736.35,183.27c-12.28,27.61-35.15,39.08-59.1,47.41l28.2,98.28,36.54,95.43c15.56-5.95,46.16,3.96,69.87,9.4,23.71,5.43,30.43,2.32,30.43,2.32l-2.27-21.26-26.02-21.66-6.92-39.93,21.74-31.62s-.19-10.87-4.7-13.17c-4.52-2.31-31.14-8.06-38.44-30.63-7.3-22.57-8.89-29.57-7.25-32.57,1.65-3,15.48-29.02,3.62-35.6-11.86-6.59-34.58-6.26-34.58-6.26l-11.12-20.15Z"/>
      <path class="cls-15" d="M840.02,414.85l-26.02-21.66-6.92-39.93,21.74-31.62s-.19-10.87-4.7-13.17c-4.52-2.31-31.14-8.06-38.44-30.63-7.3-22.57-8.89-29.57-7.25-32.57,1.65-3,15.48-29.01,3.62-35.6-11.86-6.59-34.58-6.26-34.58-6.26l-11.13-20.15c-8.06,18.13-20.73,29.24-35.23,37.13,41.88,56.98,66.68,127.3,66.7,203.43,14.15,2.18,30.24,6.8,44.05,9.96,13.81,3.17,21.86,3.43,26.17,3.1,2.37-.18,4.11-2.22,3.85-4.59l-1.86-17.45Z"/>
      <path class="cls-2" d="M783.9,282.6c-1.23-2.41-5.09-13.11-5.57-15.51-.42-1.92-.32-5.86.22-10.22.12-.99.06-1.59-.18-1.59-.21,0-3.29-1.61-4.41-.47-2.29,2.28-5.46,9.59-6.39,13.52-1.73,7.27,4.5,18.98,6.48,24.12,0,0,4.7,13.27,7.89,15.7,2.77,2.11,12.15-.4,13.42,1.93,2.67,4.88-24.11,16.62-21.94,23.61.95,3.06,7.58,2.33,9.15,2.51,1.98.21,10.76-.05,17.07-.52,5.89-.44,13.28-1.94,17.13-5.28,2.47-2.15,3.1-.79,4.52-3.8.9-1.86,8.11-6.77,8.08-7.58-.06-3.04-3.18-6.59-7.11-8.12-4.42-1.75-15.23-7.68-18.62-10.24-5.43-4.06-14.79-4.75-17.46-12.3-.81-2.29-1.86-4.87-2.28-5.74Z"/>
      <path class="cls-2" d="M727.77,199.6c-.27.69-.49,1.4-.58,2.13-.34,2.91,1.43,4.63,3.27,6.51,2.14,2.18,4.17,4.5,6.29,6.71,2.49,2.59,6.75,6.39,14.98,6.08,4.61-.17,6.41-.66,6.98.58.85,1.86-.31,3.43-6.5,8.44-5.72,4.59-12.18,9.02-11.42,13.48.4,2.32,9.78,2.03,14.68.8,11.09-2.78,22.08-8.67,24.76-15.43,2.2-5.54,7.02-.07,7.36-2.72.58-4.6-.41-7.21-4.02-10.55-4.5-4.18-5.58-4.7-12.13-5.97-1.65-.33-4.21-.7-5.65-.85-3.97-.4-12.98-2.6-15.26-3.74-2.15-1.08-4.15-2.44-5.93-4.05-1.15-1.05-1.28-1.72-2.76-1.08-1.17.5-2.29,1.25-3.36,1.95-1.48-1.17-2.81-2.53-3.96-4.03-.93-1.22-2.11-2.7-3.62-2.43-1.21.21-1.9,1.46-2.43,2.57-.25.52-.5,1.05-.71,1.59Z"/>
      <path class="cls-2" d="M838.46,424.67c.48-.9.48-1.32-.03-3.55-1.11-4.81-3.21-7.1-12.19-13.27-3.12-2.14-6.97-5.24-9.85-7.91-2.31-2.11-5.79-7.46-7.05-10.86-1.17-3.07-2.96-12.18-3.73-18.94-.8-7.09-.71-8.66.8-11.54.39-.81.72-1.53.72-1.65,0-.42-2.17-1.32-4.39.72,0,0-4.78,4.63-6.07,10.01-.96,4.02-.23,6.77.16,12.34.16,2.34,2.07,19.51,5.7,22.78,4.08,3.68,8.94,5,10.17,7.32,1.15,2.19-1.3,3.97-6.02,4.59-8.72,1.13-20.24,3.48-21.32,6.2-1.46,3.7,11.57,6.45,29.99,8.76,2.43.3,16.76,1.01,19.2-1.38l5.5-.42c1.44-.45-2.41-1.64-1.6-3.2Z"/>
      <path class="cls-15" d="M60.65,420.06s-.09-.05-.13-.08c-2.42-1.5-8.52-4.31-11.45-5.22-1.71-.55-3.03-1.04-4.08-1.53-10.94-2.9-24.91-4.14-24.91-4.14l-10,5.92s-1.05,6.65-1.2,12.58c1.21-.07,2.61-.03,4.13.96,12.53,8.24,35.92,3.68,44.17-.19,4.16-1.95,5.12-4.15,5.03-5.53-.03-.99-.36-1.8-.84-2.26-.15-.14-.4-.32-.72-.52Z"/>
      <path class="cls-2" d="M44.55,419.58c-18.67-6.01-26.43-4.26-26.48,2.09-.07,8.09,12.2,5.95,26.57-.33.79-.35.73-1.49-.09-1.76Z"/>
    </g>
    <path class="cls-3" d="M828.14,399.26c-1.64-1.12-3.19-2.18-4.58-3.22-3.98-2.98-6.69-7.35-7.63-12.29l-2.98-22.79c-.39-5.27,1.11-10.18,4.2-14.08,1.07-1.36,2.3-2.78,3.59-4.29,2.03-2.37,4.12-4.85,6-7.44h-13.9c-.12.14-.2.25-.32.39-1.3,1.51-2.64,3.07-3.86,4.62-4.78,6.03-7.1,13.61-6.53,21.34.09.9,1.8,13.51,1.8,13.51l1.22,9.84c1.58,8.54,5.77,15.27,11.93,19.87,1.58,1.18,3.28,2.35,4.92,3.47,8.28,5.68,13.7,9.83,13.7,15.56,0,5.73-5.44,9.87-13.73,15.53-1.64,1.12-3.34,2.28-4.93,3.46-6.17,4.59-10.38,11.31-11.83,18.92-.14.9-1.76,13.53-1.76,13.53l-1.37,9.8c-.68,8.66,1.62,16.24,6.38,22.28,1.22,1.55,2.56,3.12,3.85,4.63,6.53,7.63,10.69,13.04,9.2,18.58-1.49,5.53-7.81,8.13-17.29,11.45-1.88.66-3.82,1.34-5.66,2.07-7.15,2.83-12.95,8.24-16.33,15.22-.37.83-5.19,12.6-5.19,12.6l-3.87,9.13c-2.9,8.19-2.64,16.11.4,23.17.78,1.81,1.67,3.67,2.52,5.47,4.33,9.06,6.95,15.37,4.08,20.33-2.87,4.96-9.65,5.83-19.66,6.59-1.98.15-4.04.3-6,.53-7.64.89-14.64,4.6-19.71,10.47-.57.7-8.29,10.84-8.29,10.84l-6.08,7.8c-4.92,7.16-6.72,14.88-5.61,22.49.28,1.96.66,3.98,1.02,5.93,1.84,9.87,2.74,16.64-1.32,20.69-1.49,1.49-3.56,2.86-8.54,2.85-3.79,0-8.04-.81-12.15-1.58-1.96-.37-3.98-.75-5.93-1.04-1.45-.21-2.94-.32-4.4-.33-6.19,0-12.19,1.84-17.34,5.34-.74.53-10.79,8.32-10.79,8.32l-7.91,5.97c-6.6,5.64-10.34,12.63-11.24,20.27-.23,1.96-.39,4.01-.55,6-.78,10.01-1.66,16.78-6.63,19.64-1.46.84-2.88,1.22-4.58,1.22-4.64,0-10.54-2.84-15.74-5.34-1.79-.86-3.65-1.75-5.46-2.54-3.83-1.66-7.9-2.5-12.1-2.51-3.48,0-6.91.57-10.21,1.72-.85.32-12.6,5.25-12.6,5.25l-9.17,3.71c-7.84,3.74-13.25,9.52-16.1,16.67-.73,1.83-1.42,3.78-2.08,5.65-3.34,9.47-5.95,15.78-11.49,17.26-.82.22-1.59.32-2.36.32-5.07,0-10.98-5.09-16.2-9.57-1.51-1.3-3.07-2.64-4.62-3.87-5.37-4.26-12.14-6.6-19.04-6.61-.76,0-1.54.03-2.3.08-.9.09-13.51,1.8-13.51,1.8l-9.83,1.22c-8.54,1.58-15.27,5.77-19.87,11.93-1.18,1.58-2.35,3.28-3.47,4.92-5.68,8.28-9.83,13.7-15.56,13.7-5.73,0-9.87-5.44-15.53-13.73-1.12-1.65-2.28-3.35-3.46-4.93-4.59-6.17-11.31-10.38-18.92-11.83-.9-.14-13.53-1.76-13.53-1.76l-9.8-1.37c-1.69-.15-2.46-.18-3.22-.19-6.91,0-13.68,2.32-19.06,6.57-1.55,1.22-3.12,2.56-4.63,3.86-5.22,4.47-11.15,9.54-16.22,9.53-.77,0-1.54-.11-2.36-.33-5.54-1.49-8.13-7.81-11.45-17.28-.66-1.88-1.34-3.82-2.07-5.66-2.83-7.15-8.24-12.95-15.22-16.33-.83-.37-12.6-5.19-12.6-5.19l-9.13-3.86c-4.16-1.49-7.59-2.08-11.07-2.08-4.2,0-8.27.83-12.11,2.48-1.81.78-3.67,1.67-5.47,2.52-5.21,2.49-11.11,5.31-15.75,5.31-1.7,0-3.11-.38-4.57-1.23-4.96-2.87-5.83-9.65-6.58-19.66-.15-1.99-.31-4.04-.53-6-.89-7.64-4.6-14.64-10.47-19.71-.71-.57-10.85-8.29-10.85-8.29l-7.8-6.08c-5.9-4.06-11.89-5.92-18.08-5.93-1.47,0-2.95.11-4.41.32-1.95.28-3.98.66-5.93,1.02-4.11.77-8.37,1.56-12.15,1.55-4.99,0-7.05-1.38-8.54-2.87-4.05-4.06-3.13-10.83-1.27-20.69.37-1.96.75-3.98,1.04-5.93,1.12-7.61-.66-15.33-5.02-21.75-.53-.74-8.32-10.8-8.32-10.8l-5.97-7.9c-5.64-6.6-12.63-10.34-20.27-11.24-1.96-.23-4.01-.39-6-.54-10.01-.78-16.78-1.66-19.64-6.63-2.86-4.97-.22-11.27,4.13-20.32.86-1.79,1.75-3.65,2.54-5.46,3.05-7.06,3.33-14.98.79-22.3-.32-.85-5.24-12.59-5.24-12.59l-3.72-9.18c-3.74-7.84-9.52-13.26-16.67-16.1-1.83-.73-3.78-1.42-5.65-2.08-9.46-3.34-15.78-5.95-17.26-11.49-.41-1.55-.29-3.11.11-4.69h-11.05c-.29,2.38-.21,4.85.49,7.47,3.06,11.47,14.24,15.41,24.1,18.9,1.87.66,3.64,1.29,5.25,1.92,4.62,1.85,8.36,5.36,10.55,9.91l8.78,21.26c1.74,4.98,1.57,10.11-.41,14.67-.69,1.59-1.5,3.28-2.36,5.07-4.54,9.43-9.68,20.12-3.75,30.41,5.92,10.29,17.74,11.21,28.17,12.02,1.98.15,3.85.3,5.57.51,4.94.58,9.46,2.99,12.75,6.81l13.98,18.27c2.97,4.37,4.13,9.37,3.4,14.29-.25,1.72-.6,3.56-.97,5.5-1.94,10.29-4.14,21.94,4.24,30.35,4.11,4.12,9.26,6.04,16.18,6.04,4.75.46,9.74-.92,14.11-1.73,1.96-.37,3.83-.71,5.56-.96,4.88-.74,9.95.48,14.07,3.29l18.24,14.03c3.99,3.43,6.41,7.97,6.98,12.91.2,1.72.34,3.6.49,5.57.79,10.43,1.69,22.25,11.95,28.21,3.11,1.79,6.38,2.67,9.98,2.67h.04c7.08,0,14.15-3.38,20.38-6.36,1.79-.86,3.49-1.67,5.09-2.35,4.6-1.94,9.9-2.06,14.47-.45l21.23,8.81c4.74,2.28,8.25,6.03,10.09,10.66.64,1.62,1.26,3.39,1.91,5.25,3.46,9.88,7.38,21.08,18.84,24.16,1.72.46,3.47.7,5.18.71h.02c9.05,0,16.58-6.44,23.23-12.12,1.51-1.29,2.95-2.51,4.31-3.59,3.47-2.74,7.86-4.25,12.34-4.25.5,0,.99.02,1.49.06l22.81,3.02c5.18.99,9.54,3.71,12.5,7.7,1.03,1.39,2.09,2.94,3.21,4.58,5.9,8.64,12.58,18.44,24.46,18.45h.03c11.86,0,18.56-9.78,24.48-18.4,1.12-1.63,2.18-3.18,3.22-4.57,2.97-3.98,7.33-6.69,12.29-7.62l22.8-2.99c.73-.06,1.23-.08,1.73-.08,4.5.01,8.87,1.54,12.34,4.28,1.35,1.08,2.78,2.29,4.27,3.58,6.64,5.71,14.17,12.18,23.26,12.19,1.79.21,3.41-.22,5.15-.69,11.47-3.05,15.42-14.24,18.91-24.11.66-1.86,1.29-3.64,1.93-5.24,1.85-4.63,5.36-8.37,9.9-10.55l21.25-8.78c5.14-1.82,10.09-1.56,14.68.41,1.59.69,3.29,1.51,5.09,2.37,9.42,4.52,21.21,9.05,30.38,3.74,10.29-5.91,11.21-17.74,12.02-28.18.15-1.97.3-3.86.5-5.57.59-4.95,3.01-9.47,6.83-12.74l18.25-13.99c3.55-2.41,7.64-3.46,11.45-3.61.95,0,1.91.07,2.87.22,1.67.24,3.51.59,5.45.96,4.39.82,9.36,1.76,14.16,1.77h.05c6.9,0,12.04-1.91,16.15-6.01,8.4-8.37,6.23-20.04,4.31-30.33-.36-1.94-.7-3.8-.95-5.51-.71-4.93.45-9.92,3.29-14.08l14.01-18.24c3.44-3.99,7.98-6.4,12.92-6.98,1.72-.2,3.59-.35,5.57-.5,10.44-.79,22.26-1.67,28.21-11.94,5.95-10.28.83-20.98-3.68-30.42-.85-1.78-1.67-3.48-2.35-5.07-1.96-4.59-2.12-9.72-.45-14.46l8.81-21.25c2.29-4.75,6.05-8.25,10.67-10.09,1.61-.64,3.38-1.26,5.24-1.91,9.88-3.46,21.08-7.38,24.16-18.84,3.09-11.46-4.62-20.47-11.42-28.42-1.29-1.51-2.51-2.94-3.58-4.3-3.08-3.92-4.57-8.83-4.19-13.85l3.03-22.8c.98-5.17,3.7-9.54,7.69-12.5,1.39-1.04,2.94-2.09,4.57-3.2,8.64-5.9,18.45-12.59,18.46-24.46.01-11.86-9.76-18.58-18.39-24.51Z"/>
    <path class="cls-2" d="M741.99,423.26c0-72.34-24.14-139.03-64.75-192.52L104.57,422.11c0,.38-.03.76-.03,1.15,0,72.34,24.14,139.03,64.75,192.52l572.67-191.37c0-.38.03-.76.03-1.14Z"/>
    <path class="cls-1" d="M423.85,95.97c-53.06-.09-103.17,12.49-147.48,34.9-13.93,7.05-26.76,16.26-37.08,27.98-13.85,15.72-21.04,32.5-19.77,48.11,2.51,30.97,41.43,62.14,115.91,15.27,74.48-46.87,230.98-56.07,294.59,70.3,0,0-40.6-23.47-100.01,5.44-16.28,7.92-49.8,26.36-78.67,86.62-13.66,28.51-25.94,30.55-38.92,29.29-14.19-1.37-28.38-19.86-37.13-81.45-8.75-61.59-20.05-70.27-30.96-70.6-10.91-.33-32.04,22.45-44.16,49.83,0,0-52.24-15.14-109.94-4.06,0,0-10.88-54.4-25.94-58.58-7.26-2.02-15.78,4.91-23.6,14.68-5.99,7.49-10.84,15.83-14.78,24.58-18.02,40.03-28.2,84.35-28.57,131.01-1.4,179.14,144.16,327.1,323.3,328.51,182.16,1.43,330.09-146.59,328.52-328.78-1.53-177.81-147.5-322.73-325.31-323.05ZM181.63,417.65c-11.04-.16-19.87-9.24-19.71-20.28.16-11.04,9.24-19.87,20.28-19.71,11.04.16,19.87,9.24,19.71,20.28-.16,11.04-9.24,19.87-20.28,19.71ZM288.57,419.17c-11.04-.16-19.87-9.24-19.71-20.28.16-11.04,9.24-19.87,20.28-19.71,11.04.16,19.87,9.24,19.71,20.28-.16,11.04-9.24,19.87-20.28,19.71Z"/>
    <path class="cls-4" d="M423.89,748.81c-.86,0-1.74,0-2.61-.01-43.69-.34-86.1-9.32-126.05-26.68-38.57-16.76-73.19-40.57-102.9-70.76-29.71-30.19-52.96-65.19-69.1-104.03-16.72-40.23-25.03-82.78-24.69-126.47.36-45.53,9.95-89.53,28.52-130.78,4.06-9.01,8.87-17.03,14.32-23.84,6.78-8.48,13.09-13.34,17.32-13.34.45,0,.87.06,1.29.17,1.15.32,7.32,3.17,15.39,27.89,4.53,13.88,7.27,27.47,7.3,27.61l.99,4.93,4.94-.95c13.89-2.67,28.68-4.02,43.96-4.02,36.92,0,64.86,7.95,65.14,8.03l4.25,1.23,1.79-4.05c12.2-27.56,32.3-47.5,39.9-47.5,3.76.11,7.78,1.38,12.28,9.82,5.66,10.62,10.35,29.4,14.33,57.41,8.14,57.3,21.55,84.91,42.18,86.91,2.08.2,3.91.3,5.61.3,16.24,0,27.87-9.82,38.9-32.85,26.77-55.86,56.99-75.52,77.4-85.45,19.25-9.37,38.47-14.11,57.12-14.11,24.44,0,39.38,8.35,39.53,8.44l14.58,8.31-7.53-14.98c-18.37-36.5-45.2-64.26-79.74-82.51-29.6-15.64-64.84-23.9-101.9-23.9-44.83,0-91.28,12.38-124.25,33.13-24.77,15.58-46.98,23.49-66.01,23.49-12.96,0-24.01-3.84-31.94-11.11-6.87-6.29-11.06-14.81-11.81-23.98-1.15-14.18,5.35-29.75,18.8-45.02,9.43-10.7,21.56-19.85,36.07-27.19,45.71-23.12,95.04-34.84,146.62-34.84h.59c177.54.32,323.22,144.99,324.75,322.49.75,87.48-32.73,169.85-94.29,231.94-29.92,30.18-64.83,53.88-103.75,70.44-40.29,17.15-83.12,25.84-127.29,25.84h-.01Z"/>
    <g class="cls-9">
      <path d="M749.94,399.4c4.64,38.49-.18,81.98-6.99,94.7-.59,1.1-2.12.89-2.01-.35,2.95-34.43-1.82-71.33-6.67-90.67-.3-1.18-2.05-.94-2.01.28.22,6.7.08,15.03.07,21.7-.28,233.2-202,315.04-306.53,314.92-64.85-.08-68.29,3.17-149.37-23.02-1.18-.38-1.9,1.28-.81,1.87,59.97,32.83,131.83,46.65,207.5,33.36,130.98-23.01,243.31-128.27,263.56-259.7,8.28-53.71,10.79-99.53-5.27-146.23l8.53,53.13Z"/>
    </g>
    <path class="cls-5" d="M828.14,399.26c-1.63-1.12-3.19-2.18-4.58-3.22-3.98-2.98-6.7-7.35-7.63-12.29l-2.98-22.79c-.39-5.27,1.11-10.18,4.2-14.08,1.07-1.36,2.3-2.78,3.59-4.29,6.81-7.94,14.54-16.93,11.49-28.39-3.06-11.47-14.24-15.41-24.1-18.9-1.87-.66-3.64-1.29-5.25-1.92-4.62-1.84-8.36-5.36-10.55-9.89l-8.78-21.27c-1.74-4.98-1.57-10.11.41-14.67.69-1.59,1.5-3.3,2.36-5.08,4.53-9.43,9.67-20.12,3.75-30.39-5.93-10.3-17.76-11.22-28.21-12.02-1.96-.16-3.83-.3-5.54-.51-4.95-.59-9.48-3.01-12.75-6.83l-13.98-18.25c-2.97-4.36-4.13-9.36-3.4-14.29.25-1.71.6-3.56.97-5.5,1.94-10.28,4.14-21.94-4.25-30.34-4.11-4.13-9.23-5.6-16.23-6.05-4.78,0-9.74.93-14.11,1.74-1.94.37-3.79.71-5.49.96-5.03.75-9.96-.47-14.09-3.3l-18.23-14.01c-3.99-3.44-6.41-7.98-6.98-12.92-.2-1.72-.34-3.59-.49-5.56-.79-10.44-1.68-22.26-11.95-28.22-3.1-1.79-6.37-2.67-9.99-2.68h-.02c-7.09,0-14.16,3.38-20.41,6.37-1.78.85-3.48,1.65-5.07,2.34-4.47,1.94-9.68,2.13-14.45.47l-21.24-8.83c-4.75-2.28-8.26-6.04-10.09-10.67-.64-1.6-1.26-3.38-1.91-5.25-3.46-9.87-7.39-21.06-18.85-24.15-1.73-.46-3.65-.38-5.18-.7-9.07,0-16.6,6.44-23.25,12.12-1.5,1.3-2.93,2.51-4.29,3.58-3.49,2.75-7.84,4.47-12.35,4.25-.52,0-1.05-.02-1.58-.07l-22.71-3.01c-5.19-.99-9.55-3.71-12.51-7.7-1.03-1.39-2.09-2.94-3.21-4.58C442.32,9.8,435.63.01,423.77,0h-.03c-11.85,0-18.55,9.77-24.47,18.39-1.12,1.64-2.19,3.19-3.23,4.58-2.98,3.99-7.34,6.7-12.29,7.63l-24.53,3.06c-4.5,0-8.88-1.53-12.34-4.28-1.35-1.08-2.79-2.3-4.29-3.6-7.88-6.78-17.61-14.36-28.39-11.49-11.47,3.06-15.42,14.24-18.9,24.11-.66,1.86-1.29,3.64-1.93,5.24-1.83,4.62-5.34,8.36-9.88,10.56l-21.26,8.77c-5.15,1.81-10.15,1.57-14.68-.41-1.59-.68-3.28-1.5-5.06-2.35-9.41-4.53-21.14-9.09-30.41-3.76-10.29,5.92-11.21,17.76-12.02,28.19-.15,1.97-.3,3.85-.5,5.56-.59,4.95-3.01,9.47-6.83,12.75l-18.25,13.99c-4.43,3-9.58,4.04-14.27,3.4-1.73-.25-3.58-.6-5.54-.97-4.38-.83-9.34-1.76-14.12-1.77h-.05c-6.9,0-12.04,1.91-16.15,6.01-8.4,8.39-6.23,20.05-4.31,30.34.36,1.94.7,3.79.95,5.5.71,4.93-.45,9.92-3.29,14.08l-14.02,18.24c-3.43,3.99-7.96,6.4-12.91,6.98-1.72.2-3.59.35-5.57.5-10.44.79-22.26,1.67-28.21,11.94-5.94,10.27-.83,20.97,3.67,30.41.86,1.79,1.67,3.5,2.35,5.09,1.96,4.55,2.13,9.68.46,14.45l-3.97,9.38h0s-4.86,11.86-4.86,11.86c-2.3,4.75-6.05,8.25-10.67,10.08-1.6.64-3.37,1.26-5.24,1.91-9.88,3.47-21.08,7.39-24.16,18.85-3.09,11.47,4.62,20.48,11.43,28.44,1.29,1.51,2.51,2.93,3.58,4.29,3.08,3.9,4.57,8.81,4.19,13.85l-3.02,22.8c-.99,5.17-3.7,9.53-7.7,12.49-1.39,1.03-2.93,2.09-4.57,3.2C9.81,404.2,0,410.9,0,422.76c-.02,11.87,9.77,18.59,18.4,24.51,1.63,1.12,3.18,2.18,4.56,3.21,3.99,2.98,6.69,7.34,7.63,12.29l2.98,22.8c.39,5.26-1.11,10.17-4.19,14.07-1.07,1.36-2.3,2.78-3.59,4.29-6.82,7.94-14.56,16.93-11.5,28.4,3.06,11.47,14.24,15.41,24.1,18.9,1.87.66,3.64,1.29,5.25,1.92,4.62,1.86,8.37,5.36,10.55,9.91l8.78,21.26c1.74,4.98,1.57,10.11-.41,14.67-.69,1.59-1.5,3.28-2.36,5.06-4.54,9.43-9.68,20.12-3.75,30.41,5.92,10.29,17.74,11.21,28.17,12.02,1.98.15,3.85.3,5.57.51,4.94.58,9.46,2.99,12.75,6.81l13.98,18.27c2.97,4.37,4.13,9.37,3.4,14.29-.25,1.72-.6,3.56-.97,5.5-1.94,10.29-4.14,21.94,4.24,30.35,4.11,4.12,9.26,6.04,16.18,6.04,4.75.46,9.74-.92,14.11-1.72,1.96-.37,3.83-.71,5.56-.96,4.88-.74,9.95.48,14.07,3.29l18.24,14.03c3.99,3.43,6.41,7.97,6.98,12.91.2,1.71.34,3.6.49,5.57.79,10.43,1.68,22.25,11.95,28.21,3.11,1.79,6.38,2.67,9.97,2.67h.04c7.08,0,14.15-3.38,20.38-6.36,1.79-.86,3.49-1.67,5.09-2.35,4.6-1.94,9.9-2.06,14.47-.45l21.23,8.81c4.74,2.28,8.25,6.03,10.09,10.66.64,1.62,1.26,3.39,1.91,5.25,3.46,9.88,7.38,21.08,18.84,24.16,1.72.46,3.47.7,5.18.71h.01c9.05,0,16.58-6.44,23.23-12.12,1.51-1.29,2.95-2.51,4.31-3.59,3.47-2.74,7.86-4.25,12.34-4.25.5,0,.99.02,1.5.06l22.81,3.02c5.18.99,9.54,3.71,12.5,7.7,1.03,1.39,2.09,2.94,3.21,4.58,5.9,8.64,12.58,18.44,24.46,18.45h.03c11.85,0,18.56-9.78,24.48-18.4,1.12-1.63,2.18-3.18,3.22-4.57,2.97-3.98,7.33-6.69,12.29-7.62l22.8-2.99c.73-.06,1.23-.08,1.73-.08,4.5.01,8.87,1.54,12.34,4.28,1.35,1.08,2.78,2.29,4.27,3.58,6.64,5.71,14.17,12.18,23.26,12.19,1.79.21,3.42-.22,5.15-.69,11.47-3.05,15.42-14.24,18.91-24.11.66-1.87,1.29-3.64,1.93-5.24,1.85-4.63,5.36-8.37,9.9-10.55l21.25-8.78c5.14-1.81,10.1-1.55,14.68.41,1.6.69,3.3,1.5,5.09,2.37,9.42,4.52,21.21,9.05,30.38,3.74,10.29-5.91,11.21-17.74,12.02-28.18.16-1.97.3-3.86.5-5.57.59-4.94,3.01-9.47,6.83-12.74l18.26-13.99c3.55-2.41,7.64-3.46,11.45-3.61.95,0,1.91.07,2.87.22,1.67.24,3.51.59,5.45.96,4.39.82,9.36,1.75,14.16,1.77h.06c6.9,0,12.03-1.91,16.15-6.01,8.4-8.37,6.23-20.04,4.31-30.33-.36-1.94-.7-3.8-.95-5.51-.71-4.93.45-9.92,3.3-14.08l14.01-18.24c3.44-3.99,7.98-6.4,12.92-6.98,1.72-.2,3.59-.35,5.57-.5,10.44-.79,22.26-1.68,28.21-11.94,5.95-10.28.83-20.98-3.68-30.42-.85-1.78-1.66-3.48-2.35-5.07-1.96-4.59-2.12-9.72-.45-14.46l8.81-21.25c2.29-4.75,6.05-8.26,10.67-10.09,1.61-.64,3.38-1.26,5.24-1.91,9.88-3.46,21.08-7.38,24.16-18.84,3.09-11.46-4.62-20.47-11.42-28.42-1.29-1.5-2.51-2.94-3.58-4.3-3.08-3.92-4.57-8.83-4.19-13.85l3.03-22.8c.98-5.18,3.7-9.54,7.69-12.5,1.39-1.04,2.94-2.09,4.57-3.2,8.64-5.9,18.44-12.59,18.46-24.46.02-11.86-9.76-18.58-18.39-24.51ZM821.98,439.28c-1.64,1.12-3.34,2.28-4.93,3.46-6.17,4.59-10.38,11.31-11.83,18.92-.14.9-1.76,13.53-1.76,13.53l-1.37,9.8c-.68,8.66,1.62,16.24,6.38,22.28,1.22,1.55,2.56,3.12,3.86,4.63,6.53,7.63,10.69,13.04,9.2,18.58-1.49,5.54-7.81,8.13-17.29,11.45-1.88.66-3.82,1.34-5.66,2.07-7.15,2.83-12.95,8.24-16.33,15.22-.37.83-5.19,12.6-5.19,12.6l-3.87,9.13c-2.9,8.19-2.64,16.11.4,23.17.78,1.81,1.67,3.67,2.52,5.47,4.33,9.06,6.95,15.37,4.08,20.33-2.87,4.96-9.65,5.83-19.66,6.58-1.98.15-4.04.31-6,.53-7.64.89-14.64,4.6-19.71,10.47-.57.7-8.29,10.84-8.29,10.84l-6.08,7.8c-4.92,7.16-6.72,14.88-5.61,22.49.28,1.96.66,3.98,1.03,5.93,1.84,9.87,2.74,16.64-1.32,20.69-1.49,1.49-3.56,2.86-8.54,2.85-3.79,0-8.04-.81-12.15-1.58-1.96-.37-3.98-.75-5.93-1.04-1.45-.21-2.94-.32-4.41-.33-6.19,0-12.19,1.84-17.34,5.34-.74.53-10.8,8.32-10.8,8.32l-7.91,5.97c-6.6,5.64-10.34,12.63-11.24,20.27-.23,1.96-.39,4.01-.55,6-.78,10.01-1.66,16.78-6.63,19.64-1.46.84-2.88,1.22-4.58,1.22-4.64,0-10.54-2.84-15.74-5.34-1.79-.86-3.65-1.75-5.46-2.54-3.83-1.66-7.9-2.5-12.1-2.51-3.48,0-6.91.57-10.21,1.72-.85.32-12.6,5.25-12.6,5.25l-9.17,3.71c-7.84,3.74-13.26,9.52-16.1,16.67-.73,1.83-1.42,3.78-2.08,5.65-3.34,9.47-5.95,15.78-11.49,17.26-.82.22-1.59.32-2.36.32-5.07,0-10.98-5.09-16.2-9.57-1.51-1.3-3.07-2.64-4.62-3.87-5.37-4.26-12.14-6.61-19.04-6.61-.76,0-1.54.03-2.3.08-.9.09-13.51,1.8-13.51,1.8l-9.84,1.22c-8.54,1.58-15.27,5.77-19.87,11.93-1.18,1.58-2.35,3.28-3.47,4.92-5.68,8.28-9.83,13.7-15.56,13.7s-9.87-5.44-15.53-13.73c-1.12-1.64-2.28-3.34-3.46-4.93-4.59-6.17-11.31-10.38-18.92-11.83-.9-.14-13.53-1.76-13.53-1.76l-9.8-1.37c-1.69-.16-2.46-.19-3.22-.19-6.91,0-13.68,2.32-19.06,6.57-1.55,1.22-3.12,2.56-4.63,3.86-5.22,4.47-11.15,9.54-16.22,9.53-.77,0-1.54-.11-2.36-.33-5.54-1.49-8.13-7.81-11.45-17.28-.66-1.88-1.34-3.82-2.07-5.66-2.83-7.15-8.24-12.95-15.22-16.33-.83-.37-12.6-5.19-12.6-5.19l-9.13-3.86c-4.16-1.49-7.59-2.07-11.07-2.08-4.2,0-8.27.83-12.11,2.48-1.81.78-3.67,1.67-5.47,2.53-5.21,2.49-11.11,5.31-15.75,5.31-1.7,0-3.11-.38-4.57-1.23-4.96-2.87-5.83-9.65-6.58-19.66-.15-1.98-.31-4.04-.53-6-.89-7.64-4.6-14.64-10.47-19.71-.7-.57-10.85-8.29-10.85-8.29l-7.8-6.08c-5.9-4.06-11.89-5.92-18.08-5.93-1.47,0-2.95.11-4.41.32-1.96.28-3.98.66-5.93,1.02-4.11.77-8.37,1.56-12.15,1.55-4.99,0-7.05-1.38-8.54-2.87-4.05-4.06-3.13-10.83-1.27-20.69.37-1.96.75-3.98,1.04-5.93,1.12-7.61-.66-15.33-5.01-21.75-.53-.74-8.32-10.8-8.32-10.8l-5.97-7.9c-5.64-6.6-12.63-10.34-20.27-11.24-1.96-.23-4.01-.39-6-.55-10.01-.78-16.78-1.66-19.64-6.63-2.86-4.97-.22-11.27,4.13-20.32.86-1.79,1.75-3.65,2.54-5.46,3.05-7.06,3.33-14.98.79-22.3-.32-.85-5.24-12.59-5.24-12.59l-3.72-9.18c-3.74-7.84-9.52-13.26-16.67-16.1-1.83-.73-3.78-1.42-5.65-2.08-9.47-3.34-15.78-5.95-17.26-11.49-1.48-5.54,2.7-10.94,9.25-18.56,1.3-1.51,2.64-3.07,3.87-4.62,4.78-6.03,7.1-13.61,6.53-21.34-.09-.9-1.8-13.51-1.8-13.51l-1.22-9.83c-1.58-8.54-5.77-15.27-11.93-19.87-1.58-1.18-3.28-2.35-4.92-3.47-8.28-5.68-13.7-9.83-13.7-15.56,0-5.73,5.44-9.87,13.73-15.53,1.64-1.12,3.34-2.28,4.93-3.46,6.17-4.59,10.38-11.31,11.83-18.92.14-.9,1.76-13.52,1.76-13.52l1.37-9.81c.68-8.66-1.62-16.24-6.38-22.28-1.22-1.55-2.56-3.12-3.86-4.63-6.53-7.63-10.69-13.04-9.2-18.58,1.49-5.54,7.81-8.13,17.28-11.45,1.88-.66,3.82-1.34,5.66-2.07,7.15-2.83,12.95-8.24,16.33-15.22.37-.83,5.2-12.61,5.2-12.61l3.86-9.12c2.9-8.19,2.64-16.11-.4-23.17-.78-1.81-1.67-3.67-2.53-5.47-4.33-9.06-6.95-15.37-4.08-20.33,2.87-4.96,9.65-5.83,19.66-6.58,1.98-.15,4.04-.31,6-.53,7.64-.88,14.64-4.6,19.71-10.47.57-.7,8.27-10.82,8.27-10.82l6.1-7.82c4.92-7.15,6.72-14.87,5.61-22.49-.28-1.95-.66-3.98-1.02-5.93-1.84-9.87-2.74-16.64,1.32-20.69,1.49-1.49,3.56-2.86,8.54-2.85,3.79,0,8.04.81,12.15,1.58,1.96.37,3.98.75,5.93,1.04,1.45.21,2.94.32,4.41.33,6.19,0,12.19-1.84,17.34-5.34.74-.53,10.8-8.32,10.8-8.32l7.91-5.97c6.6-5.64,10.34-12.63,11.24-20.27.23-1.96.39-4.01.55-6,.78-10.01,1.66-16.78,6.63-19.64,1.46-.84,2.88-1.22,4.57-1.22,4.64,0,10.54,2.84,15.74,5.34,1.79.86,3.65,1.75,5.46,2.54,3.83,1.66,7.9,2.5,12.1,2.51,3.48,0,6.91-.57,10.21-1.72.85-.33,12.59-5.24,12.59-5.24l9.18-3.72c7.84-3.74,13.26-9.52,16.1-16.67.73-1.83,1.42-3.77,2.08-5.65,3.34-9.47,5.95-15.78,11.49-17.26.82-.22,1.59-.32,2.36-.32,5.07,0,10.99,5.09,16.2,9.57,1.51,1.3,3.07,2.64,4.62,3.86,5.37,4.26,12.14,6.61,19.04,6.61.76,0,1.54-.03,2.3-.08.9-.09,13.51-1.8,13.51-1.8l9.83-1.22c8.54-1.58,15.27-5.77,19.87-11.93,1.18-1.58,2.35-3.28,3.47-4.92,5.68-8.28,9.83-13.7,15.56-13.7,5.73,0,9.87,5.44,15.53,13.73,1.12,1.64,2.28,3.34,3.46,4.93,4.59,6.17,11.31,10.38,18.92,11.83.9.14,13.53,1.76,13.53,1.76l9.8,1.37c1.68.16,2.46.19,3.22.19,6.91,0,13.68-2.32,19.06-6.57,1.55-1.22,3.12-2.56,4.63-3.86,5.22-4.47,11.15-9.54,16.22-9.53.77,0,1.54.11,2.36.33,5.54,1.49,8.13,7.81,11.45,17.28.66,1.88,1.34,3.82,2.07,5.66,2.83,7.15,8.24,12.95,15.22,16.33.83.37,12.6,5.19,12.6,5.19l9.13,3.86c4.16,1.49,7.59,2.08,11.07,2.08,4.2,0,8.27-.83,12.1-2.48,1.82-.78,3.67-1.67,5.47-2.53,5.21-2.49,11.11-5.31,15.75-5.31,1.7,0,3.11.38,4.57,1.23,4.96,2.87,5.83,9.65,6.58,19.66.15,1.98.3,4.04.53,6,.89,7.64,4.6,14.64,10.47,19.71.71.57,10.83,8.28,10.83,8.28l7.82,6.09c5.9,4.06,11.89,5.92,18.08,5.93,1.47,0,2.95-.1,4.41-.32,1.96-.28,3.98-.66,5.94-1.03,4.11-.77,8.37-1.56,12.15-1.55,4.99,0,7.05,1.38,8.54,2.87,4.05,4.06,3.13,10.83,1.27,20.69-.37,1.96-.75,3.98-1.04,5.93-1.12,7.61.66,15.33,5.01,21.75.53.74,8.32,10.8,8.32,10.8l5.97,7.9c5.64,6.6,12.63,10.34,20.27,11.24,1.96.23,4.01.39,6,.55,10.01.78,16.78,1.66,19.64,6.63,2.86,4.97.22,11.27-4.13,20.32-.86,1.79-1.75,3.65-2.54,5.46-3.05,7.06-3.33,14.98-.79,22.3.32.85,5.25,12.6,5.25,12.6l3.71,9.16c3.74,7.84,9.52,13.26,16.67,16.1,1.83.73,3.77,1.42,5.65,2.08,9.47,3.34,15.78,5.95,17.26,11.49,1.48,5.54-2.7,10.94-9.25,18.56-1.3,1.51-2.64,3.07-3.87,4.62-4.78,6.03-7.1,13.61-6.53,21.34.09.9,1.8,13.51,1.8,13.51l1.22,9.84c1.58,8.54,5.77,15.27,11.93,19.87,1.58,1.18,3.28,2.35,4.92,3.47,8.28,5.68,13.7,9.83,13.7,15.56,0,5.73-5.44,9.87-13.73,15.53Z"/>
    <g class="cls-7">
      <g class="cls-8">
        <path d="M529.63,109.74c-22.94-7.59-52.04-11.26-76.18-13.6-2.22-.22-4.28-.67-6.25-1.24h-61.15c-4.65.63-9.31,1.33-13.99,2.15C228.54,122.26,116.93,236.83,94.74,380.83c-9.07,58.85-3.1,115.43,14.5,166.59h18.8c-10.34-35.33-18.52-74.99-18.47-112.29.03-25.57,2.12-46.52,6.24-65.06C156.29,187.78,301.77,107.75,441.84,107.75c57.87,0,123.26,22.95,163.25,46.29-6.58-4.39-68.34-41.94-75.46-44.29Z"/>
      </g>
    </g>
    <path class="cls-14" d="M423.27,755.25c-183.07,0-331.99-148.93-331.99-331.99S240.2,91.28,423.27,91.28s331.98,148.93,331.98,331.98-148.93,331.99-331.98,331.99ZM423.27,98.62c-179.02,0-324.65,145.64-324.65,324.64s145.64,324.65,324.65,324.65,324.64-145.64,324.64-324.65S602.27,98.62,423.27,98.62Z"/>
    <path class="cls-11" d="M185.95,417.53c0,.43,0,.86-.02,1.3v.02c0,.18,0,.37,0,.55,0,.05,0,.1,0,.15-.06,1.47-.29,2.96-.52,4.41l-.03.17s-.03.17-.05.19c-.02.02-.11.03-.25.04-.79.03-1.57.11-2.34.22-.25.04-.49.08-.74.12h0c-.36.06-.71.13-1.07.21-1.25.27-2.47.61-3.69.99h0s-.07.02-.1.03c-.02,0-.04.01-.05.02-.39.12-.78.24-1.16.37,0,0,0,0,0,0h0c-.16.05-.32.1-.48.16-.26.09-.53.17-.79.26-.08.03-.17.05-.25.08h0c-.81.26-1.63.53-2.45.78-4.33,1.32-8.87,1.51-13.12.53-.03,0-.07-.02-.1-.02-1.5-.35-2.96-.83-4.36-1.42,0,0,0,0-.01,0-1.62-.68-3.16-1.51-4.6-2.48-.81-.55-1.59-1.14-2.33-1.77-.6-.51-1.17-1.04-1.71-1.59-.53-.54-1.03-1.1-1.51-1.68-1.91-2.34-3.41-5.02-4.46-8.01-.8-2.26-1.45-4.83-2.04-8.07-.27-1.44-.5-2.91-.72-4.28-.02-.13-.05-.26-.07-.39-.09-.5-.19-1.01-.08-1.42.04-.15.11-.29.23-.45.39-.54.96-1.01,1.58-1.43.09-.06.18-.12.27-.18.18-.11.36-.22.54-.33.53-.3,1.06-.57,1.54-.81.04-.02.09-.04.13-.06.36-.18.72-.35,1.09-.5h0c.37-.16.74-.3,1.11-.44.81-.29,1.63-.53,2.48-.72.07-.02.13-.03.2-.04,2.51-.55,5.1-.83,7.69-.83s5.16.28,7.67.83c.06.01.13.03.19.04,1.26.28,2.46.59,3.6.93,2.53.75,4.77,1.64,6.74,2.69,1.37.72,2.6,1.52,3.72,2.4,1.2.94,2.33,1.98,3.35,3.09,0,0,0,0,0,.01.75.81,1.44,1.65,2.08,2.52.1.13.19.27.29.4.39.56.77,1.13,1.11,1.7.02.03.03.06.05.08,1.31,2.19,2.28,4.52,2.85,6.86h0c.03.13.06.25.09.37.04.18.08.35.11.53h0c.02.08.03.15.04.23,0,0,0,0,0,0,.06.35.12.7.17,1.05.11.85.17,1.72.18,2.59Z"/>
    <path class="cls-11" d="M224.42,420.24c0,.43,0,.86.03,1.3v.02c0,.18,0,.37.01.55,0,.05,0,.1,0,.15.07,1.47.33,2.96.59,4.41l.03.17s.03.17.05.19c.02.02.12.03.29.04.9.03,1.79.11,2.67.22.28.04.56.08.85.12h0c.41.06.81.13,1.22.21,1.42.27,2.82.61,4.21.99h0s.08.02.11.03c.02,0,.04.01.06.02.44.12.89.24,1.33.37,0,0,0,0,0,0h0c.18.05.37.1.55.16.3.09.6.17.9.26.09.03.19.05.28.08h0c.92.26,1.87.53,2.8.78,4.95,1.32,10.12,1.51,14.97.53.04,0,.08-.02.12-.02,1.71-.35,3.38-.83,4.98-1.42,0,0,.01,0,.02,0,1.84-.68,3.6-1.51,5.24-2.48.93-.55,1.82-1.14,2.66-1.77.68-.51,1.33-1.04,1.95-1.59.6-.54,1.18-1.1,1.72-1.68,2.19-2.34,3.89-5.02,5.09-8.01.91-2.26,1.65-4.83,2.33-8.07.3-1.44.57-2.91.82-4.28.02-.13.05-.26.08-.39.11-.5.22-1.01.09-1.42-.05-.15-.13-.29-.26-.45-.45-.54-1.09-1.01-1.8-1.43-.1-.06-.2-.12-.31-.18-.2-.11-.41-.22-.62-.33-.6-.3-1.21-.57-1.75-.81-.05-.02-.1-.04-.15-.06-.41-.18-.82-.35-1.24-.5h0c-.42-.16-.84-.3-1.27-.44-.92-.29-1.87-.53-2.83-.72-.08-.02-.15-.03-.23-.04-2.87-.55-5.82-.83-8.78-.83s-5.89.28-8.76.83c-.07.01-.15.03-.22.04-1.44.28-2.81.59-4.11.93-2.89.75-5.44,1.64-7.69,2.69-1.56.72-2.97,1.52-4.24,2.4-1.37.94-2.66,1.98-3.83,3.09,0,0,0,0-.01.01-.85.81-1.65,1.65-2.38,2.52-.11.13-.22.27-.33.4-.45.56-.87,1.13-1.27,1.7-.02.03-.04.06-.06.08-1.49,2.19-2.6,4.52-3.25,6.86h0c-.04.13-.07.25-.1.37-.04.18-.09.35-.13.53h0c-.02.08-.03.15-.05.23,0,0,0,0,0,0-.07.35-.14.7-.19,1.05-.13.85-.2,1.72-.21,2.59Z"/>
    <g>
      <path class="cls-13" d="M190.59,562.18c-1.66,1.43-2.89,2.98-3.44,4.92-1.42,4.84,2.36,10.32,10.1,8.86,11.67-2.2,21.19-14.77,30.41-31.54,6.95-12.18,12.89-22.65,19.65-31.54-8.62,7.62-17.97,15.68-27.48,17.48-6.47,1.22-10.94.14-14.28-2.48,2.35-5.32,4.79-12.28,6.13-18.12,2.62,4.18,8.43,6.44,18.04,4.62,15.99-3.02,29.34-15.19,38.57-23.33.54,1.22,1.56,2.35,2.4,3-6.11,5.83-10.12,12.58-11.89,18.8-3.62,12.06-1.27,25.03.82,34.49,5.13-30.43,19.92-66.13,40.33-69.99,12.26-2.31,16.82,5.67,14.98,12.11-.99,3.34-3.33,6.01-6.5,7.53.15-.84.14-1.96-.05-2.94-.56-2.94-3.41-5.15-8.8-4.13-16.67,3.15-32.38,30.8-41.69,87l-15.4,2.91c5.56-16.29,1.91-37.24,7.71-57.12,1.36-4.63,3.04-9.21,5.47-13.53-9.04,11.87-15.75,27.46-22.06,42.46-10.17,24.17-23.32,43.82-40.59,47.08-16.87,3.18-24.2-9.25-20.84-21.06,2.66-9.04,11.85-14.73,18.42-15.46Z"/>
      <path class="cls-13" d="M290.81,571.1l2.78-8.96c-4.06,6.46-8.66,11.18-14.74,12.33-3.92.74-7.01-1.62-7.68-5.15-.35-1.86-.16-4.64.73-7.96l9.5-32.57,12.16-2.3-8.66,29.47c-1,3.34-1.27,5.12-1.07,6.2.22,1.18,1.14,1.71,2.22,1.51,3.43-.65,9.78-8.45,13.59-21.66l5.2-17.64,12.06-2.28-11.15,38.37c6.92-5.88,13.1-12.43,17.03-19.57l.38-.68,3.42,1.99-.38.68c-4.93,8.85-13.14,17.01-22.3,23.92-5.45,19.01-9.69,32.61-25.09,35.52-11.87,2.24-15.07-7.21-10.3-14.21,4.06-5.95,13.42-11.27,22.29-17.01ZM279.34,595.92c2.75-.52,5.27-4.35,7.14-10.59l2.64-8.62c-5.32,3.54-10.24,7.11-12.62,10.61-2.94,4.31-1.28,9.38,2.84,8.61Z"/>
      <path class="cls-13" d="M344.1,515.43c5-.94,8.97,1.76,10.14,6.92l2.98-7.88,10.89-2.05-9.44,32.36c-1.06,3.55-.37,5.05,1.4,4.71,2.75-.52,5.7-3.72,13.82-18.25l.38-.68,3.42,1.99-.38.68c-9.32,16.8-15,25.49-22.85,26.97-3.63.68-7.42-.53-8.27-5.04-.09-.49-.17-.88-.16-1.39-3.51,5.64-7.95,9.53-13.15,10.51-11.28,2.13-14.8-10.62-10.92-23.95,3.6-12.16,12.21-23.03,22.12-24.9ZM338.65,553.85c4.51-.85,9-8.81,10.9-15.47,2.44-8.08,2.01-17.85-2.99-16.91-4.12.78-8.74,7.54-11.32,16.46-2.72,8.74-1.69,16.88,3.41,15.91Z"/>
      <path class="cls-13" d="M393.04,538.5c1.85-6.34,4.88-13.42,6.45-18.59,1.18-3.98.34-6.26-2.5-5.72-4.51.85-8.57,6.8-12.15,19.05l-6.12,20.86-12.16,2.3,13.52-46.23,10.99-2.07-2.06,7.91c4.06-6.46,9.14-10.77,15.13-11.9,4.61-.87,7.68,1.4,8.35,4.93.46,2.45-.08,5.5-1.18,9.37-1.56,5.17-4.42,12.62-5.93,17.58-1.06,3.55-.47,5.07,1.3,4.73,2.75-.52,5.7-3.72,13.82-18.25l.38-.68,3.52,1.98-.38.68c-9.42,16.81-15.1,25.5-24.02,27.19-4.22.8-7.19-.98-7.97-5.1-.41-2.16.09-4.89,1.03-8.02Z"/>
      <path class="cls-13" d="M427.92,574.18c-12.06,2.28-14.95-7.64-10.2-14.23,4.14-6.06,13.5-11.38,22.29-17.01l1.95-6.36c-3.92,5.62-7.93,8.61-12.24,9.42-9.52,1.8-14.05-9.84-9.94-24.13,3.6-12.16,12.21-23.03,22.12-24.9,5-.94,8.97,1.76,10.14,6.92l2.98-7.88,10.99-2.07-11.16,38.27c6.93-5.78,12.9-12.39,16.85-19.44l.38-.68,3.42,1.99-.38.68c-4.53,8.27-13.34,17.05-22.03,23.76l-1.87,6.25c-5.17,17.84-12.12,27.28-23.3,29.39ZM428.44,567.78c2.75-.52,5.23-4.03,7.1-10.28l2.78-8.96c-5.42,3.56-10.32,7.23-12.62,10.61-2.94,4.31-1.38,9.4,2.75,8.62ZM436.44,535.39c4.51-.85,9-8.81,10.9-15.47,2.99-10.01,1.23-17.7-2.99-16.91-4.12.78-8.74,7.54-11.32,16.46-2.94,9.7-1.3,16.8,3.41,15.91Z"/>
      <path class="cls-13" d="M468.36,524.18l9.51-32.47,12.16-2.3-9.44,32.36c-1.06,3.55-.37,5.05,1.4,4.71,2.75-.52,5.7-3.72,13.82-18.25l.38-.68,3.42,2-.38.68c-9.33,16.8-15,25.49-23.24,27.04-4.61.87-7.5-1.53-8.22-5.36-.41-2.16-.14-5.05.57-7.73ZM487.1,466.3c3.92-.74,7.46,1.84,8.2,5.77.85,4.51-2.17,8.94-6.88,9.83-3.92.74-7.46-1.84-8.2-5.77-.85-4.51,2.17-8.94,6.88-9.83Z"/>
      <path class="cls-13" d="M493.89,514.69l8.11-27.54,12.16-2.3-8.36,28.4c-.59,1.74-.84,3.61-.54,5.18.43,2.26,2.17,3.45,5.02,2.91,5.1-.96,10.09-6.27,12.74-12.16-2.95-2.7-4.66-6.94-5.35-10.57-.61-3.24-.22-6.56.53-9.55,1.28-4,3.44-7.05,6.09-7.55,3.73-.7,5.89,2.14,6.87,7.34.91,4.81.18,12.26-1.41,17.84.63.08,1.25.17,2.04.02,3.43-.65,6.44-3.04,8.55-6.9l.38-.68,3.52,1.98-.38.68c-2.66,4.77-6.97,8.83-11.97,9.78-1.47.28-2.78.32-3.96.04-3.35,7.54-10.45,17.82-21.63,19.93-7.55,1.43-12.1-2.19-13.15-7.78-.46-2.45-.39-5.31.72-9.08Z"/>
      <path class="cls-13" d="M560.58,474.58c8.73-1.65,14.82,3.7,12.42,11.98-2.03,6.99-11.14,13.07-21.84,15.09l-1.18.22c.82,5.94,4.26,10.17,10.44,9,6.87-1.3,12.43-7.32,18.58-18.34l.38-.68,3.42,1.99-.38.68c-7.13,12.82-15.77,25.73-27.63,27.97-13.05,2.46-19.15-10.51-14.74-25.87,3.15-10.75,10.91-20.24,20.52-22.06ZM550.79,497.55c6.96-1.31,12.27-6.58,13.49-10.88,1.3-4.41-.59-7.41-4.02-6.76-3.63.68-7.54,5.79-9.41,12.04-.55,1.93-.9,3.83-1.04,5.78l.98-.19Z"/>
      <path class="cls-13" d="M598.81,514.09c-8.73,1.65-13.11-6.47-9.73-17.67,1.55-5.27,5.49-12.92,11.85-20.62l-.27-.36c-2.62,1.71-5.69,3.21-8.44,3.73-.98.19-1.88.25-2.7.21-2.14,5.89-4.88,11.28-6.71,14.47l-.38.68-3.52-1.98.38-.68c3.04-5.45,4.94-9.36,6.2-13.46-4.61-2.38-6.01-8.72-4.65-13.34.79-2.79,2.83-4.9,4.99-5.31,4.32-.81,7.92,3.18,5.71,13.04.7-.03,1.41-.06,2.19-.21,5-.94,11.25-4.97,13.59-7.64,1.19,2.01,3.49,4.52,5.03,5.65-3.99,4.71-8.98,11.65-11.15,18.97-2.46,8.49-.16,13.14,3.66,12.41,4.22-.8,8.19-6.12,14.26-17.02l.38-.68,3.52,1.98-.38.68c-9.86,17.71-15,25.49-23.83,27.15Z"/>
      <path class="cls-13" d="M624.2,496.29c3.83-.72,7.3,2.08,9.02,4.19,1.06-1.93,1.78-5.11.93-9.62-.76-4.02-2.22-8.52-3-12.64-.35-1.86-.61-3.75-.56-5.68-2.42,4.42-4.83,8.84-7.57,13.72l-.38.68-3.52-1.98.38-.68c4.17-7.49,8.74-15.57,12.68-23.22l8.83-1.67c.49-.09.72.07.78.36.04.2-.02.41-.09.63-1.03,2.63-1.42,5.96-.79,9.29.91,4.81,3.09,9.37,4.24,15.45.67,3.53.75,7.17-.25,10.51,4.26-4.87,8.09-10.97,11.78-17.77l.38-.68,3.52,1.98-.38.68c-11.38,20.43-20.13,27.88-29.85,29.71s-12.97-4.66-11.53-8.9c.63-2.05,2.43-3.81,5.37-4.37Z"/>
      <path class="cls-13" d="M676.91,452.62c8.73-1.65,14.82,3.7,12.42,11.98-2.03,6.99-11.14,13.07-21.84,15.09l-1.18.22c.82,5.94,4.26,10.17,10.44,9,6.87-1.3,12.43-7.32,18.58-18.34l.38-.68,3.42,1.99-.38.68c-7.13,12.82-15.77,25.73-27.63,27.97-13.05,2.46-19.15-10.51-14.74-25.87,3.15-10.75,10.91-20.24,20.52-22.06ZM667.13,475.6c6.96-1.31,12.27-6.58,13.49-10.88,1.3-4.41-.59-7.41-4.02-6.76-3.63.68-7.54,5.79-9.41,12.04-.55,1.93-.9,3.83-1.04,5.78l.98-.19Z"/>
    </g>
    <g>
      <path class="cls-17" d="M186.81,558.81c-1.66,1.43-2.89,2.98-3.44,4.92-1.42,4.84,2.36,10.32,10.1,8.86,11.67-2.2,21.19-14.77,30.41-31.54,6.95-12.18,12.89-22.65,19.65-31.54-8.62,7.62-17.97,15.68-27.48,17.48-6.47,1.22-10.94.14-14.28-2.48,2.35-5.32,4.79-12.28,6.13-18.12,2.62,4.18,8.43,6.44,18.04,4.62,15.99-3.02,29.34-15.19,38.57-23.33.54,1.22,1.56,2.35,2.4,3-6.11,5.83-10.12,12.58-11.89,18.8-3.62,12.06-1.27,25.03.82,34.49,5.13-30.43,19.92-66.13,40.33-69.99,12.26-2.31,16.82,5.67,14.98,12.11-.99,3.34-3.33,6.01-6.5,7.53.15-.84.14-1.96-.05-2.94-.56-2.94-3.41-5.15-8.8-4.13-16.67,3.15-32.38,30.8-41.69,87l-15.4,2.91c5.56-16.29,1.91-37.24,7.71-57.12,1.36-4.63,3.04-9.21,5.47-13.53-9.04,11.87-15.75,27.46-22.06,42.46-10.17,24.17-23.32,43.82-40.59,47.08-16.87,3.18-24.2-9.25-20.84-21.06,2.66-9.04,11.85-14.73,18.42-15.46Z"/>
      <path class="cls-17" d="M287.03,567.73l2.78-8.96c-4.06,6.46-8.66,11.18-14.74,12.33-3.92.74-7.01-1.62-7.68-5.15-.35-1.86-.16-4.64.73-7.96l9.5-32.57,12.16-2.3-8.66,29.47c-1,3.34-1.27,5.12-1.07,6.2.22,1.18,1.14,1.71,2.22,1.51,3.43-.65,9.78-8.45,13.59-21.66l5.2-17.64,12.06-2.28-11.15,38.37c6.92-5.88,13.1-12.43,17.03-19.57l.38-.68,3.42,1.99-.38.68c-4.93,8.85-13.14,17.01-22.3,23.92-5.45,19.01-9.69,32.61-25.09,35.52-11.87,2.24-15.07-7.21-10.3-14.21,4.06-5.95,13.42-11.27,22.29-17.01ZM275.56,592.55c2.75-.52,5.27-4.35,7.14-10.59l2.64-8.62c-5.32,3.54-10.24,7.11-12.62,10.61-2.94,4.31-1.28,9.38,2.84,8.61Z"/>
      <path class="cls-17" d="M340.31,512.06c5-.94,8.97,1.76,10.14,6.92l2.98-7.88,10.89-2.05-9.44,32.36c-1.06,3.55-.37,5.05,1.4,4.71,2.75-.52,5.7-3.72,13.82-18.25l.38-.68,3.42,1.99-.38.68c-9.32,16.8-15,25.49-22.85,26.97-3.63.68-7.42-.53-8.27-5.04-.09-.49-.17-.88-.16-1.39-3.51,5.64-7.95,9.53-13.15,10.51-11.28,2.13-14.8-10.62-10.92-23.95,3.6-12.16,12.21-23.03,22.12-24.9ZM334.87,550.47c4.51-.85,9-8.81,10.9-15.47,2.44-8.08,2.01-17.85-2.99-16.91-4.12.78-8.74,7.54-11.32,16.46-2.72,8.74-1.69,16.88,3.41,15.91Z"/>
      <path class="cls-17" d="M389.26,535.13c1.85-6.34,4.88-13.42,6.45-18.59,1.18-3.98.34-6.26-2.5-5.72-4.51.85-8.57,6.8-12.15,19.05l-6.12,20.86-12.16,2.3,13.52-46.23,10.99-2.07-2.06,7.91c4.06-6.46,9.14-10.77,15.13-11.9,4.61-.87,7.68,1.4,8.35,4.93.46,2.45-.08,5.5-1.18,9.37-1.56,5.17-4.42,12.62-5.93,17.58-1.06,3.55-.47,5.07,1.3,4.73,2.75-.52,5.7-3.72,13.82-18.25l.38-.68,3.52,1.98-.38.68c-9.42,16.81-15.1,25.5-24.02,27.19-4.22.8-7.19-.98-7.97-5.1-.41-2.16.09-4.89,1.03-8.02Z"/>
      <path class="cls-17" d="M424.13,570.8c-12.06,2.28-14.95-7.64-10.2-14.23,4.14-6.06,13.5-11.38,22.29-17.01l1.95-6.36c-3.92,5.62-7.93,8.61-12.24,9.42-9.52,1.8-14.05-9.84-9.94-24.13,3.6-12.16,12.21-23.03,22.12-24.9,5-.94,8.97,1.76,10.14,6.92l2.98-7.88,10.99-2.07-11.16,38.27c6.93-5.78,12.9-12.39,16.85-19.44l.38-.68,3.42,1.99-.38.68c-4.53,8.27-13.34,17.05-22.03,23.76l-1.87,6.25c-5.17,17.84-12.12,27.28-23.3,29.39ZM424.65,564.41c2.75-.52,5.23-4.03,7.1-10.28l2.78-8.96c-5.42,3.56-10.32,7.23-12.62,10.61-2.94,4.31-1.38,9.4,2.75,8.62ZM432.66,532.01c4.51-.85,9-8.81,10.9-15.47,2.99-10.01,1.23-17.7-2.99-16.91-4.12.78-8.74,7.54-11.32,16.46-2.94,9.7-1.3,16.8,3.41,15.91Z"/>
      <path class="cls-17" d="M464.58,520.81l9.51-32.47,12.16-2.3-9.44,32.36c-1.06,3.55-.37,5.05,1.4,4.71,2.75-.52,5.7-3.72,13.82-18.25l.38-.68,3.42,2-.38.68c-9.33,16.8-15,25.49-23.24,27.04-4.61.87-7.5-1.53-8.22-5.36-.41-2.16-.14-5.05.57-7.73ZM483.31,462.92c3.92-.74,7.46,1.84,8.2,5.77.85,4.51-2.17,8.94-6.88,9.83-3.92.74-7.46-1.84-8.2-5.77-.85-4.51,2.17-8.94,6.88-9.83Z"/>
      <path class="cls-17" d="M490.11,511.32l8.11-27.54,12.16-2.3-8.36,28.4c-.59,1.74-.84,3.61-.54,5.18.43,2.26,2.17,3.45,5.02,2.91,5.1-.96,10.09-6.27,12.74-12.16-2.95-2.7-4.66-6.94-5.35-10.57-.61-3.24-.22-6.56.53-9.55,1.28-4,3.44-7.05,6.09-7.55,3.73-.7,5.89,2.14,6.87,7.34.91,4.81.18,12.26-1.41,17.84.63.08,1.25.17,2.04.02,3.43-.65,6.44-3.04,8.55-6.9l.38-.68,3.52,1.98-.38.68c-2.66,4.77-6.97,8.83-11.97,9.78-1.47.28-2.78.32-3.96.04-3.35,7.54-10.45,17.82-21.63,19.93-7.55,1.43-12.1-2.19-13.15-7.78-.46-2.45-.39-5.31.72-9.08Z"/>
      <path class="cls-17" d="M556.8,471.2c8.73-1.65,14.82,3.7,12.42,11.98-2.03,6.99-11.14,13.07-21.84,15.09l-1.18.22c.82,5.94,4.26,10.17,10.44,9,6.87-1.3,12.43-7.32,18.58-18.34l.38-.68,3.42,1.99-.38.68c-7.13,12.82-15.77,25.73-27.63,27.97-13.05,2.46-19.15-10.51-14.74-25.87,3.15-10.75,10.91-20.24,20.52-22.06ZM547.01,494.18c6.96-1.31,12.27-6.58,13.49-10.88,1.3-4.41-.59-7.41-4.02-6.76-3.63.68-7.54,5.79-9.41,12.04-.55,1.93-.9,3.83-1.04,5.78l.98-.19Z"/>
      <path class="cls-17" d="M595.03,510.72c-8.73,1.65-13.11-6.47-9.73-17.67,1.55-5.27,5.49-12.92,11.85-20.62l-.27-.36c-2.62,1.71-5.69,3.21-8.44,3.73-.98.19-1.88.25-2.7.21-2.14,5.89-4.88,11.28-6.71,14.47l-.38.68-3.52-1.98.38-.68c3.04-5.45,4.94-9.36,6.2-13.46-4.61-2.38-6.01-8.72-4.65-13.34.79-2.79,2.83-4.9,4.99-5.31,4.32-.81,7.92,3.18,5.71,13.04.7-.03,1.41-.06,2.19-.21,5-.94,11.25-4.97,13.59-7.64,1.19,2.01,3.49,4.52,5.03,5.65-3.99,4.71-8.98,11.65-11.15,18.97-2.46,8.49-.16,13.14,3.66,12.41,4.22-.8,8.19-6.12,14.26-17.02l.38-.68,3.52,1.98-.38.68c-9.86,17.71-15,25.49-23.83,27.15Z"/>
      <path class="cls-17" d="M620.42,492.92c3.83-.72,7.3,2.08,9.02,4.19,1.06-1.93,1.78-5.11.93-9.62-.76-4.02-2.22-8.52-3-12.64-.35-1.86-.61-3.75-.56-5.68-2.42,4.42-4.83,8.84-7.57,13.72l-.38.68-3.52-1.98.38-.68c4.17-7.49,8.74-15.57,12.68-23.22l8.83-1.67c.49-.09.72.07.78.36.04.2-.02.41-.09.63-1.03,2.63-1.42,5.96-.79,9.29.91,4.81,3.09,9.37,4.24,15.45.67,3.53.75,7.17-.25,10.51,4.26-4.87,8.09-10.97,11.78-17.77l.38-.68,3.52,1.98-.38.68c-11.38,20.43-20.13,27.88-29.85,29.71-9.42,1.78-12.97-4.66-11.53-8.9.63-2.05,2.43-3.81,5.37-4.37Z"/>
      <path class="cls-17" d="M673.13,449.25c8.73-1.65,14.82,3.7,12.42,11.98-2.03,6.99-11.14,13.07-21.84,15.09l-1.18.22c.82,5.94,4.26,10.17,10.44,9,6.87-1.3,12.43-7.32,18.58-18.34l.38-.68,3.42,1.99-.38.68c-7.13,12.82-15.77,25.73-27.63,27.97-13.05,2.46-19.15-10.51-14.74-25.87,3.15-10.75,10.91-20.24,20.52-22.06ZM663.34,472.22c6.96-1.31,12.27-6.58,13.49-10.88,1.3-4.41-.59-7.41-4.02-6.76-3.63.68-7.54,5.79-9.41,12.04-.55,1.93-.9,3.83-1.04,5.78l.98-.19Z"/>
    </g>
    <path class="cls-10" d="M187.26,419.22c0,.39,0,.78-.02,1.17v.02c0,.16,0,.33,0,.5,0,.05,0,.09,0,.14-.06,1.32-.27,2.67-.48,3.97l-.02.15s-.02.15-.04.17c-.02.02-.1.03-.24.04-.74.03-1.47.1-2.2.2-.23.03-.47.07-.7.11h0c-.34.06-.67.12-1,.19-1.17.24-2.33.55-3.47.89h0s-.06.02-.09.03c-.02,0-.03,0-.05.01-.37.11-.73.22-1.09.33,0,0,0,0,0,0h0c-.15.05-.3.09-.45.14-.25.08-.5.16-.74.23-.08.02-.16.05-.23.07h0c-.76.24-1.54.48-2.3.7-4.07,1.19-8.33,1.36-12.33.48-.03,0-.06-.01-.1-.02-1.41-.32-2.78-.74-4.1-1.28,0,0,0,0-.01,0-1.52-.61-2.97-1.36-4.32-2.23-.76-.49-1.49-1.02-2.19-1.59-.56-.46-1.1-.93-1.61-1.43-.5-.48-.97-.99-1.41-1.51-1.8-2.1-3.2-4.51-4.19-7.2-.75-2.04-1.36-4.34-1.92-7.26-.25-1.3-.47-2.61-.68-3.85-.02-.11-.04-.23-.07-.35-.09-.45-.18-.91-.07-1.28.04-.14.11-.27.21-.4.37-.48.9-.91,1.49-1.29.08-.05.17-.11.25-.16.17-.1.34-.2.51-.3.49-.27.99-.52,1.44-.73.04-.02.08-.04.12-.06.33-.16.68-.31,1.02-.45h0c.34-.14.69-.27,1.05-.39.76-.26,1.54-.48,2.33-.65.06-.01.13-.03.19-.04,2.36-.5,4.79-.75,7.23-.75s4.85.25,7.21.74c.06.01.12.02.18.04,1.19.25,2.31.53,3.39.84,2.38.68,4.48,1.48,6.33,2.42,1.28.65,2.45,1.37,3.49,2.15,1.13.85,2.19,1.78,3.15,2.78,0,0,0,0,0,0,.7.73,1.35,1.48,1.96,2.27.09.12.18.24.27.36.37.5.72,1.01,1.05,1.53.02.03.03.05.05.08,1.23,1.97,2.14,4.06,2.68,6.17h0c.03.11.06.22.08.34.04.16.07.32.1.48h0c.01.07.03.14.04.21,0,0,0,0,0,0,.06.31.11.63.16.94.11.77.16,1.55.17,2.33Z"/>
    <path class="cls-10" d="M223.4,421.66c0,.39,0,.78.03,1.17v.02c0,.16,0,.33.01.5,0,.05,0,.09,0,.14.06,1.32.31,2.67.55,3.97l.03.15s.03.15.05.17c.02.02.11.03.27.04.84.03,1.68.1,2.51.2.27.03.53.07.8.11h0c.38.06.76.12,1.15.19,1.34.24,2.65.55,3.96.89h0s.07.02.11.03c.02,0,.04,0,.06.01.42.11.83.22,1.25.33,0,0,0,0,0,0h0c.17.05.35.09.52.14.28.08.57.16.85.23.09.02.18.05.27.07h0c.87.24,1.75.48,2.63.7,4.65,1.19,9.51,1.36,14.07.48.04,0,.07-.01.11-.02,1.61-.32,3.17-.74,4.68-1.28,0,0,.01,0,.02,0,1.73-.61,3.39-1.36,4.93-2.23.87-.49,1.71-1.02,2.5-1.59.64-.46,1.25-.93,1.83-1.43.57-.48,1.1-.99,1.62-1.51,2.05-2.1,3.66-4.51,4.78-7.2.86-2.04,1.55-4.34,2.19-7.26.29-1.3.54-2.61.77-3.85.02-.11.05-.23.07-.35.1-.45.2-.91.08-1.28-.04-.14-.12-.27-.24-.4-.42-.48-1.03-.91-1.7-1.29-.1-.05-.19-.11-.29-.16-.19-.1-.39-.2-.58-.3-.56-.27-1.14-.52-1.65-.73-.05-.02-.09-.04-.14-.06-.38-.16-.77-.31-1.17-.45h0c-.39-.14-.79-.27-1.2-.39-.86-.26-1.75-.48-2.66-.65-.07-.01-.14-.03-.22-.04-2.7-.5-5.47-.75-8.25-.75s-5.53.25-8.23.74c-.07.01-.14.02-.21.04-1.35.25-2.64.53-3.86.84-2.72.68-5.12,1.48-7.23,2.42-1.47.65-2.79,1.37-3.99,2.15-1.29.85-2.5,1.78-3.6,2.78,0,0,0,0,0,0-.8.73-1.55,1.48-2.23,2.27-.1.12-.21.24-.31.36-.42.5-.82,1.01-1.2,1.53-.02.03-.04.05-.05.08-1.4,1.97-2.45,4.06-3.05,6.17h0c-.03.11-.06.22-.09.34-.04.16-.08.32-.12.48h0c-.02.07-.03.14-.05.21,0,0,0,0,0,0-.07.31-.13.63-.18.94-.12.77-.19,1.55-.2,2.33Z"/>
  </g>
</svg>