<?xml version="1.0" encoding="UTF-8"?>
<svg id="Layer_2" data-name="Layer 2" xmlns="http://www.w3.org/2000/svg" viewBox="0 0 846.53 846.53">
  <defs>
    <style>
      .cls-1 {
        fill: #7c7c7c;
      }

      .cls-2 {
        fill: #4d4d4d;
      }

      .cls-3 {
        fill: #ccc;
      }

      .cls-4 {
        fill: #666;
      }

      .cls-5 {
        fill: #333;
      }

      .cls-6 {
        fill: #1a1a1a;
      }

      .cls-7 {
        fill: #1b1f1b;
      }
    </style>
  </defs>
  <g id="Layer_1-2" data-name="Layer 1">
    <g>
      <path class="cls-6" d="M475.57,814.6l-2.62.32s2.62-.32,2.62-.32Z"/>
      <path class="cls-6" d="M822.18,454.22c8.76-6.5,24.34-14.21,24.36-30.46.02-16.25-15.54-23.99-24.28-30.52-3.2-2.39-5.36-5.92-6.1-9.84l-1.22-9.83-1.71-12.58c-.29-3.98.89-7.95,3.37-11.08,6.77-8.55,19.83-20.03,15.64-35.72-4.19-15.7-21.22-19.15-31.35-23.19-3.71-1.48-6.71-4.33-8.44-7.93l-4.71-11.62.99,2.45-4.91-11.71c-1.31-3.77-1.19-7.91.39-11.57,4.33-10.01,13.97-24.48,5.86-38.56-8.11-14.08-25.46-13-36.29-14.29-3.97-.47-7.6-2.44-10.21-5.47l-7.56-10.01,1.59,2.11-7.77-10.04c-2.24-3.31-3.2-7.33-2.62-11.28,1.59-10.79,7.16-27.26-4.32-38.76-11.47-11.5-27.96-5.97-38.75-4.41-3.95.57-7.97-.39-11.27-2.64l-9.89-7.71,2.08,1.62-10.1-7.69c-3.02-2.61-4.99-6.25-5.45-10.22-1.26-10.84-.14-28.18-14.2-36.32-14.06-8.14-28.55,1.47-38.57,5.77-3.67,1.58-7.8,1.68-11.57.36l-11.55-4.89,2.43,1.03-11.75-4.81c-3.6-1.74-6.44-4.75-7.91-8.46-4.02-10.14-7.43-27.19-23.12-31.41-15.69-4.22-27.2,8.8-35.76,15.56-3.14,2.47-7.1,3.65-11.08,3.35l-12.42-1.73,2.62.37-12.6-1.61c-3.92-.75-7.44-2.92-9.83-6.13C447.72,15.6,440.01.02,423.77,0c-16.25-.02-23.99,15.54-30.52,24.28-2.39,3.2-5.92,5.36-9.84,6.1l-9.83,1.22-12.58,1.71c-3.98.29-7.95-.89-11.08-3.37-8.55-6.77-20.03-19.83-35.72-15.64-15.7,4.19-19.15,21.22-23.19,31.35-1.48,3.71-4.33,6.71-7.93,8.44l-11.62,4.71,2.45-.99-11.71,4.91c-3.77,1.31-7.91,1.19-11.57-.39-10.01-4.33-24.48-13.97-38.56-5.86-14.08,8.11-13,25.46-14.29,36.29-.47,3.97-2.44,7.6-5.47,10.21l-10.01,7.56,2.11-1.59-10.04,7.77c-3.31,2.24-7.33,3.2-11.28,2.62-10.79-1.59-27.26-7.16-38.76,4.32s-5.97,27.95-4.41,38.75c.57,3.95-.39,7.97-2.64,11.27l-7.71,9.89,1.63-2.08-7.69,10.1c-2.61,3.02-6.25,4.99-10.22,5.45-10.84,1.26-28.18.14-36.32,14.2-8.14,14.06,1.47,28.55,5.77,38.57,1.58,3.67,1.68,7.8.36,11.57l-4.89,11.55,1.03-2.43-4.81,11.75c-1.74,3.6-4.75,6.44-8.46,7.91-10.14,4.02-27.19,7.43-31.41,23.12-4.22,15.69,8.8,27.2,15.56,35.76,2.47,3.14,3.65,7.1,3.35,11.08l-1.73,12.42.37-2.62-1.61,12.6c-.75,3.92-2.92,7.44-6.13,9.83C15.6,398.81.02,406.52,0,422.77c-.02,16.25,15.54,23.99,24.28,30.52,3.2,2.39,5.36,5.92,6.1,9.84l1.22,9.83,1.71,12.58c.29,3.98-.89,7.95-3.37,11.08-6.77,8.55-19.83,20.03-15.64,35.72,4.19,15.7,21.22,19.15,31.35,23.19,3.71,1.48,6.71,4.33,8.44,7.93l4.71,11.62-.99-2.45,4.91,11.71c1.31,3.77,1.19,7.91-.39,11.57-4.33,10.01-13.97,24.48-5.86,38.56,8.11,14.08,25.46,13,36.29,14.29,3.97.47,7.6,2.44,10.21,5.47l7.56,10.01-1.59-2.11,7.77,10.04c2.24,3.31,3.2,7.33,2.62,11.28-1.59,10.79-7.16,27.26,4.32,38.76,11.47,11.5,27.96,5.97,38.75,4.41,3.95-.57,7.97.39,11.27,2.64l9.89,7.71-2.08-1.62,10.1,7.69c3.02,2.61,4.99,6.25,5.45,10.22,1.26,10.84.14,28.18,14.2,36.32,14.06,8.14,28.55-1.47,38.57-5.77,3.67-1.58,7.8-1.68,11.57-.36l11.55,4.89-2.43-1.03,11.75,4.81c3.6,1.74,6.44,4.75,7.91,8.46,4.02,10.14,7.43,27.19,23.12,31.41,15.69,4.22,27.2-8.8,35.76-15.56,3.14-2.47,7.1-3.65,11.08-3.35l12.42,1.73-2.62-.37,12.6,1.61c3.92.75,7.44,2.92,9.83,6.13,6.5,8.76,14.21,24.34,30.46,24.36,16.25.02,23.99-15.54,30.52-24.28,2.39-3.2,5.92-5.36,9.84-6.1l9.83-1.22,12.58-1.71c3.98-.29,7.95.89,11.08,3.37,8.55,6.77,20.03,19.83,35.72,15.64,15.7-4.19,19.15-21.22,23.19-31.35,1.48-3.71,4.33-6.71,7.93-8.44l11.62-4.71-2.45.99,11.71-4.91c3.77-1.31,7.91-1.19,11.57.39,10.01,4.33,24.48,13.97,38.56,5.86,14.08-8.11,13-25.46,14.29-36.29.47-3.97,2.44-7.6,5.47-10.21l10.01-7.56-2.11,1.59,10.04-7.77c3.31-2.24,7.33-3.2,11.28-2.62,10.79,1.59,27.26,7.16,38.76-4.32,11.5-11.47,5.97-27.96,4.41-38.75-.57-3.95.39-7.97,2.64-11.27l7.71-9.89-1.62,2.08,7.69-10.1c2.61-3.02,6.25-4.99,10.22-5.45,10.84-1.26,28.18-.14,36.32-14.2,8.14-14.06-1.47-28.55-5.77-38.57-1.58-3.67-1.68-7.8-.36-11.57l4.89-11.55-1.03,2.43,4.81-11.75c1.74-3.6,4.75-6.44,8.46-7.91,10.14-4.02,27.19-7.43,31.41-23.12,4.22-15.69-8.8-27.2-15.56-35.76-2.47-3.14-3.65-7.1-3.35-11.08l1.73-12.42-.37,2.62,1.61-12.6c.75-3.92,2.92-7.44,6.13-9.83Z"/>
      <path class="cls-6" d="M370.96,31.93l2.62-.32s-2.62.32-2.62.32Z"/>
    </g>
    <path d="M657.27,139.12c54.83,81.01,92.54,278.81-16.88,401.2-109.43,122.4-270.5,196.49-270.5,196.49,0,0-84.95,21.76-232.19-85.41l-10.16,35.79,2.45,31.33s12.24,4.9,13.71,4.9,26.44-2.94,26.44-2.94l24.97,14.2s13.71,30.35,12.24,32.8c-1.47,2.45,8.81,17.62,8.81,17.62,0,0,19.09-14.2,39.17-10.77,20.07,3.43,40.15,12.73,39.66,15.67-.49,2.94,5.87,23.4,8.81,24.92,2.94,1.52,19.09,9.43,19.09,9.43,0,0,29.38-18.19,31.33-18.68,1.96-.49,31.33,5.87,35.25,7.83,3.92,1.96,18.11,16.93,19.58,18.5,1.47,1.57,5.87,5.49,5.87,5.49,0,0,9.3,6.85,14.69,1.47,5.39-5.38,12.24-10.7,16.16-16.61,3.92-5.91-9.3-12.74,13.22-14.96,22.52-2.21,37.7,0,37.7,0l19.09,19.33,15.18,1.47s13.29-10.42,12.94-12.24c-.35-1.82,9.1-24.48,10.07-25.95.98-1.47,9.3-8.81,9.3-8.81l36.72-3.43s20.07,11.75,21.54,11.26c1.47-.49,18.11-9.3,18.11-10.77s-.98-12.61,3.43-24.66c4.41-12.06,4.9-26.25,14.69-28.21,9.79-1.96,10.28-5.38,20.07-4.41,9.79.98,7.34,6.37,17.13,2.94,9.79-3.43,10.79-.27,16.76-6.73,5.96-6.46,6.74-1.11,7.23-10.41.49-9.3-.98-16.16,1.47-23.5,2.45-7.34.49-6.36,5.87-15.67,5.39-9.3,5.76-15.18,11.2-19.58,5.45-4.41,11.67-7.83,16.15-7.83s17.69,3.43,24.06-1.47c6.37-4.9,11.75-4.9,8.32-15.67s-14.19-20.56-14.93-25.95c-.74-5.39,10.52-23.5,12.97-26.93,2.45-3.43.98-10.77,7.34-14.2,6.36-3.43,27.42-14.69,29.86-18.6,2.45-3.92,15.18-8.32,3.92-19.58-11.26-11.26-16.65-11.75-17.62-25.46-.98-13.71-1.38-33.78,1.76-36.72,3.14-2.94,29.58-18.6,30.56-24.97.98-6.36,5.39-13.22-1.47-19.09-6.85-5.88-26.44-16.16-26.44-18.6s-8.81-37.7-8.32-40.15c.49-2.45,6.36-15.18,10.77-19.58,4.41-4.41,11.26-6.36,9.79-15.67-1.47-9.3-2.94-7.83-12.73-14.2-9.79-6.36-28.89-22.42-28.89-22.42,0,0-7.83-25.07-7.34-27.03.49-1.96,14.69-35.25,14.69-35.25l-11.26-12.24-35.74-2.94s-23.83-27.91-23.42-29.86c.41-1.96,3.35-23.5,3.35-25.46s-5.39-20.56-5.39-20.56c0,0-4.9-2.94-14.2-.98-9.3,1.96-21.02,2.71-23.49,3.31-2.46.61-22.54,9.18-22.54,9.18Z"/>
    <g>
      <path class="cls-6" d="M222.08,749.28c-2.97-.91-.9-6.72-.57-8.66,1.03-6.01-1.6-8.35-3.36-10.47-1.55-1.88-10.8-9.72-13.72-11.6-2.23-1.46-5.49-3.42-8.69-3.49-3.31-.07-11.97.7-16.23,2.82l-1.46.62,2.2,1.05c2.05.96,12.02,7.31,17.65,11.19,6.43,4.48,9.67,7.87,12.08,12.67,1.13,2.27,3.32,11.2,3.68,15.13.15,1.43.53,3.93.83,5.57,1.24,6.49.02,9.96,4.16,14.43,2.32,2.53,5.62,1.13,8.21,1.76.06,0,1.13-.5,2.38-1.16l.87-2.35c4.84-3.03,8.25-9.15,10.32-13.57,2.66-5.68,4.13-9.99,5.21-16.87.93-6.04.42-11.33-2.68-13.17-2.97-1.76-18.67,16.77-20.88,16.1Z"/>
      <path class="cls-2" d="M101.77,601.63c-2.74-.54-4.79-.24-10.13,1.42-2.98.92-6.53,2.19-7.42,1.5-1.52-1.13-1.03-2.77.66-5.39,3.92-6.07,6.83-8.79,7.25-13.52.45-5.07-4.01-14.81-6.82-21.91-3.92-9.91-8.59-15.71-11.39-17.18-5.35-2.79-21.41-3.86-21.83-3.45-.09.09.68,1.1,1.67,2.24,2.32,2.65,3.83,5.52,5.68,10.67.8,2.26,1.81,4.83,2.26,5.69,1.22,2.38,5.02,12.99,5.52,15.35.33,1.58,3.6,6.31,3.26,10.6-.7,8.96,2.64,9.63-1.03,17.73-3.02,6.61-8.55,10.01-8.62,14.62-.06,4.23.25,6.18,3.22,8.98l2.59,3.23,2.9-4.3c2.65,2.28,7.17,1.69,9.55.53,3.52-1.72,7.73-4.1,12.66-8.6,5.19-4.74,9.47-10.53,10.66-13.33,1.46-3.54,1.35-4.52-.65-4.88Z"/>
      <path class="cls-2" d="M232.81,70.2c-2.97-1.32.31-4.22-1.24-4.52-1.94-.36-10.85-1.33-12.52-.46-1.49.74-4.92,4.19-6.86,6.84-1.49,2.08-2.93,7.71-3.56,13.84-.36,3.93-2.58,12.86-3.71,15.13-2.42,4.79.15,9.56-6.29,13.99-4.35,3.03-15.14,9.93-16.78,10.76-2.77,1.43-4.5,1.87-10.04,2.61-7.63,1-9.83.91-15.84-.64-3.07-.81-13.82-.58-15.79.31-.71.3-2,.86-2.86,1.22-2.17.89-3.4,2.29-4.5,5.27-.87,2.26-.99,3.21-1.14,8.63-.12,4.77-.04,6.61.41,8.4,1.57,6.02,1.66,8.22.61,15.85-.75,5.51-1.2,7.24-2.6,10.03-.84,1.61-7.79,12.38-10.8,16.76-4.45,6.43-7.87,9.67-12.67,12.08-2.24,1.13-11.17,3.29-15.11,3.68-1.46.15-3.96.5-5.6.83-6.49,1.24-14.14-.7-18.62,3.43-2.83,2.62-3.82,4.46-4.09,7.5-.18,2.23,4.16.22,5.31,3.29,5.06,13.6,41.22,25.32,43.62,25.54,6.04.56,14.07-1.9-1.49-22.31-3.76-4.93-4.88-6.8-4.22-8.4.78-1.85.91-3.02,4.99-2.71,4.08.27,7.92-.36,10.99-2.35,3.01-1.96,6.08-5.18,10.53-11.13,3.49-4.61,11.02-16.12,11.59-18.5,1.08-4.55.54-8.14.02-13.22-.18-1.73-.98-5.24.28-6.12,3.74-2.62,18.28,10.08,25.16,12.67,6.07,2.28,9.55-1.54,7.28-8.75-1.22-3.88-2.55-6.85-6.35-15.91-1.87-4.47-4.24-9.61-2.91-11.5,1.01-1.44,4.03-1,9.39.3,7.33,1.78,13.71-3.1,17.88-5.36,3.46-1.9,11.93-8.49,15.33-11.29,1.4-1.19,9.18-6.35,8.78-17.09-.1-2.69-.94-7.02,2.28-6.7,2.44.24,5.64,3.55,17.57,11.93,3.15,2.21,8.54,4.68,10.54,4.69,2.14,0,3.84-.8,4.11-2.43.84-5.09.04-9.77-3.14-18.32-4.16-11.11-10.65-24.61-17.92-27.84Z"/>
      <path class="cls-6" d="M325.02,779.88c-2.75,5-5.5,10.62-6.46,10.89-1.28.3-3.26-.69-4.04-3.91-.86-3.66-2.03-8.99-3.79-10.42-1.82-1.49-6.26-4.27-9.39-5.29-6.61-2.15-14.69-5.05-18.32-5.02-3.69,0-14.89,4.62-14.89,5.58,0,.18,1.55.93,2.33,1.05,1.64.27,11.14,9.93,13.37,11.1.86.45,3.39,1.46,5.6,2.24,2.2.81,4.88,1.88,5.92,2.42,5.95,3.02,8.81,15.81,14.64,28.95,1.66,3.73,8.82,3.9,11.89,4.88,1.22.36,4.52-6.57,4.52-6.57,6.93-6.53,11.42-37.54,6.49-43.07-1.42-1.59-5.45,2.79-7.87,7.17Z"/>
      <path class="cls-2" d="M317.27,23.27c-3.64,2.41-6.44,6.87-9.01,14.26-1.73,5-2.72,6.97-4.75,9.64-3.85,5.03-7.69,7.67-15.02,10.29-2.23.8-4.89,1.84-5.87,2.32-2.32,1.19-12.01,4.69-14.6,5.31-1.13.27-2.89.5-3.87.5l2.91,9.66.89.98c2.41,2.56,8.38,7.34,12.95,7.99,3.98.57,10.15-1.52,11.94-2.15,2.11-.74,14.11-5.28,16.89-13.34.95-2.75,1.41-4.79,1.88-5.3.95-1.01,2.25-.82,3.38.1,1.1.87,5.02,7.23,8.33,11.64,3.28,4.37,8.56,8.7,11.56,8.48,1.82-.13,4.67-3.48,5.29-7.61,1.53-10.24-1-35.37-9.01-42.82-3.81-3.54-10.55-12.22-13.89-9.96Z"/>
      <path class="cls-2" d="M73.92,512.07c-.53-2.22-3.34-3.98-10.01-3.93-4.57.03-10.5.9-10.81-1.53-.17-1.34,2.99-3.74,6.36-7.1,5.37-5.35,5.73-6.21,4.02-18.49-1.08-7.8-2.64-15.19-4.72-18.38-1.34-2.09-4.23-4.7-7.23-7.06-3.1-2.42-13.69-9.93-14.14-9.49-.06.09.62,1.49,1.55,3.13,3.21,5.66,5.64,18.47,5.95,31.49.11,5.09.02,6.46-.61,9.17-1.26,5.27-3.69,15.62-9.68,22.22-3.01,3.33-12.67,11.64-12.61,13.81.09,2.53,3.85.25,6.33,2.68,4.45,4.35,14.54,2.71,18.83,1.7,6.68-1.69,19.49-8.85,23.01-12.33,3.46-3.42,4.15-4.28,3.76-5.89Z"/>
      <path class="cls-2" d="M391.24,60.21s6.2-.94,7.77-2.01c2.6-1.76,6.07-6.08,7.57-7.93,3.04-3.78,3.8-5.25,5.28-5.18,1.86.09,3.12,6.88,3.83,11.53,1.33,8.37,1.54,9.23,2.79,11.98,1.08,2.36,2.78,5.42,6.2,5.42,3.6,0,6.81-6.51,8.17-13.39,2.39-12.13,6.55-28.5.24-40.52-1.38-2.63,4.73,2.6,2.95-.18-2.29-3.55-5.22-9.9-9.32-10.77-2.17-.48-5.93.29-8.28,1.66-2.09,1.22-4.98,4.58-9.13,10.59-2.18,3.18-5.22,6.99-7.9,9.85-3.04,3.24-8.91,6.57-13.83,7.82-8.04,2.02-16.18,3.14-24.34,3.34-2.98.09-7.41,4.57-7.5,4.66-.21.21,6.69,9.74,18.76,12.98,3.46.93,11.93.81,16.75.15Z"/>
      <path class="cls-2" d="M74.41,336.55c-.23.03-.61.04-.87.06-.6.1-1.16.21-1.88.3l2.75-.36Z"/>
      <path class="cls-6" d="M780.67,283.86c-1.22-2.39-5.05-12.99-5.52-15.38-.41-1.91-.32-5.81.22-10.13.12-.98.06-1.58-.18-1.58-.21,0-3.26-1.6-4.37-.47-2.27,2.26-5.41,9.5-6.34,13.39-1.72,7.2,4.45,18.81,6.42,23.9,0,0,4.66,13.16,7.82,15.56,2.75,2.09,12.04-.4,13.31,1.91,2.65,4.84-23.9,16.47-21.74,23.4.94,3.04,7.51,2.31,9.07,2.48,1.97.21,10.66-.05,16.92-.52,5.84-.44,13.16-1.92,16.98-5.23,2.45-2.13,3.07-.79,4.48-3.76.9-1.85,8.03-6.71,8-7.51-.06-3.01-3.15-6.53-7.05-8.05-4.38-1.73-15.09-7.61-18.45-10.15-5.39-4.03-14.66-4.71-17.3-12.19-.8-2.26-1.84-4.83-2.26-5.69Z"/>
      <path class="cls-2" d="M718.93,199.23c2.53,4.59,10.62,13.01,15.03,17.59,2.46,2.56,6.69,6.33,14.85,6.02,4.57-.17,6.35-.66,6.92.58.85,1.84-.3,3.39-6.44,8.36-5.66,4.55-12.07,8.94-11.32,13.36.39,2.3,9.69,2.01,14.55.8,10.99-2.76,21.88-8.59,24.54-15.29,2.18-5.49,6.96-.07,7.29-2.69.57-4.56-.41-7.15-3.98-10.46-4.46-4.15-5.53-4.65-12.03-5.91-1.64-.33-4.17-.69-5.6-.84-3.93-.39-12.86-2.58-15.13-3.71-4.79-2.42-8.18-5.67-12.61-12.11-6.66-9.66-12.25-18.99-12.25-20.48,0-1.16-3.13.8-4.72,5.3-1.55,4.53-1.75,14.7.89,19.47Z"/>
      <path class="cls-2" d="M73.54,336.62c3.28-.55,5.06-1.27,6.14-2.55,1.43-1.7,1.22-2.89-.86-4.83-.95-.92-2.83-2.39-4.17-3.28-6.61-4.45-10.41-7.88-10.41-9.33,0-1.43.95-2.27,4.14-3,9.41-2.16,13.85-16.18,16-22.4,2.43-7.03,2.55-10.04,2.42-12.37-.4-7.59-4.13-16.58-9.04-21.95l-9.29.85.23,3.43c.15,2.11.08,4.23-.19,5.51-.51,2.35-4.33,12.95-5.56,15.33-.45.86-1.46,3.42-2.27,5.69-2.63,7.32-5.2,11.07-10.41,15.09-3.1,2.44-14.42,2.58-18.91,4.36-3.58,1.4-3.85,12.85-2.47,15.73,6.41,13.42,34.69,14.77,44.65,13.73Z"/>
      <path class="cls-2" d="M60.45,428.33c4.12-1.94,5.08-4.11,4.99-5.49-.03-.98-.36-1.79-.83-2.23-1.25-1.16-8.83-4.72-12.19-5.77-4.05-1.29-6.28-2.35-6.57-3.48-.5-2,.89-3.35,5.57-5.75,7.42-3.8,8.64-14.47,8.64-14.47.95-8.65,1.5-14.03.32-17.99-.53-1.85-1.17-4.07-1.63-4.86-5.6-9.53-16.22-16.25-17.14-15.36-.21.24-.5,5.05-.56,7.8-.16,7.44-1.39,15.93-3.39,23.82-1.23,4.91-4.57,10.78-7.82,13.78-2.89,2.71-6.71,5.74-9.87,7.91-8.88,6.07-11,8.33-12.11,13.03-.84,3.54-.25,6.25,1.72,7.95,1.37,1.19,4.04-.74,7.12,1.29,12.41,8.17,35.6,3.65,43.77-.19Z"/>
      <path class="cls-2" d="M157.97,682.97c-4.01,1.7-11.36,7.55-14.2,6.66-2.44-.77.06-7.87,1.87-12.61,2.36-6.2.77-12.14-4.87-21.05-2.68-4.23-5.41-7.86-7.09-9.68-3.93-4.28-8.1-6.51-18.49-6.46-3.48.03-6.46.17-6.61.32-.15.18.74,1.04,1.99,1.94,3.45,2.51,6.07,5.9,13.98,18.1,6.3,9.72,6.51,10.25,7.54,18.03,1.03,7.63.94,9.83-.64,15.84-.84,3.25-.58,13.82.37,15.99,1.72,3.87,2.38,4.89,3.57,5.69,1.73,1.16-.37,3.01,3.36,1.26l2.47-2.34c5.19-1.01,7.61-3.29,12.12-8.43,1.62-1.88,6.81-7.68,10.66-13.4,3.71-5.52,6.13-10.97,5.51-11.85-.45-.66-.8-.78-2.32-.63-3.46.32-6.33,1.39-9.21,2.61Z"/>
      <path class="cls-6" d="M736.83,642.23c-3.72.03-6.11-3.85-12.87,2.57-5.96,5.67-11.09,12.63-14.06,17.3-3.2,5.04-9.14,13.61-6.47,20.22,1.89,4.68,2.54,8.32,1.38,9.48-2.03,2.02-22.92-17.5-27.29-15.14-2.82,1.52,5.52,15.59,7.6,19.88.77,1.64,2.82,4.83,4.52,7.06,3.69,4.92,6.17,10.12,13.51,11.84,6.81,1.59,3.51,1.5,8.58,1.74.69.03,1.7-.33,2.44-.8,1.16-.77,1.79-1.82,3.52-5.66.99-2.17,1.24-12.75.41-15.99-1.54-6.02-1.63-8.22-.58-15.9,1.08-8.1,1.32-8.64,10.93-23.01,4.83-7.23,7.82-10.98,9.9-12.44.86-.56,1.55-1.07,1.55-1.13,0-.03-1.4-.06-3.07-.03Z"/>
      <path class="cls-6" d="M633.17,764.49c.19-4.61-.56-8.28-2.63-10.16-2.21-2.01-5.03-4.53-6.34-5.49-3.6-2.63-7.77-6-10.06-8.11-1.13-1.04-5.01-4-6.2-4.77-2.05-1.31-2.29-1.37-3.57-.99-1.31.39-1.43.56-2.06,2.71-1.52,5.45.83,14.51,3.23,26.48,1.27,6.35,2.01,9.03,4.85,10.86,1.85,1.2,1.24,1.8,4.09,3.65.59.39,2.53,1.02,4.32,1.41,4.11.9,7.89.78,10.01-.32,1.52-.77,4.95-4.19,6.92-6.87,1.13-1.58,2.27-4.97,2.27-6.85,0-.66-4.93.63-4.84-1.55Z"/>
      <path class="cls-6" d="M771.62,558.04c-1.85,1.66-5.63,7.25-7.84,13.51-2.28,6.44-7.41,15.89-5.84,24.07.88,4.55,7.69,9.79,6.53,12.05-1.16,2.23-3.34.85-7.33-1.15-5.09-2.6-7.46-4.09-15.7-5.04-3.32-.38-4.98,1.34-3.22,4.59,2.73,5.16,9.89,12.05,16.32,16.25,3.24,2.15,11.81,9.56,20.28,8.12,1.88-.32,1.64,2.02,4.23,2.72l-1.26-2.09c2.53-.65.94-3.07,2.04-5.15.69-1.25.81-2.08.75-5.03-.05-4.62-.97-8.07-3.97-14.69-3.65-8.1-4.36-10.88-5.04-19.84-.32-4.29-.32-6.17,0-7.74.48-2.35,4.33-12.95,5.56-15.36.87-1.73,8.34-8.56,8.34-9.25,0-.21.09-2.29-.39-2.2-6.88,1.42-11.36,4.34-13.46,6.23Z"/>
      <path class="cls-2" d="M686.45,143.88c1.82.84.93,3.73-3.64,10.99-3.58,5.72-5.39,8.3-5.63,12.85-.15,2.7,1.61,3.75,4.45,3.5,5.39-1.25,14.41-5.28,22.34-12.01,5.69-4.88,10.49-9.28,11.47-14.23.57-2.88,4.22-3.03,4.07-4.97-.15-2.17-1.3-5.54-2.4-7.09-.65-.86-1.91-1.58-5.48-3.19-2.14-.96-12.75-1.24-15.96-.41-6.05,1.54-8.22,1.63-15.88.61-7.74-1.05-8.31-1.29-17.98-7.59-11.78-7.67-15.47-10.47-17.62-13.45l-1.4-1.91-2.3,2.82c-.97,14.29,4.01,18.4,8.58,22.58,3.58,3.27,18.28,13.9,25.4,12.39,2.98-.63,11.28-1.2,11.97-.9Z"/>
      <path class="cls-6" d="M802.07,495.05c-1.33-5.6-.54-18.59,1.76-29.51.84-4.08,1.23-5.12,2.48-7,.81-1.19,1.42-4.42,1.26-4.38-4.49,1.2-10.02,5.71-12.58,8.2-2.63,2.57-3.51,15.13-4.14,18.67-1.8,9.89-1.35,17.34,1.67,22.35,1.56,2.6,4.47,5,4.77,5.6.83,1.55.67,3.99-1.08,4.41-4.62,1.09-21.92-2.71-24.08-.23-1.44,1.65-1.42,2.48.2,4.71,3.08,4.23,31.71,22.61,42.37,16.46,3.81-2.2.92-.69,5.38-1.95,2.09-.59-4.14-16.08-7.15-19.42-5.98-6.62-9.64-12.64-10.88-17.91Z"/>
      <path class="cls-6" d="M834.74,424.66c.48-.89.48-1.31-.03-3.52-1.1-4.77-3.18-7.03-12.08-13.15-3.1-2.12-6.9-5.19-9.76-7.84-2.29-2.09-5.74-7.39-6.99-10.76-1.16-3.04-2.94-12.06-3.7-18.77-.8-7.03-.71-8.58.79-11.44.39-.8.72-1.52.72-1.64,0-.42-2.15-1.31-4.35.71,0,0-4.74,4.59-6.02,9.92-.95,3.98-.23,6.71.16,12.23.16,2.32,2.05,19.33,5.65,22.58,4.05,3.65,8.86,4.95,10.07,7.25,1.14,2.17-1.29,3.93-5.96,4.55-8.64,1.12-20.06,3.45-21.13,6.15-1.45,3.66,11.47,6.4,29.72,8.68,2.41.3,16.61,1,19.03-1.36l5.45-.42c1.43-.44-2.39-1.62-1.58-3.17Z"/>
      <path class="cls-2" d="M543.89,811.07c.45-1.34.42-2.05.42-3.67l-.42,3.67Z"/>
      <path class="cls-2" d="M543.54,814.14l.35-3.07c-.19.57-.48,1.28-.89,2.2l.54.87Z"/>
      <path class="cls-2" d="M509.3,68.39c.2,8.28.55,11.26,1.71,13.46.62,1.22,1.55,4.91,6.22,3.55,7.43-2.16,24.1-33.93,18.05-52.32-.88-2.66-3.57-8.06-6.54-8.15-2.17-.06-7.81,2.97-11.15,5.97-6.62,5.95-12.64,9.61-17.91,10.85-8.94,2.13-33.72,5.17-41.37.87-3.72-2.06-3.6-2.03-2.92-.75.3.63-1.89-1.14-1.39.17,2.32,6.17,6.97,13.33,12.41,17.69,1.81,1.45,8.44,2.13,11.62,2.48,7.27.78,13.36,2.64,20.33,0,2.86-1.09,6.97-4.45,8.03-4.54,1.07-.09,1.46.21,2.02,1.14.59.98.71,2.23.88,9.59Z"/>
      <path class="cls-6" d="M535.95,793.17c-3.39-5.76-8.2-12.19-10.69-16.36-3.66-6.11-5.39-9.54-7.53-10.65-2.32-1.19-3.33-.3-4.37,2.06-1.31,3.01-2.18,14.69-4.29,24.24-1.87,8.49-.56,15.19,2.79,18.04,2.08,1.77,7.54,7.36,11.23,9.39.92.51,2.5,1.37,3.51,1.97,4.82,2.78,6.67,3.11,9.53,1.65h.03c1.73-.89,3.52-2.94,4.59-5.33,1.02-2.2,1.73-3.73,2.25-4.91l-4.71-7.67c1.02-5.44-.26-8.89-2.34-12.43Z"/>
      <path class="cls-2" d="M605.12,88.6c.77.98.53,3.04-.84,7-1.05,3.01-1.46,4.73-1.68,8.22-.65,10.43,3.68,9.45,4.93,9.24.83-.15,2.35-.86,3.4-1.6,3.73-2.62,6.41-5.38,10.2-10.41,4.21-5.62,7.43-11.52,10.57-19.23,1.64-4.11.84-7.16-.74-9.82l3.05-1.2-1.43-1.52c-2.5-2.56-3.9-3.1-7.98-3.05-4.62.06-8.07,1-14.69,3.98-8.08,3.68-10.88,4.36-19.84,5.04-4.29.32-6.17.32-7.74,0-2.32-.48-12.95-4.3-15.33-5.53-.86-.45-3.36-1.46-5.57-2.24-4.23-1.52-6.64-2.63-8.45-3.91-.57-.42-.98-.6-.92-.42,2.73,6.29,5.99,16.35,9.55,18.77,6.4,4.36,13.87,6.53,23.37,9.13,3.28.93,10.52-.46,13.42-1.88,4.45-2.18,5.73-1.83,6.74-.55Z"/>
      <path class="cls-6" d="M433.11,792.39c-.65-1.88-2.76-5.06-4.22-5.33-3.45-.66-6.76,3.81-9.96,13.39-2.63,7.8-6.12,8.66-10.22,2.46-1.93-2.89-6.39-7.74-9.49-9.17-1.07-.51-9.55-2.08-10.97-2.23-3.59-.39-5.48-.93-11.82-1.35-4.49-.3-11.79,5.62-12.89,6.24l-4.41,2.67,1.4.27c.74.15,2,.15,2.74.03,2.15-.35,13.85,3.97,20.13,5.38,6.13,1.38,7.95,1.72,12.32,4.94,3.6,2.66,8.51,8.79,10.8,12.25,3.81,5.63,8.26,10.84,10.23,12.15,1.22.78,8.95.44,10.29.5.21,0,.53.3,1.81,0l.9-.54c2.95-.71,4.23-1.36,6.29-3.24,1.78-1.64-4.95-2.67-3.35-5.18,6.84-10.75,2.69-26.71.42-33.25Z"/>
    </g>
    <circle class="cls-4" cx="423.27" cy="423.27" r="330.38" transform="translate(-175.32 423.27) rotate(-45)"/>
    <circle class="cls-4" cx="423.27" cy="423.27" r="308.02" transform="translate(-175.32 423.27) rotate(-45)"/>
    <g>
      <path class="cls-2" d="M102.03,241.59c1.07.25,1.89-.97,1.25-1.87-14.52-20.4-23.79-24.53-28.7-18.07-6.25,8.22,7.95,15.4,27.45,19.94Z"/>
      <path class="cls-2" d="M65.36,330.89c.95-.05,1.33-1.26.58-1.85-17.01-13.37-25.7-14.53-28.19-7.98-3.17,8.34,10.34,10.82,27.61,9.83Z"/>
      <path class="cls-2" d="M60.65,517.87c.66-.51.33-1.58-.5-1.63-18.99-1.19-25.86,2.31-24.4,8.3,1.86,7.62,12.89,2.67,24.9-6.66Z"/>
      <path class="cls-2" d="M48.03,421.36c.78-.34.73-1.48-.09-1.74-18.5-5.96-26.19-4.22-26.24,2.07-.07,8.01,12.09,5.89,26.33-.33Z"/>
      <path class="cls-2" d="M92.6,610.19c.51-.67-.08-1.61-.9-1.45-18.66,3.71-24.41,8.86-21.46,14.27,3.75,6.89,13.15-.71,22.36-12.82Z"/>
      <path class="cls-2" d="M153.19,692.23c.4-.73-.32-1.58-1.11-1.3-17.91,6.42-22.83,12.36-19.12,17.27,4.73,6.26,12.9-2.65,20.23-15.98Z"/>
      <path class="cls-2" d="M162.81,161.06c1.05.46,2.12-.64,1.63-1.68-11.06-23.62-19.8-29.58-26.03-23.88-7.94,7.26,5.27,17.26,24.4,25.56Z"/>
      <path class="cls-2" d="M242.22,104.85c.94.66,2.2-.2,1.93-1.32-6.1-25.36-13.46-32.95-20.71-28.61-9.23,5.52,1.7,17.97,18.78,29.93Z"/>
      <path class="cls-2" d="M424.19,58.6c.38.97,1.77.96,2.13-.02,8.19-22.26,6.45-31.71-1.22-32.09-9.76-.49-7.78,14.44-.91,32.11Z"/>
      <path class="cls-2" d="M514.3,70.83c.15,1,1.47,1.27,2.01.42,12.35-19.27,12.68-28.54,5.53-30.5-9.1-2.49-10.34,11.99-7.54,30.07Z"/>
      <path class="cls-2" d="M607.07,100.54c-.06,1,1.17,1.55,1.88.83,16.1-16.26,18.36-25.26,11.78-28.67-8.38-4.34-12.62,9.56-13.66,27.83Z"/>
      <path class="cls-2" d="M688.52,157.37c-.39.93.59,1.85,1.5,1.41,20.56-10.05,25.66-17.8,20.57-23.18-6.48-6.86-15.07,4.87-22.07,21.78Z"/>
      <path class="cls-2" d="M330.51,68.37c.6.75,1.81.35,1.85-.61,1.03-21.73-3.1-29.52-9.91-27.74-8.68,2.27-2.83,14.78,8.06,28.34Z"/>
    </g>
    <g>
      <path class="cls-1" d="M162.38,626.74c-53.7-68.75-80.81-159.27-65.89-256.07C117.83,232.15,225.19,121.96,363.22,97.71c79.74-14.01,155.48.56,218.68,35.16,1.15.63.39,2.38-.85,1.97-85.45-27.6-89.07-24.18-157.41-24.26-110.16-.13-292.92,66.57-293.21,312.34,0,7.03-.16,15.8.07,22.87.04,1.29-1.81,1.55-2.12.3-5.12-20.38-10.14-59.26-7.03-95.55.11-1.31-1.78-1.63-2.12-.36-5.48,20.34-8.44,43.36-8.47,72.72-.09,80.4,39.44,172.41,53.45,202.73.53,1.16-1.04,2.12-1.83,1.11Z"/>
      <path class="cls-1" d="M226.17,656.33c-3.25,4.88-9.84,6.19-14.72,2.94-4.88-3.25-6.19-9.84-2.94-14.72,3.25-4.88,9.84-6.19,14.72-2.94,4.88,3.25,6.19,9.84,2.94,14.72Z"/>
      <path class="cls-1" d="M231.7,673.68c-1.22,1.82-3.68,2.32-5.51,1.1-1.82-1.22-2.32-3.68-1.1-5.5,1.22-1.82,3.68-2.32,5.5-1.1,1.82,1.22,2.32,3.68,1.1,5.51Z"/>
      <path class="cls-1" d="M559.09,150.77c-2.84,1.55-3.88,5.11-2.33,7.94,1.55,2.84,5.11,3.88,7.94,2.33,2.84-1.55,3.88-5.11,2.33-7.94-1.55-2.84-5.11-3.88-7.94-2.33Z"/>
      <path class="cls-1" d="M583.92,155.96c-5.7,3.11-7.8,10.26-4.68,15.96,3.11,5.7,10.26,7.8,15.96,4.68,5.7-3.11,7.8-10.26,4.68-15.96-3.11-5.7-10.26-7.8-15.96-4.68Z"/>
    </g>
    <path class="cls-5" d="M375.28,750.19c11.98,1.74,24.18,2.84,36.54,3.27,191.9,6.53,347.1-147.74,341.69-339.68-1.33-47.22-12.57-91.96-31.71-132.21-.55-1.15-2.29-.55-2.02.69,8.67,39.55,16.03,110,16.03,141.01,0,167.86-122.61,261.8-194.98,288.75-60.81,22.64-105.43,33.23-165.44,36.32-1.12.06-1.21,1.69-.1,1.85Z"/>
    <path class="cls-5" d="M706.95,555.44c5.75-13.05,10.03-54.97,6.03-85.51-.13-1.02,1.27-1.42,1.68-.47,4.86,11.33,9.06,34.04,8.84,42.24l-1.01,24.09-15.54,19.65Z"/>
    <path class="cls-7" d="M423.75,14.52c5.68,0,9.78,5.39,15.39,13.61,1.11,1.63,2.26,3.31,3.43,4.88,4.55,6.12,11.21,10.28,18.75,11.73.89.14,13.41,1.74,13.41,1.74l9.72,1.36c1.67.15,2.44.18,3.19.19,6.84,0,13.55-2.3,18.89-6.51,1.54-1.21,3.09-2.54,4.59-3.82,5.18-4.43,11.05-9.45,16.08-9.44.76,0,1.52.11,2.34.33,5.49,1.48,8.05,7.74,11.35,17.13.65,1.86,1.33,3.79,2.05,5.61,2.81,7.09,8.16,12.83,15.08,16.18.82.37,12.49,5.15,12.49,5.15l9.05,3.83c4.12,1.48,7.52,2.06,10.97,2.06,4.16,0,8.19-.82,12-2.46,1.8-.77,3.64-1.65,5.42-2.5,5.16-2.47,11.01-5.26,15.61-5.26,1.69,0,3.08.38,4.53,1.22,4.92,2.85,5.78,9.56,6.53,19.48.15,1.97.3,4,.53,5.94.88,7.57,4.56,14.51,10.38,19.53.7.57,10.73,8.2,10.73,8.2l7.75,6.04c5.85,4.02,11.78,5.87,17.92,5.88,1.45,0,2.92-.1,4.37-.31,1.94-.28,3.94-.65,5.88-1.02,4.08-.76,8.29-1.54,12.04-1.54,4.94,0,6.99,1.37,8.46,2.85,4.01,4.02,3.1,10.73,1.26,20.51-.37,1.94-.74,3.94-1.03,5.88-1.11,7.54.65,15.19,4.97,21.55.53.73,8.25,10.7,8.25,10.7l5.92,7.83c5.59,6.54,12.52,10.25,20.09,11.14,1.94.23,3.98.39,5.94.54,9.92.77,16.63,1.65,19.47,6.57,2.84,4.92.22,11.17-4.09,20.14-.85,1.78-1.74,3.62-2.52,5.41-3.03,7-3.3,14.85-.78,22.11.32.84,5.2,12.49,5.2,12.49l3.68,9.08c3.7,7.77,9.44,13.14,16.52,15.96,1.82.73,3.74,1.4,5.6,2.06,9.38,3.31,15.64,5.9,17.1,11.39,1.46,5.49-2.68,10.85-9.16,18.39-1.29,1.5-2.62,3.04-3.83,4.58-4.73,5.97-7.03,13.49-6.47,21.15.09.89,1.79,13.39,1.79,13.39l1.21,9.75c1.57,8.46,5.72,15.13,11.83,19.69,1.57,1.17,3.25,2.32,4.88,3.44,8.2,5.63,13.58,9.74,13.57,15.42,0,5.68-5.39,9.78-13.61,15.39-1.63,1.11-3.31,2.26-4.88,3.43-6.12,4.55-10.28,11.21-11.73,18.75-.14.89-1.74,13.41-1.74,13.41l-1.35,9.71c-.68,8.58,1.61,16.1,6.33,22.08,1.21,1.54,2.54,3.09,3.82,4.59,6.47,7.56,10.6,12.93,9.12,18.41-1.48,5.49-7.74,8.05-17.13,11.35-1.86.65-3.79,1.33-5.61,2.05-7.09,2.81-12.83,8.16-16.18,15.08-.37.82-5.14,12.48-5.14,12.48l-3.83,9.05c-2.87,8.11-2.62,15.96.39,22.97.77,1.8,1.65,3.64,2.5,5.42,4.29,8.98,6.89,15.23,4.04,20.15-2.85,4.92-9.56,5.78-19.48,6.53-1.97.15-4,.3-5.95.53-7.57.88-14.51,4.56-19.53,10.38-.57.7-8.21,10.74-8.21,10.74l-6.03,7.73c-4.87,7.09-6.66,14.74-5.56,22.29.28,1.94.65,3.94,1.02,5.88,1.82,9.78,2.71,16.49-1.31,20.51-1.48,1.47-3.52,2.83-8.47,2.83-3.75,0-7.97-.8-12.04-1.57-1.94-.37-3.94-.74-5.88-1.03-1.44-.21-2.91-.32-4.36-.32-6.13,0-12.08,1.82-17.19,5.29-.73.53-10.7,8.24-10.7,8.24l-7.84,5.92c-6.54,5.59-10.25,12.52-11.14,20.09-.23,1.94-.39,3.98-.54,5.94-.77,9.92-1.65,16.63-6.57,19.47-1.45.84-2.85,1.21-4.54,1.21-4.6,0-10.44-2.82-15.6-5.3-1.78-.86-3.62-1.74-5.41-2.52-3.8-1.64-7.83-2.48-11.99-2.48-3.45,0-6.85.57-10.11,1.7-.84.32-12.49,5.2-12.49,5.2l-9.08,3.68c-7.77,3.71-13.14,9.44-15.96,16.52-.73,1.82-1.41,3.74-2.06,5.6-3.31,9.38-5.9,15.64-11.39,17.1-.81.22-1.58.32-2.34.32-5.03,0-10.89-5.04-16.05-9.48-1.5-1.29-3.04-2.61-4.58-3.83-5.33-4.22-12.03-6.55-18.87-6.56-.76,0-1.52.03-2.28.08-.89.09-13.39,1.79-13.39,1.79l-9.75,1.21c-8.46,1.57-15.13,5.72-19.69,11.83-1.17,1.57-2.32,3.25-3.44,4.88-5.63,8.2-9.74,13.58-15.42,13.57-5.68,0-9.78-5.39-15.39-13.61-1.11-1.63-2.26-3.31-3.43-4.88-4.55-6.12-11.21-10.28-18.75-11.73-.89-.14-13.41-1.74-13.41-1.74l-9.71-1.36c-1.67-.15-2.44-.18-3.19-.19-6.85,0-13.55,2.3-18.89,6.51-1.54,1.21-3.09,2.54-4.59,3.82-5.18,4.43-11.05,9.45-16.08,9.44-.76,0-1.52-.11-2.34-.33-5.49-1.48-8.05-7.74-11.35-17.13-.65-1.86-1.33-3.79-2.05-5.61-2.81-7.09-8.16-12.83-15.08-16.18-.82-.37-12.49-5.15-12.49-5.15l-9.05-3.83c-4.12-1.48-7.52-2.06-10.97-2.06-4.16,0-8.19.82-12,2.46-1.8.77-3.64,1.65-5.42,2.5-5.16,2.47-11.01,5.27-15.61,5.26-1.69,0-3.08-.38-4.53-1.22-4.92-2.85-5.78-9.56-6.53-19.48-.15-1.97-.3-4-.53-5.94-.88-7.57-4.56-14.51-10.38-19.53-.7-.57-10.75-8.22-10.75-8.22l-7.73-6.02c-5.85-4.02-11.79-5.87-17.92-5.88-1.46,0-2.92.1-4.37.31-1.94.28-3.94.65-5.88,1.02-4.08.76-8.29,1.54-12.04,1.54-4.94,0-6.99-1.37-8.46-2.85-4.01-4.02-3.1-10.73-1.26-20.51.37-1.94.74-3.94,1.03-5.88,1.11-7.54-.65-15.2-4.97-21.55-.53-.73-8.25-10.7-8.25-10.7l-5.92-7.83c-5.59-6.54-12.52-10.25-20.09-11.14-1.94-.23-3.98-.39-5.94-.54-9.92-.77-16.63-1.65-19.47-6.57-2.84-4.92-.22-11.17,4.09-20.14.86-1.78,1.74-3.62,2.52-5.41,3.03-7,3.3-14.85.78-22.1-.32-.84-5.19-12.47-5.19-12.47l-3.69-9.1c-3.71-7.77-9.44-13.14-16.52-15.96-1.82-.72-3.74-1.4-5.6-2.06-9.38-3.31-15.64-5.9-17.1-11.39-1.46-5.49,2.68-10.85,9.16-18.39,1.29-1.5,2.62-3.04,3.83-4.58,4.73-5.97,7.03-13.49,6.47-21.15-.09-.9-1.79-13.39-1.79-13.39l-1.21-9.75c-1.57-8.46-5.72-15.13-11.82-19.69-1.57-1.17-3.25-2.33-4.88-3.44-8.2-5.63-13.58-9.74-13.57-15.42,0-5.68,5.39-9.78,13.61-15.39,1.63-1.11,3.31-2.26,4.89-3.43,6.12-4.55,10.28-11.21,11.73-18.75.14-.89,1.74-13.4,1.74-13.4l1.36-9.72c.68-8.58-1.61-16.1-6.33-22.08-1.21-1.54-2.54-3.09-3.82-4.59-6.47-7.56-10.6-12.93-9.12-18.41,1.48-5.49,7.74-8.05,17.13-11.35,1.86-.65,3.79-1.33,5.61-2.05,7.09-2.81,12.83-8.16,16.18-15.08.37-.82,5.15-12.5,5.15-12.5l3.82-9.03c2.87-8.11,2.62-15.96-.39-22.97-.77-1.8-1.65-3.64-2.5-5.42-4.29-8.98-6.89-15.23-4.04-20.14,2.85-4.92,9.56-5.78,19.48-6.52,1.97-.15,4-.3,5.94-.53,7.57-.88,14.51-4.56,19.53-10.38.57-.7,8.2-10.72,8.2-10.72l6.04-7.75c4.87-7.09,6.66-14.74,5.56-22.29-.28-1.94-.65-3.94-1.02-5.88-1.82-9.78-2.71-16.49,1.31-20.5,1.48-1.47,3.52-2.83,8.47-2.83,3.75,0,7.97.8,12.04,1.57,1.94.37,3.94.74,5.88,1.03,1.44.21,2.91.32,4.37.32,6.13,0,12.08-1.82,17.19-5.29.73-.53,10.7-8.24,10.7-8.24l7.84-5.92c6.54-5.59,10.25-12.52,11.14-20.09.23-1.94.39-3.98.54-5.94.77-9.92,1.65-16.63,6.57-19.47,1.45-.84,2.85-1.21,4.53-1.21,4.6,0,10.44,2.82,15.6,5.3,1.78.86,3.62,1.74,5.41,2.51,3.8,1.64,7.83,2.48,11.99,2.48,3.45,0,6.85-.57,10.11-1.7.84-.32,12.48-5.2,12.48-5.2l9.09-3.68c7.77-3.71,13.14-9.44,15.96-16.52.72-1.82,1.4-3.74,2.06-5.6,3.31-9.38,5.9-15.64,11.38-17.1.81-.22,1.58-.32,2.34-.32,5.03,0,10.89,5.04,16.06,9.48,1.5,1.29,3.04,2.62,4.58,3.83,5.33,4.22,12.03,6.55,18.87,6.56.76,0,1.52-.03,2.28-.08.89-.09,13.39-1.79,13.39-1.79l9.75-1.21c8.46-1.57,15.13-5.72,19.69-11.83,1.17-1.57,2.33-3.25,3.44-4.88,5.63-8.2,9.74-13.58,15.42-13.57h0ZM423.77,0c-16.25-.02-23.99,15.54-30.52,24.28-2.39,3.2-5.92,5.36-9.84,6.1l-9.83,1.22-12.58,1.71c-.4.03-.8.04-1.2.04-3.57,0-7.06-1.18-9.87-3.42-7.4-5.86-17-16.44-29.63-16.45-1.96,0-3.99.25-6.09.81-15.7,4.19-19.15,21.22-23.19,31.35-1.48,3.71-4.33,6.71-7.93,8.44l-9.18,3.72-11.71,4.9c-1.73.6-3.53.9-5.33.9-2.13,0-4.26-.43-6.24-1.29-7.21-3.12-16.73-8.99-26.76-9.01-3.89,0-7.86.87-11.8,3.14-14.08,8.11-13,25.46-14.29,36.29-.47,3.97-2.44,7.6-5.47,10.21l-7.91,5.97-10.04,7.77c-2.67,1.82-5.82,2.79-9.02,2.78-.75,0-1.51-.06-2.26-.17-5.63-.83-12.81-2.74-20.02-2.75-6.61,0-13.24,1.58-18.74,7.07-11.5,11.47-5.97,27.95-4.41,38.75.57,3.95-.39,7.97-2.64,11.27l-6.09,7.81-7.69,10.1c-2.61,3.02-6.25,4.99-10.22,5.45-10.84,1.26-28.18.14-36.32,14.2-8.14,14.06,1.47,28.55,5.77,38.57,1.58,3.67,1.68,7.8.36,11.57l-4.89,11.55,1.03-2.43-4.81,11.75c-1.74,3.6-4.75,6.44-8.46,7.91-10.14,4.02-27.19,7.43-31.41,23.12-4.22,15.69,8.8,27.2,15.56,35.76,2.47,3.14,3.65,7.1,3.35,11.08l-1.37,9.81-1.61,12.59c-.75,3.92-2.92,7.44-6.13,9.83C15.6,398.81.02,406.52,0,422.77c-.02,16.25,15.54,23.99,24.28,30.52,3.2,2.39,5.36,5.92,6.1,9.84l1.22,9.83,1.71,12.58c.29,3.98-.89,7.95-3.37,11.08-6.77,8.55-19.83,20.03-15.64,35.72,4.19,15.7,21.22,19.15,31.35,23.19,3.71,1.48,6.71,4.33,8.44,7.93l4.71,11.62-.99-2.45,4.91,11.71c1.31,3.77,1.19,7.91-.39,11.57-4.33,10.01-13.97,24.48-5.86,38.56,8.11,14.08,25.46,13,36.29,14.29,3.97.47,7.6,2.44,10.21,5.47l7.56,10.01-1.59-2.11,7.77,10.04c2.24,3.3,3.2,7.33,2.62,11.28-1.59,10.79-7.16,27.26,4.32,38.76,5.49,5.5,12.12,7.1,18.72,7.11,7.21,0,14.39-1.89,20.03-2.71.75-.11,1.51-.16,2.26-.16,3.2,0,6.34.98,9.01,2.81l9.89,7.71-2.08-1.62,10.1,7.69c3.02,2.61,4.99,6.25,5.45,10.22,1.26,10.84.14,28.18,14.2,36.32,3.93,2.28,7.9,3.16,11.79,3.17,10.02.01,19.56-5.84,26.78-8.94,1.99-.86,4.12-1.28,6.25-1.28,1.8,0,3.6.31,5.33.91l11.55,4.89-2.43-1.03,11.75,4.81c3.6,1.74,6.44,4.75,7.91,8.46,4.02,10.14,7.43,27.19,23.12,31.41,2.1.57,4.14.82,6.09.83,12.63.01,22.25-10.54,29.67-16.38,2.82-2.22,6.31-3.4,9.88-3.39.4,0,.8.02,1.2.05l9.81,1.37,12.59,1.61c3.92.75,7.44,2.92,9.83,6.13,6.5,8.76,14.21,24.34,30.46,24.36,16.25.02,23.99-15.54,30.52-24.28,2.39-3.2,5.92-5.36,9.84-6.1l9.83-1.22,12.58-1.71c.4-.03.8-.04,1.2-.04,3.57,0,7.06,1.18,9.87,3.42,7.4,5.86,17,16.44,29.63,16.45,1.96,0,3.99-.25,6.09-.81,15.7-4.19,19.15-21.22,23.19-31.35,1.48-3.71,4.33-6.71,7.93-8.44l11.62-4.71-2.45.99,11.71-4.91c1.73-.6,3.53-.9,5.33-.9,2.13,0,4.26.43,6.24,1.29,7.21,3.12,16.73,8.99,26.76,9.01,3.89,0,7.86-.88,11.8-3.14,14.08-8.11,13-25.46,14.29-36.29.47-3.97,2.44-7.6,5.47-10.21l7.91-5.97,10.04-7.77c2.67-1.82,5.82-2.79,9.02-2.78.75,0,1.51.06,2.26.17,5.63.83,12.81,2.74,20.02,2.75,6.61,0,13.24-1.58,18.74-7.07,11.5-11.47,5.97-27.96,4.41-38.75-.57-3.95.39-7.97,2.64-11.27l7.71-9.89-1.62,2.08,7.69-10.1c2.61-3.02,6.25-4.99,10.22-5.45,10.84-1.26,28.18-.14,36.32-14.2,8.14-14.06-1.47-28.55-5.77-38.57-1.58-3.67-1.68-7.8-.36-11.57l3.86-9.13,4.81-11.74c1.74-3.6,4.75-6.44,8.46-7.91,10.14-4.02,27.19-7.43,31.41-23.12,4.22-15.69-8.8-27.2-15.56-35.76-2.47-3.14-3.65-7.1-3.35-11.08l1.73-12.42-.37,2.62,1.61-12.6c.75-3.92,2.92-7.44,6.13-9.83,8.76-6.5,24.34-14.21,24.36-30.46.02-16.25-15.54-23.99-24.28-30.52-3.2-2.39-5.36-5.92-6.1-9.84l-1.22-9.83-1.71-12.58c-.29-3.98.89-7.95,3.37-11.08,6.77-8.55,19.83-20.03,15.64-35.72-4.19-15.7-21.22-19.15-31.35-23.19-3.71-1.48-6.71-4.33-8.44-7.93l-4.71-11.62.99,2.45-4.9-11.71c-1.31-3.77-1.19-7.91.39-11.57,4.33-10.01,13.97-24.48,5.86-38.56-8.11-14.08-25.46-13-36.29-14.29-3.97-.47-7.6-2.44-10.21-5.47l-7.56-10.01,1.59,2.11-7.77-10.04c-2.24-3.3-3.2-7.33-2.62-11.28,1.59-10.79,7.16-27.26-4.32-38.76-5.49-5.5-12.12-7.1-18.72-7.11-7.21,0-14.39,1.89-20.03,2.71-.75.11-1.51.16-2.26.16-3.2,0-6.34-.98-9.01-2.81l-7.81-6.09-10.1-7.69c-3.02-2.61-4.99-6.25-5.45-10.22-1.26-10.84-.14-28.18-14.2-36.32-3.93-2.28-7.9-3.16-11.79-3.17-10.02-.01-19.56,5.84-26.78,8.94-1.99.86-4.12,1.28-6.25,1.28-1.8,0-3.6-.31-5.33-.91l-11.55-4.89,2.43,1.03-11.75-4.81c-3.6-1.74-6.44-4.75-7.91-8.46-4.02-10.14-7.43-27.19-23.12-31.41-2.1-.57-4.14-.82-6.09-.83-12.63-.02-22.25,10.54-29.67,16.38-2.82,2.22-6.31,3.4-9.88,3.39-.4,0-.8-.02-1.2-.05l-9.81-1.37-12.59-1.61c-3.92-.75-7.44-2.92-9.83-6.13C447.72,15.6,440.01.02,423.77,0h0ZM474.03,31.72l2.61.37s-2.61-.37-2.61-.37h0ZM273.91,57.81l-2.45.99,2.45-.99h0ZM184.41,108.92l-2.11,1.59,2.1-1.59h0ZM663,109.56l2.08,1.62s-2.08-1.62-2.08-1.62h0ZM111.19,181.45l-1.63,2.08,1.62-2.08h0ZM32.09,369.89l-.37,2.62.36-2.61h0ZM788.33,573.64l-1.03,2.42s1.03-2.42,1.03-2.42h0ZM664.23,736.02l-2.1,1.59s2.1-1.59,2.1-1.59h0ZM369.89,814.44l2.62.37-2.61-.37h0Z"/>
    <g>
      <path class="cls-3" d="M323.06,423.99l-12.42,50.94c-3.24-1.8-6.84-3.06-9.72-3.06-3.96,0-17.64,3.6-37.26,3.6-45.9,0-79.2-29.52-79.2-72s34.38-71.82,79.2-71.82c21.24,0,32.4,3.78,37.44,3.78,2.88,0,6.66-1.44,9.72-3.24l12.24,50.94-13.32,5.22c-6.12-13.32-14.58-18.36-36-18.36s-39.78,12.6-39.78,33.84,15.12,33.3,39.78,33.3c21.78,0,29.88-4.32,36-17.82l13.32,4.68ZM321.08,425.07l-10.62-3.78c-5.94,12.96-14.76,17.46-36.72,17.46-25.38,0-41.4-13.68-41.4-34.92,0-22.5,19.26-35.46,41.4-35.46s30.78,5.4,36.72,18l10.62-4.14-11.34-47.7c-1.8,1.08-5.22,2.52-8.64,2.52-5.04,0-16.2-3.78-37.44-3.78-44.1,0-77.58,30.06-77.58,70.2s32.4,70.38,77.58,70.38c19.62,0,34.02-3.6,37.26-3.6,3.06,0,6.12,1.26,8.64,2.52l11.52-47.7ZM315.5,428.49l-9.72,37.08c-1.26-.36-3.06-.54-4.86-.54-2.88,0-17.64,3.6-37.26,3.6-42.66,0-72.18-27.18-72.18-65.16s30.42-64.8,72.18-64.8c21.24,0,32.4,3.78,37.44,3.78,1.8,0,3.6-.36,4.86-.72l9.54,37.26-2.34.9c-5.94-11.34-17.64-16.74-39.42-16.74-23.76,0-46.62,14.22-46.62,40.68,0,25.02,19.26,40.32,46.62,40.32,21.78,0,33.3-4.5,39.42-16.38l2.34.72Z"/>
      <path class="cls-3" d="M409.1,474.75c-27.9,0-55.62-1.62-74.88-3.06v-14.58c9.72,0,9.9-1.98,9.9-6.12v-93.24c0-6.12-.72-7.38-9.9-7.38v-14.76c19.08-1.62,45-3.24,73.26-3.24,52.02,0,86.76,27.9,86.76,71.1s-25.56,71.28-85.14,71.28ZM407.48,334c-28.08,0-54.18,1.62-71.64,3.06v11.7c7.92,0,9.9,1.62,9.9,9v93.24c0,5.58-1.62,7.74-9.9,7.74v11.34c17.64,1.26,45.36,3.06,73.26,3.06,58.68,0,83.52-29.34,83.52-69.66s-33.84-69.48-85.14-69.48ZM409.1,467.73c-26.82,0-53.64-1.44-68.04-2.52v-2.34c6.48,0,9.9-3.96,9.9-11.88v-93.24c0-9-3.06-13.5-9.9-13.5v-2.34c14.22-1.08,39.42-2.7,66.42-2.7,49.5,0,79.92,26.1,79.92,64.26s-21.96,64.26-78.3,64.26ZM406.94,365.13c-9.36,0-14.04.36-21.24,1.26v74.7c6.66.9,14.58,1.26,23.22,1.26,25.02,0,42.84-12.96,42.84-39.24s-19.98-37.98-44.82-37.98ZM408.92,437.13c-6.84,0-13.14-.36-18-.9v-64.98c4.32-.54,8.82-.9,16.02-.9,23.4,0,39.42,9.54,39.42,32.76s-14.58,34.02-37.44,34.02ZM406.94,371.97c-6.3,0-10.44.36-14.4.72v62.1c4.5.36,10.44.72,16.38.72,22.14,0,35.82-10.98,35.82-32.4s-14.76-31.14-37.8-31.14Z"/>
      <path class="cls-3" d="M649.4,472.23h-55.8c-9.36-11.52-16.56-26.82-21.06-39.06h-9v17.82c0,4.5.9,6.12,10.08,6.12v15.12h-68.4v-15.12c9,0,9.9-1.08,9.9-6.12v-95.04c0-4.14-.72-5.58-9.9-5.58v-14.76c19.26-.9,51.48-2.34,65.7-2.34,38.7,0,78.48,10.26,78.48,49.86,0,19.62-11.7,33.48-30.24,41.04,5.04,10.08,11.7,18.9,19.26,28.44,1.98,2.52,3.78,4.5,10.98,4.5v15.12ZM647.78,470.61v-11.88c-6.48,0-8.64-2.16-10.8-5.04-8.46-10.98-14.94-19.62-20.16-30.42,19.08-7.2,30.96-20.7,30.96-40.14,0-37.98-37.8-48.24-76.86-48.24-14.22,0-46.26,1.26-64.08,2.16v11.7c9.18,0,9.9,2.16,9.9,7.2v95.04c0,6.3-1.44,7.74-9.9,7.74v11.88h64.98v-11.88c-8.46,0-9.9-1.8-9.9-7.74v-19.44h11.88c4.32,12.42,11.52,28.08,20.52,39.06h53.46ZM642.38,465.21h-45.54c-7.74-9.72-14.76-25.74-19.08-39.06h-21.06v24.84c0,8.28,3.42,12.06,9.9,12.06v2.16h-54.54v-2.16c7.2,0,9.9-3.6,9.9-12.06v-95.04c0-7.02-2.16-11.52-9.9-11.52v-2.16c14.76-.72,45.18-1.98,58.86-1.98,39.6,0,71.46,10.44,71.46,42.84,0,17.64-11.16,30.06-32.76,36.9,6.3,14.76,13.68,24.66,23.22,36.9,2.34,3.06,4.68,6.12,9.54,6.12v2.16ZM573.62,366.39c-5.22,0-11.34.54-16.92.72v35.82c5.76.72,12.42.9,17.28.9,19.44,0,32.94-4.5,32.94-19.08s-12.42-18.36-33.3-18.36ZM573.98,398.61c-3.6,0-8.1-.18-12.06-.54v-25.92c3.6-.18,7.92-.36,11.7-.36,21.96,0,28.08,3.6,28.08,12.96s-7.74,13.86-27.72,13.86ZM573.62,373.41c-3.24,0-6.84.18-10.08.36v22.86c3.42.18,7.38.18,10.44.18,20.16,0,26.1-4.68,26.1-12.06s-4.32-11.34-26.46-11.34Z"/>
    </g>
    <g>
      <path class="cls-3" d="M333.05,556.36h-8.59l.59-1.62-1.51-6.26-.81-.81h-6.75l-.81.81-1.51,6.26.59,1.62h-8.59l1.35-2.75,8.42-35.91-.76-2.38h9.34l-.76,2.38,8.42,35.91,1.35,2.75ZM317.39,540.76h4l.65-.59-2.65-13.12-2.65,13.12.65.59Z"/>
      <path class="cls-3" d="M356.43,528.28h-8.59l.81-2.59v-2.7l-.81-.76h-5.24l-.81.76v8.64l.81.81h9.5l3.4,3.4v17.12l-3.4,3.4h-13.66l-3.56-3.4v-6.91l-.76-2.59h8.53l-.86,2.59v2.7l.81.76h5.24l.81-.76v-8.64l-.81-.81h-9.4l-3.56-3.46v-17.17l3.56-3.35h13.66l3.4,3.35v7.02l.92,2.59Z"/>
      <path class="cls-3" d="M382.51,528.28h-8.59l.81-2.59v-2.7l-.81-.76h-5.24l-.81.76v8.64l.81.81h9.5l3.4,3.4v17.12l-3.4,3.4h-13.66l-3.56-3.4v-6.91l-.76-2.59h8.53l-.86,2.59v2.7l.81.76h5.24l.81-.76v-8.64l-.81-.81h-9.4l-3.56-3.46v-17.17l3.56-3.35h13.66l3.4,3.35v7.02l.92,2.59Z"/>
      <path class="cls-3" d="M407.46,518.67v34.29l-3.4,3.4h-13.66l-3.46-3.4v-34.29l3.46-3.35h13.66l3.4,3.35ZM399.73,522.23h-5.18l-.81.76v25.76l.81.76h5.18l.81-.76v-25.76l-.81-.76Z"/>
      <path class="cls-3" d="M412.53,552.96v-34.29l3.46-3.35h13.66l3.4,3.35v6.91l.86,2.59h-8.59l.92-2.59v-2.7l-.76-.81h-5.35l-.81.81v25.76l.81.81h5.35l.76-.81v-2.65l-.92-2.59h8.59l-.86,2.59v6.97l-3.4,3.4h-13.66l-3.46-3.4Z"/>
      <path class="cls-3" d="M446.39,556.36h-8.48l.86-2.59v-35.8l-.86-2.65h8.48l-.86,2.65v35.8l.86,2.59Z"/>
      <path class="cls-3" d="M476.3,556.36h-8.59l.59-1.62-1.51-6.26-.81-.81h-6.75l-.81.81-1.51,6.26.59,1.62h-8.59l1.35-2.75,8.42-35.91-.76-2.38h9.34l-.76,2.38,8.42,35.91,1.35,2.75ZM460.64,540.76h4l.65-.59-2.65-13.12-2.65,13.12.65.59Z"/>
      <path class="cls-3" d="M497.53,522.99l-2.92-.76h-5.13l-.76.76v30.78l.86,2.59h-8.59l.86-2.59v-30.78l-.81-.76h-5.24l-2.81.76,1.24-7.67h21.98l1.3,7.67Z"/>
      <path class="cls-3" d="M500.28,556.36l.86-2.65v-35.8l-.86-2.59h20.52l1.24,7.56-2.81-.81h-10.53l-.81.81v8.48l.81.81h3.46l2.65-.86v8.59l-2.65-.86h-3.46l-.81.76v8.86l.81.81h10.53l2.81-.81-1.24,7.72h-20.52Z"/>
      <path class="cls-3" d="M546.99,528.28h-8.59l.81-2.59v-2.7l-.81-.76h-5.24l-.81.76v8.64l.81.81h9.5l3.4,3.4v17.12l-3.4,3.4h-13.66l-3.56-3.4v-6.91l-.76-2.59h8.53l-.86,2.59v2.7l.81.76h5.24l.81-.76v-8.64l-.81-.81h-9.4l-3.56-3.46v-17.17l3.56-3.35h13.66l3.4,3.35v7.02l.92,2.59Z"/>
    </g>
  </g>
</svg>