<?xml version="1.0" encoding="UTF-8"?>
<svg id="Layer_2" data-name="Layer 2" xmlns="http://www.w3.org/2000/svg" viewBox="0 0 846.53 846.53">
  <defs>
    <style>
      .cls-1 {
        fill: #e2ddcb;
      }

      .cls-2 {
        fill: #415bb8;
      }

      .cls-3 {
        fill: #dbd8bd;
      }

      .cls-4 {
        fill: #1e1a1b;
      }

      .cls-5 {
        fill: #1b2a5d;
      }

      .cls-6 {
        fill: #2d4394;
      }

      .cls-7 {
        fill: #1f2e65;
      }
    </style>
  </defs>
  <g id="Layer_1-2" data-name="Layer 1">
    <path class="cls-6" d="M816.38,453.77c8.63-6.41,23.98-14.01,24-30.02.02-16.01-15.32-23.64-23.93-30.07-3.15-2.36-5.28-5.83-6.01-9.7l-1.2-9.68-1.68-12.4c-.29-3.93.88-7.83,3.32-10.92,6.68-8.43,19.54-19.74,15.42-35.21-4.13-15.47-20.91-18.87-30.9-22.85-3.66-1.46-6.61-4.26-8.32-7.81l-4.64-11.45.98,2.41-4.83-11.54c-1.29-3.72-1.18-7.79.38-11.4,4.27-9.87,13.77-24.12,5.78-38-7.99-13.87-25.09-12.82-35.76-14.08-3.91-.46-7.49-2.41-10.06-5.39l-7.45-9.86,1.57,2.08-7.66-9.9c-2.21-3.26-3.15-7.22-2.58-11.12,1.57-10.63,7.05-26.86-4.25-38.2-11.31-11.33-27.55-5.89-38.19-4.34-3.9.57-7.86-.39-11.11-2.61l-9.75-7.6,2.05,1.6-9.96-7.58c-2.98-2.57-4.92-6.16-5.37-10.07-1.24-10.68-.14-27.77-13.99-35.79-13.86-8.02-28.13,1.44-38.01,5.69-3.62,1.55-7.69,1.66-11.41.36l-11.38-4.82,2.4,1.01-11.58-4.74c-3.54-1.71-6.34-4.68-7.79-8.34-3.96-9.99-7.32-26.79-22.78-30.95-15.46-4.16-26.8,8.68-35.24,15.33-3.09,2.44-7,3.59-10.92,3.3l-12.24-1.71,2.58.36-12.41-1.58c-3.87-.74-7.34-2.88-9.68-6.04-6.41-8.63-14.01-23.98-30.02-24-16.01-.02-23.64,15.32-30.07,23.93-2.35,3.15-5.83,5.28-9.7,6.01l-9.68,1.2-12.4,1.68c-3.93.29-7.83-.88-10.92-3.32-8.42-6.68-19.74-19.54-35.21-15.42-15.47,4.13-18.87,20.91-22.85,30.9-1.46,3.66-4.26,6.61-7.81,8.32l-11.46,4.64,2.41-.98-11.54,4.83c-3.72,1.29-7.79,1.18-11.41-.39-9.87-4.27-24.12-13.77-38-5.78-13.87,7.99-12.82,25.09-14.08,35.76-.46,3.91-2.41,7.49-5.39,10.06l-9.86,7.45,2.08-1.57-9.9,7.66c-3.26,2.21-7.22,3.15-11.12,2.58-10.63-1.57-26.86-7.05-38.2,4.25-11.33,11.31-5.89,27.55-4.34,38.19.56,3.9-.39,7.86-2.61,11.11l-7.6,9.75,1.6-2.05-7.58,9.96c-2.57,2.98-6.16,4.92-10.07,5.37-10.68,1.24-27.77.14-35.79,13.99-8.02,13.86,1.44,28.13,5.69,38.01,1.55,3.62,1.66,7.69.36,11.41l-4.82,11.38,1.01-2.4-4.74,11.58c-1.72,3.54-4.68,6.34-8.34,7.79-9.99,3.96-26.79,7.32-30.95,22.78-4.16,15.46,8.68,26.8,15.33,35.24,2.44,3.09,3.59,7,3.3,10.92l-1.71,12.24.36-2.58-1.58,12.41c-.74,3.87-2.88,7.34-6.04,9.68-8.63,6.41-23.98,14.01-24,30.02-.02,16.01,15.32,23.64,23.93,30.07,3.15,2.36,5.28,5.83,6.01,9.7l1.2,9.68,1.68,12.4c.29,3.93-.88,7.83-3.32,10.92-6.68,8.42-19.54,19.74-15.42,35.21,4.13,15.47,20.91,18.87,30.9,22.85,3.66,1.46,6.61,4.26,8.32,7.81l4.64,11.46-.98-2.41,4.83,11.54c1.29,3.72,1.18,7.79-.38,11.41-4.27,9.87-13.77,24.12-5.78,38,7.99,13.87,25.09,12.82,35.76,14.08,3.91.46,7.49,2.41,10.06,5.39l7.45,9.86-1.57-2.08,7.66,9.9c2.21,3.26,3.15,7.22,2.58,11.12-1.57,10.63-7.05,26.86,4.25,38.2,11.31,11.33,27.55,5.89,38.19,4.34,3.9-.56,7.86.39,11.11,2.61l9.75,7.6-2.05-1.6,9.96,7.58c2.98,2.57,4.92,6.16,5.37,10.07,1.24,10.68.14,27.77,13.99,35.79,13.86,8.02,28.13-1.44,38.01-5.69,3.62-1.55,7.69-1.66,11.41-.36l11.38,4.82-2.4-1.01,11.58,4.74c3.54,1.72,6.34,4.68,7.79,8.34,3.96,9.99,7.32,26.79,22.78,30.95,15.46,4.16,26.8-8.68,35.24-15.33,3.09-2.44,7-3.59,10.92-3.3l12.24,1.71-2.58-.36,12.41,1.58c3.87.74,7.34,2.88,9.68,6.04,6.41,8.63,14.01,23.98,30.02,24,16.01.02,23.64-15.32,30.07-23.93,2.36-3.15,5.83-5.28,9.7-6.01l9.68-1.2,12.4-1.68c3.93-.29,7.83.88,10.92,3.32,8.43,6.68,19.74,19.54,35.21,15.41,15.47-4.13,18.87-20.91,22.85-30.9,1.46-3.66,4.26-6.61,7.81-8.32l11.45-4.64-2.41.98,11.54-4.83c3.72-1.29,7.79-1.18,11.4.38,9.87,4.27,24.12,13.77,38,5.78,13.87-7.99,12.82-25.09,14.08-35.76.46-3.91,2.41-7.49,5.39-10.06l9.86-7.45-2.08,1.57,9.9-7.66c3.26-2.21,7.22-3.15,11.12-2.58,10.63,1.57,26.86,7.05,38.2-4.25,11.33-11.31,5.89-27.55,4.34-38.19-.57-3.9.39-7.86,2.61-11.11l7.6-9.75-1.6,2.05,7.58-9.96c2.57-2.98,6.16-4.91,10.07-5.37,10.68-1.24,27.77-.14,35.79-13.99,8.02-13.86-1.44-28.13-5.69-38.01-1.55-3.62-1.66-7.69-.36-11.41l4.82-11.38-1.01,2.4,4.74-11.58c1.72-3.54,4.68-6.34,8.34-7.79,9.99-3.96,26.79-7.32,30.95-22.78,4.16-15.46-8.68-26.8-15.33-35.24-2.44-3.09-3.59-7-3.3-10.92l1.71-12.24-.36,2.58,1.58-12.41c.74-3.87,2.88-7.34,6.04-9.68Z"/>
    <path class="cls-7" d="M843.02,432.27c-2.59-4.53-4.19-9.6-4.08-14.8.05-2.67.37-5.08.85-7.36-.16-.26-.26-.55-.42-.81-8.33-6.01-23.87-14.42-23.87-16.62,0-2.47-8.89-38.04-8.4-40.51.49-2.47,6.42-15.31,10.87-19.76,4.45-4.45,11.36-6.42,9.88-15.81-1.48-9.39-1.41-11.48-12.84-14.33-20.87-5.2-29.15-22.62-29.15-22.62,0,0-7.9-25.3-7.41-27.28.49-1.98,10.72-34.94,10.72-34.94l-7.27-12.97-36.06-2.96s-24.04-28.16-23.63-30.14c.41-1.98,3.38-23.71,3.38-25.69s-5.43-20.75-5.43-20.75c0,0-4.94-2.96-14.33-.99-9.39,1.98-21.21,2.73-23.7,3.34-2.49.61-22.74,9.27-22.74,9.27,55.33,81.75,93.38,281.33-17.04,404.83-110.42,123.5-272.95,198.27-272.95,198.27,0,0-85.72,21.95-234.29-86.19l-10.25,36.12,2.47,31.62s12.35,4.94,13.83,4.94,26.68-2.96,26.68-2.96l25.19,14.33s13.83,30.63,12.35,33.1c-1.48,2.47,8.89,17.79,8.89,17.79,0,0,19.27-14.33,39.52-10.87,20.25,3.46,40.51,12.84,40.02,15.81-.49,2.96,5.93,23.61,8.89,25.15,2.96,1.53,19.27,9.51,19.27,9.51,0,0,29.64-18.35,31.62-18.85,1.98-.49,31.62,5.93,35.57,7.9,3.95,1.98,18.28,17.08,19.76,18.67,1.48,1.59,5.93,5.54,5.93,5.54,0,0,9.39,6.92,14.82,1.48,5.43-5.43,12.35-10.79,16.3-16.76,3.95-5.96-9.39-12.86,13.34-15.09,22.72-2.24,38.04,0,38.04,0l21.1,17.65,13.48,3.33s13.41-10.51,13.05-12.35c-.35-1.84,9.18-24.7,10.16-26.18.99-1.48,9.39-8.89,9.39-8.89l31.1-5.68s23.71,10.13,25.19,9.63c1.48-.49,15.81-4.45,15.81-5.93s3.97-13.71,8.42-25.88c4.45-12.17,4.94-26.49,14.82-28.47,9.88-1.98,10.38-5.43,20.25-4.45,9.88.99,11.34,2.23,21.22-1.23,9.88-3.46,6.96,3.92,12.98-2.59,6.02-6.51,6.8-1.12,7.3-10.51.5-9.38-.99-16.3,1.48-23.71,2.47-7.41.49-6.42,5.93-15.81,5.44-9.39,5.81-15.31,11.3-19.76,5.49-4.45,11.78-7.9,16.29-7.9s17.85,3.46,24.28-1.48c6.42-4.94,11.86-4.94,8.4-15.81-3.46-10.87-14.32-20.75-15.06-26.18-.74-5.43,10.62-23.71,13.09-27.17,2.47-3.46.99-10.87,7.41-14.32,6.42-3.46,27.67-14.82,30.13-18.77,2.47-3.95,8.87-13.58,3.95-19.76-10.01-12.57-16.8-11.86-17.78-25.69-.99-13.83-1.4-34.09,1.77-37.05,2.94-2.75,26.07-16.54,30.2-23.65Z"/>
    <g>
      <path class="cls-6" d="M220.26,752.22c-3-.91-.91-6.78-.57-8.73,1.04-6.07-1.62-8.43-3.39-10.56-1.56-1.89-10.9-9.81-13.84-11.71-2.25-1.47-5.54-3.46-8.77-3.53-3.34-.07-12.08.71-16.38,2.85l-1.47.63,2.22,1.05c2.07.96,12.13,7.38,17.81,11.29,6.49,4.52,9.76,7.95,12.19,12.79,1.14,2.29,3.35,11.31,3.71,15.27.15,1.44.54,3.97.84,5.62,1.25,6.55.02,10.05,4.19,14.56,2.34,2.56,5.67,1.14,8.29,1.77.06,0,1.14-.51,2.41-1.17l.87-2.38c4.88-3.06,8.33-9.23,10.41-13.69,2.68-5.73,4.17-10.08,5.26-17.02.94-6.1.42-11.43-2.71-13.29-2.99-1.77-18.84,16.92-21.07,16.24Z"/>
      <path class="cls-3" d="M98.86,603.24c-2.76-.54-4.84-.25-10.22,1.43-3.01.93-6.59,2.21-7.49,1.52-1.53-1.14-1.04-2.8.67-5.44,3.95-6.13,6.89-8.87,7.32-13.64.46-5.12-4.04-14.94-6.88-22.11-3.96-10-8.67-15.86-11.49-17.33-5.39-2.82-21.6-3.9-22.03-3.48-.09.09.69,1.11,1.68,2.26,2.34,2.68,3.87,5.56,5.73,10.77.81,2.28,1.83,4.87,2.28,5.74,1.23,2.41,5.06,13.11,5.57,15.48.33,1.59,3.63,6.37,3.29,10.7-.7,9.05,2.67,9.72-1.04,17.89-3.04,6.67-8.63,10.1-8.69,14.75-.07,4.27.25,6.23,3.25,9.06l2.61,3.26,2.93-4.33c2.68,2.3,7.23,1.7,9.64.53,3.55-1.74,7.8-4.14,12.77-8.67,5.24-4.78,9.55-10.63,10.76-13.45,1.48-3.58,1.36-4.57-.66-4.93Z"/>
      <path class="cls-3" d="M231.08,67c-3-1.33.32-4.26-1.25-4.56-1.95-.36-10.95-1.34-12.63-.47-1.5.75-4.96,4.23-6.92,6.9-1.51,2.1-2.95,7.78-3.59,13.97-.37,3.97-2.6,12.98-3.74,15.26-2.44,4.83.15,9.65-6.35,14.12-4.39,3.06-15.28,10.02-16.93,10.86-2.8,1.44-4.54,1.89-10.13,2.63-7.69,1.01-9.92.92-15.99-.65-3.09-.82-13.94-.59-15.93.31-.72.3-2.01.87-2.89,1.23-2.2.9-3.43,2.31-4.54,5.32-.87,2.28-1,3.24-1.15,8.71-.13,4.81-.04,6.67.41,8.48,1.59,6.07,1.67,8.3.61,15.99-.76,5.56-1.21,7.3-2.63,10.12-.84,1.62-7.86,12.49-10.9,16.91-4.49,6.49-7.95,9.76-12.79,12.19-2.26,1.14-11.27,3.32-15.24,3.71-1.47.15-4,.51-5.65.83-6.55,1.25-14.27-.71-18.78,3.46-2.86,2.64-3.85,4.5-4.13,7.57-.18,2.25,4.2.22,5.35,3.32,5.1,13.73,41.59,25.55,44.02,25.78,6.09.56,14.2-1.91-1.5-22.51-3.8-4.98-4.92-6.86-4.26-8.48.78-1.86.92-3.04,5.04-2.74,4.12.28,7.99-.36,11.09-2.37,3.04-1.98,6.14-5.22,10.62-11.23,3.52-4.65,11.12-16.27,11.69-18.67,1.09-4.59.55-8.22.02-13.34-.18-1.74-.98-5.29.28-6.18,3.78-2.64,18.44,10.17,25.38,12.78,6.12,2.3,9.63-1.55,7.35-8.83-1.23-3.91-2.57-6.91-6.41-16.06-1.89-4.51-4.28-9.7-2.94-11.61,1.02-1.45,4.07-1.01,9.47.3,7.4,1.79,13.83-3.13,18.04-5.41,3.49-1.92,12.04-8.57,15.47-11.39,1.41-1.2,9.26-6.41,8.85-17.25-.1-2.71-.95-7.08,2.3-6.76,2.46.24,5.69,3.58,17.73,12.04,3.18,2.23,8.62,4.73,10.63,4.73,2.16,0,3.88-.8,4.15-2.46.85-5.14.04-9.86-3.16-18.49-4.19-11.22-10.75-24.83-18.08-28.09Z"/>
      <path class="cls-6" d="M324.13,783.1c-2.77,5.05-5.55,10.72-6.52,10.99-1.29.3-3.29-.69-4.07-3.94-.87-3.7-2.05-9.07-3.82-10.52-1.83-1.5-6.32-4.31-9.47-5.33-6.67-2.17-14.82-5.09-18.49-5.07-3.73,0-15.03,4.67-15.03,5.63,0,.18,1.57.93,2.35,1.06,1.65.27,11.24,10.02,13.49,11.2.87.45,3.42,1.48,5.65,2.26,2.22.81,4.93,1.9,5.98,2.44,6.01,3.04,8.89,15.95,14.77,29.22,1.68,3.76,8.9,3.93,12,4.93,1.23.36,4.56-6.63,4.56-6.63,6.99-6.59,11.53-37.88,6.55-43.46-1.43-1.6-5.5,2.82-7.94,7.23Z"/>
      <path class="cls-3" d="M316.31,19.65c-3.67,2.43-6.5,6.93-9.09,14.38-1.75,5.05-2.74,7.03-4.79,9.73-3.88,5.07-7.76,7.75-15.16,10.38-2.25.81-4.93,1.86-5.92,2.34-2.35,1.2-12.12,4.73-14.73,5.36-1.14.27-2.92.51-3.91.51l2.94,9.75.9.99c2.43,2.59,8.45,7.4,13.06,8.07,4.02.58,10.24-1.54,12.05-2.17,2.12-.75,14.24-5.32,17.04-13.47.96-2.78,1.42-4.84,1.9-5.35.96-1.02,2.27-.83,3.41.1,1.11.87,5.06,7.3,8.41,11.75,3.31,4.41,8.63,8.78,11.66,8.56,1.84-.13,4.71-3.51,5.34-7.68,1.54-10.33-1.01-35.69-9.09-43.2-3.84-3.57-10.65-12.33-14.02-10.05Z"/>
      <path class="cls-3" d="M70.76,512.87c-.54-2.23-3.37-4.01-10.1-3.97-4.61.03-10.59.91-10.91-1.54-.17-1.35,3.02-3.78,6.42-7.17,5.42-5.4,5.78-6.26,4.06-18.65-1.09-7.88-2.66-15.33-4.76-18.55-1.35-2.11-4.27-4.75-7.3-7.12-3.12-2.44-13.81-10.02-14.26-9.57-.06.09.63,1.5,1.56,3.16,3.24,5.71,5.69,18.64,6,31.77.11,5.14.02,6.52-.61,9.26-1.27,5.32-3.72,15.76-9.77,22.43-3.04,3.36-12.78,11.74-12.72,13.94.09,2.55,3.88.26,6.39,2.7,4.49,4.39,14.67,2.73,19,1.72,6.74-1.7,19.67-8.93,23.22-12.45,3.49-3.45,4.18-4.32,3.79-5.94Z"/>
      <path class="cls-3" d="M390.95,56.92s6.25-.95,7.84-2.02c2.62-1.77,6.13-6.14,7.63-8,3.07-3.81,3.84-5.3,5.33-5.22,1.88.09,3.15,6.95,3.86,11.64,1.34,8.45,1.55,9.32,2.81,12.09,1.09,2.38,2.81,5.47,6.25,5.47,3.64,0,6.87-6.57,8.24-13.51,2.42-12.24,6.61-28.76.24-40.89-1.39-2.66,4.77,2.63,2.98-.18-2.31-3.58-5.26-9.99-9.41-10.86-2.19-.48-5.98.29-8.36,1.67-2.11,1.23-5.02,4.62-9.21,10.69-2.2,3.21-5.27,7.06-7.98,9.94-3.07,3.27-8.99,6.63-13.95,7.89-8.12,2.03-16.32,3.17-24.56,3.37-3.01.09-7.47,4.61-7.56,4.7-.21.21,6.75,9.83,18.93,13.1,3.49.94,12.04.82,16.9.15Z"/>
      <path class="cls-3" d="M71.25,335.76c-.23.03-.62.04-.88.06-.61.1-1.17.21-1.89.3l2.77-.37Z"/>
      <path class="cls-6" d="M783.9,282.6c-1.23-2.41-5.09-13.11-5.57-15.51-.42-1.92-.32-5.86.22-10.22.12-.99.06-1.59-.18-1.59-.21,0-3.29-1.61-4.41-.47-2.29,2.28-5.46,9.59-6.4,13.52-1.73,7.27,4.5,18.98,6.48,24.12,0,0,4.7,13.27,7.89,15.7,2.77,2.11,12.15-.4,13.42,1.93,2.67,4.88-24.11,16.62-21.94,23.61.95,3.06,7.58,2.33,9.15,2.51,1.98.21,10.76-.05,17.07-.52,5.89-.44,13.28-1.94,17.13-5.28,2.47-2.15,3.1-.79,4.52-3.8.9-1.86,8.11-6.77,8.08-7.58-.06-3.03-3.18-6.58-7.11-8.12-4.42-1.75-15.23-7.68-18.62-10.24-5.44-4.06-14.79-4.75-17.46-12.3-.81-2.28-1.86-4.87-2.28-5.74Z"/>
      <path class="cls-3" d="M721.6,197.2c2.55,4.63,10.72,13.12,15.16,17.75,2.49,2.59,6.75,6.39,14.98,6.08,4.61-.17,6.41-.66,6.98.58.85,1.86-.3,3.43-6.5,8.44-5.72,4.59-12.18,9.02-11.42,13.48.4,2.32,9.78,2.03,14.68.8,11.09-2.78,22.08-8.67,24.76-15.43,2.2-5.54,7.02-.07,7.36-2.72.58-4.6-.41-7.21-4.01-10.55-4.5-4.18-5.58-4.7-12.14-5.97-1.65-.33-4.21-.7-5.65-.85-3.97-.4-12.98-2.6-15.26-3.74-4.84-2.44-8.26-5.72-12.73-12.22-6.72-9.75-12.36-19.16-12.36-20.66,0-1.17-3.16.81-4.76,5.35-1.57,4.57-1.77,14.84.9,19.65Z"/>
      <path class="cls-3" d="M70.38,335.83c3.31-.56,5.1-1.28,6.19-2.57,1.44-1.71,1.24-2.91-.87-4.87-.96-.93-2.85-2.41-4.2-3.31-6.67-4.49-10.51-7.95-10.51-9.42,0-1.44.96-2.29,4.18-3.03,9.5-2.18,13.97-16.33,16.14-22.6,2.45-7.09,2.57-10.13,2.44-12.48-.41-7.66-4.17-16.73-9.12-22.15l-9.38.86.24,3.46c.15,2.13.08,4.27-.19,5.56-.51,2.37-4.37,13.07-5.61,15.47-.45.87-1.48,3.45-2.29,5.74-2.65,7.39-5.24,11.17-10.51,15.22-3.13,2.46-14.55,2.6-19.09,4.4-3.61,1.41-3.88,12.97-2.5,15.87,6.47,13.55,35.01,14.9,45.05,13.86Z"/>
      <path class="cls-3" d="M57.17,428.37c4.16-1.95,5.12-4.15,5.03-5.54-.03-.99-.36-1.8-.84-2.25-1.26-1.17-8.91-4.76-12.3-5.82-4.09-1.3-6.33-2.37-6.63-3.52-.51-2.01.9-3.38,5.62-5.8,7.49-3.84,8.72-14.6,8.72-14.6.95-8.72,1.52-14.15.32-18.15-.54-1.86-1.18-4.11-1.65-4.9-5.65-9.62-16.37-16.4-17.3-15.5-.21.24-.51,5.1-.57,7.87-.16,7.51-1.4,16.08-3.42,24.04-1.24,4.96-4.61,10.87-7.89,13.91-2.92,2.73-6.77,5.79-9.96,7.98-8.96,6.12-11.1,8.4-12.22,13.15-.85,3.58-.25,6.31,1.73,8.03,1.38,1.2,4.07-.75,7.19,1.3,12.53,8.24,35.92,3.68,44.17-.19Z"/>
      <path class="cls-3" d="M155.56,685.31c-4.05,1.71-11.46,7.62-14.32,6.73-2.46-.77.06-7.94,1.89-12.72,2.38-6.25.78-12.25-4.92-21.24-2.71-4.27-5.46-7.93-7.15-9.77-3.97-4.32-8.17-6.57-18.66-6.52-3.52.03-6.52.17-6.67.32-.15.18.75,1.05,2.01,1.96,3.48,2.53,6.12,5.96,14.1,18.26,6.36,9.81,6.57,10.35,7.61,18.19,1.04,7.7.95,9.92-.65,15.99-.85,3.28-.59,13.94.37,16.14,1.74,3.91,2.4,4.93,3.6,5.74,1.74,1.17-.37,3.04,3.39,1.27l2.49-2.36c5.23-1.01,7.68-3.32,12.23-8.51,1.64-1.89,6.88-7.75,10.76-13.52,3.75-5.57,6.18-11.07,5.56-11.95-.45-.66-.81-.78-2.34-.63-3.49.32-6.39,1.41-9.29,2.63Z"/>
      <path class="cls-6" d="M739.67,644.21c-3.76.03-6.16-3.89-12.98,2.6-6.02,5.72-11.19,12.75-14.18,17.46-3.23,5.08-9.23,13.73-6.53,20.41,1.91,4.72,2.57,8.4,1.39,9.57-2.05,2.04-23.13-17.66-27.54-15.28-2.84,1.53,5.57,15.73,7.67,20.06.78,1.65,2.85,4.87,4.56,7.13,3.72,4.96,6.23,10.21,13.63,11.94,6.88,1.61,3.55,1.51,8.66,1.76.69.03,1.71-.33,2.47-.81,1.17-.78,1.8-1.83,3.55-5.71.99-2.19,1.25-12.86.41-16.14-1.56-6.07-1.64-8.3-.58-16.05,1.09-8.17,1.33-8.71,11.03-23.22,4.88-7.3,7.89-11.08,9.99-12.55.87-.57,1.56-1.08,1.56-1.14,0-.03-1.41-.06-3.1-.03Z"/>
      <path class="cls-6" d="M635.07,767.57c.2-4.66-.56-8.36-2.65-10.26-2.23-2.03-5.07-4.57-6.4-5.54-3.63-2.65-7.84-6.05-10.15-8.19-1.14-1.05-5.05-4.03-6.25-4.82-2.07-1.33-2.31-1.38-3.61-1-1.32.39-1.44.57-2.08,2.73-1.54,5.5.83,14.64,3.25,26.72,1.28,6.4,2.03,9.11,4.9,10.96,1.87,1.21,1.25,1.82,4.13,3.68.6.39,2.55,1.03,4.36,1.42,4.15.91,7.96.79,10.1-.32,1.53-.78,4.99-4.23,6.98-6.93,1.14-1.59,2.29-5.02,2.29-6.91,0-.66-4.97.64-4.88-1.56Z"/>
      <path class="cls-6" d="M774.77,559.26c-1.87,1.67-5.68,7.32-7.91,13.64-2.3,6.5-7.48,16.04-5.89,24.29.89,4.59,7.76,9.88,6.59,12.16-1.17,2.25-3.37.86-7.4-1.16-5.14-2.62-7.52-4.13-15.85-5.09-3.35-.39-5.02,1.35-3.25,4.63,2.76,5.2,9.98,12.16,16.46,16.4,3.27,2.17,11.92,9.65,20.47,8.19,1.89-.32,1.65,2.04,4.27,2.75l-1.27-2.11c2.55-.66.95-3.1,2.06-5.2.69-1.26.81-2.1.76-5.08-.06-4.66-.98-8.15-4.01-14.82-3.69-8.18-4.4-10.97-5.08-20.02-.33-4.33-.32-6.22,0-7.81.48-2.37,4.37-13.07,5.61-15.5.87-1.74,8.42-8.64,8.42-9.33,0-.21.09-2.31-.39-2.22-6.94,1.43-11.46,4.38-13.59,6.28Z"/>
      <path class="cls-3" d="M688.83,141.35c1.83.84.94,3.76-3.67,11.09-3.61,5.77-5.44,8.37-5.69,12.96-.15,2.73,1.62,3.78,4.49,3.53,5.44-1.26,14.54-5.33,22.55-12.11,5.75-4.92,10.58-9.36,11.58-14.36.58-2.91,4.26-3.06,4.11-5.01-.15-2.19-1.32-5.59-2.42-7.16-.66-.87-1.92-1.59-5.53-3.22-2.16-.96-12.86-1.25-16.11-.41-6.1,1.55-8.3,1.64-16.02.61-7.81-1.06-8.38-1.3-18.14-7.65-11.89-7.74-15.62-10.57-17.78-13.58l-1.41-1.92-2.33,2.85c-.97,14.42,4.05,18.57,8.66,22.78,3.61,3.3,18.45,14.03,25.63,12.5,3-.64,11.39-1.21,12.08-.91Z"/>
      <path class="cls-6" d="M805.5,495.7c-1.35-5.65-.55-18.75,1.78-29.78.85-4.12,1.24-5.17,2.5-7.06.81-1.2,1.43-4.46,1.27-4.42-4.53,1.21-10.11,5.76-12.69,8.28-2.65,2.59-3.54,15.26-4.17,18.84-1.82,9.97-1.36,17.49,1.69,22.56,1.58,2.62,4.51,5.05,4.81,5.65.84,1.56.67,4.03-1.09,4.45-4.66,1.1-22.12-2.73-24.29-.23-1.45,1.67-1.43,2.5.2,4.75,3.11,4.26,32,22.81,42.75,16.6,3.84-2.22.92-.7,5.43-1.97,2.11-.6-4.18-16.22-7.21-19.59-6.03-6.68-9.72-12.75-10.98-18.07Z"/>
      <path class="cls-6" d="M838.46,424.66c.48-.9.48-1.32-.03-3.55-1.11-4.81-3.21-7.1-12.19-13.27-3.12-2.14-6.97-5.24-9.85-7.92-2.31-2.11-5.79-7.46-7.05-10.86-1.17-3.07-2.96-12.17-3.73-18.94-.8-7.09-.71-8.66.79-11.54.39-.81.72-1.53.72-1.65,0-.42-2.17-1.32-4.39.72,0,0-4.79,4.63-6.07,10.01-.96,4.02-.23,6.77.16,12.34.16,2.34,2.07,19.51,5.7,22.78,4.08,3.68,8.94,5,10.17,7.32,1.15,2.19-1.3,3.97-6.02,4.59-8.72,1.13-20.24,3.48-21.32,6.2-1.46,3.7,11.57,6.45,29.99,8.76,2.43.3,16.76,1.01,19.2-1.38l5.5-.42c1.44-.45-2.41-1.64-1.6-3.2Z"/>
      <path class="cls-3" d="M544.98,814.58c.45-1.35.42-2.07.42-3.7l-.42,3.7Z"/>
      <path class="cls-3" d="M544.63,817.67l.35-3.09c-.19.57-.49,1.29-.89,2.22l.54.88Z"/>
      <path class="cls-3" d="M510.08,65.17c.2,8.35.56,11.36,1.73,13.58.63,1.23,1.57,4.95,6.28,3.58,7.5-2.18,24.32-34.24,18.22-52.79-.88-2.69-3.6-8.13-6.6-8.23-2.2-.06-7.88,3-11.25,6.03-6.68,6-12.75,9.69-18.08,10.95-9.02,2.15-34.03,5.22-41.75.88-3.75-2.08-3.63-2.05-2.94-.76.3.63-1.91-1.15-1.4.17,2.34,6.22,7.03,13.45,12.53,17.85,1.83,1.46,8.51,2.15,11.72,2.5,7.33.79,13.48,2.67,20.51,0,2.89-1.1,7.04-4.49,8.1-4.58,1.08-.09,1.47.21,2.04,1.14.6.99.72,2.26.89,9.68Z"/>
      <path class="cls-6" d="M536.97,796.51c-3.42-5.82-8.27-12.3-10.79-16.51-3.69-6.17-5.44-9.63-7.6-10.74-2.34-1.2-3.36-.3-4.41,2.07-1.33,3.03-2.2,14.82-4.33,24.46-1.89,8.57-.56,15.33,2.82,18.2,2.1,1.78,7.61,7.43,11.33,9.48.93.51,2.52,1.39,3.54,1.99,4.86,2.8,6.73,3.13,9.61,1.66h.03c1.74-.9,3.55-2.97,4.64-5.37,1.03-2.23,1.75-3.77,2.27-4.96l-4.75-7.74c1.03-5.48-.27-8.97-2.37-12.54Z"/>
      <path class="cls-3" d="M606.76,85.57c.78.99.54,3.07-.85,7.06-1.06,3.03-1.47,4.77-1.69,8.29-.66,10.53,3.72,9.53,4.98,9.32.84-.15,2.37-.87,3.43-1.62,3.76-2.64,6.47-5.43,10.29-10.51,4.24-5.67,7.5-11.62,10.66-19.4,1.66-4.15.84-7.23-.75-9.91l3.08-1.21-1.44-1.53c-2.52-2.59-3.93-3.13-8.05-3.08-4.66.06-8.15,1.01-14.82,4.01-8.15,3.72-10.97,4.4-20.02,5.08-4.33.33-6.22.32-7.81,0-2.34-.48-13.07-4.34-15.47-5.58-.87-.45-3.39-1.48-5.62-2.26-4.27-1.54-6.7-2.65-8.53-3.95-.57-.42-.99-.6-.93-.42,2.76,6.34,6.05,16.5,9.63,18.94,6.46,4.39,14,6.59,23.58,9.21,3.3.94,10.62-.47,13.54-1.9,4.49-2.2,5.79-1.85,6.81-.55Z"/>
      <path class="cls-6" d="M433.2,795.72c-.66-1.9-2.78-5.1-4.25-5.38-3.49-.66-6.83,3.84-10.05,13.51-2.65,7.87-6.17,8.74-10.31,2.48-1.95-2.92-6.45-7.81-9.58-9.26-1.08-.51-9.63-2.09-11.07-2.25-3.63-.4-5.53-.93-11.93-1.36-4.53-.3-11.9,5.67-13.01,6.3l-4.45,2.7,1.41.27c.75.15,2.01.15,2.76.03,2.16-.36,13.98,4.01,20.32,5.43,6.19,1.39,8.02,1.74,12.43,4.99,3.63,2.68,8.58,8.87,10.89,12.36,3.84,5.68,8.34,10.94,10.32,12.26,1.23.78,9.03.45,10.38.51.21,0,.53.3,1.83,0l.91-.54c2.98-.72,4.27-1.38,6.35-3.27,1.79-1.65-4.99-2.69-3.38-5.23,6.9-10.85,2.71-26.95.42-33.55Z"/>
    </g>
    <circle class="cls-3" cx="423.27" cy="423.26" r="344.01" transform="translate(-175.32 423.26) rotate(-45)"/>
    <circle class="cls-6" cx="423.27" cy="423.26" r="303.5" transform="translate(-175.32 423.26) rotate(-45)"/>
    <g>
      <path class="cls-1" d="M99.12,239.94c1.08.25,1.91-.98,1.26-1.88-14.65-20.59-24.01-24.75-28.96-18.23-6.3,8.3,8.02,15.54,27.7,20.12Z"/>
      <path class="cls-1" d="M62.12,330.05c.96-.05,1.34-1.27.59-1.87-17.16-13.49-25.93-14.66-28.44-8.05-3.2,8.41,10.43,10.92,27.86,9.92Z"/>
      <path class="cls-1" d="M57.37,518.72c.67-.52.33-1.59-.51-1.64-19.16-1.2-26.09,2.33-24.62,8.37,1.88,7.69,13.01,2.7,25.13-6.73Z"/>
      <path class="cls-1" d="M44.64,421.34c.79-.35.73-1.49-.09-1.76-18.67-6.01-26.42-4.26-26.48,2.09-.07,8.09,12.2,5.95,26.57-.33Z"/>
      <path class="cls-1" d="M89.61,611.87c.51-.67-.08-1.63-.91-1.46-18.83,3.74-24.63,8.94-21.65,14.39,3.79,6.95,13.26-.72,22.57-12.93Z"/>
      <path class="cls-1" d="M150.74,694.66c.41-.74-.32-1.59-1.12-1.31-18.07,6.48-23.04,12.47-19.29,17.43,4.77,6.32,13.01-2.67,20.41-16.12Z"/>
      <path class="cls-1" d="M160.45,158.68c1.06.46,2.13-.65,1.64-1.69-11.16-23.83-19.98-29.84-26.27-24.09-8.01,7.32,5.31,17.42,24.62,25.79Z"/>
      <path class="cls-1" d="M240.58,101.96c.95.66,2.22-.2,1.95-1.33-6.16-25.59-13.59-33.24-20.9-28.87-9.31,5.57,1.71,18.13,18.95,30.2Z"/>
      <path class="cls-1" d="M424.19,55.3c.38.98,1.78.97,2.15-.02,8.26-22.46,6.51-32-1.23-32.38-9.85-.49-7.86,14.57-.92,32.4Z"/>
      <path class="cls-1" d="M515.12,67.63c.16,1,1.48,1.28,2.03.43,12.46-19.44,12.79-28.8,5.58-30.77-9.18-2.51-10.44,12.1-7.61,30.35Z"/>
      <path class="cls-1" d="M608.74,97.62c-.06,1.01,1.18,1.56,1.89.84,16.25-16.41,18.53-25.49,11.89-28.93-8.46-4.38-12.73,9.65-13.78,28.08Z"/>
      <path class="cls-1" d="M690.92,154.96c-.39.94.6,1.86,1.51,1.42,20.75-10.14,25.89-17.96,20.76-23.39-6.54-6.92-15.2,4.91-22.27,21.97Z"/>
      <path class="cls-1" d="M329.67,65.15c.6.75,1.83.35,1.87-.61,1.04-21.92-3.13-29.78-10-27.99-8.76,2.29-2.85,14.91,8.13,28.6Z"/>
    </g>
    <path class="cls-4" d="M828.14,399.26c-1.64-1.12-3.19-2.18-4.58-3.22-3.98-2.98-6.69-7.35-7.63-12.29l-2.98-22.79c-.39-5.27,1.11-10.18,4.2-14.08,1.07-1.36,2.3-2.78,3.59-4.29,6.81-7.94,14.54-16.93,11.49-28.4-3.06-11.47-14.24-15.41-24.1-18.9-1.87-.66-3.64-1.29-5.25-1.92-4.62-1.84-8.36-5.36-10.55-9.89l-8.78-21.27c-1.74-4.98-1.57-10.11.41-14.67.69-1.6,1.51-3.3,2.36-5.08,4.53-9.43,9.67-20.12,3.75-30.39-5.93-10.3-17.76-11.22-28.21-12.02-1.96-.16-3.83-.3-5.54-.51-4.95-.59-9.48-3.01-12.75-6.83l-13.98-18.26c-2.97-4.36-4.13-9.36-3.4-14.29.25-1.71.6-3.56.97-5.5,1.94-10.28,4.14-21.93-4.25-30.34-4.11-4.13-9.23-5.6-16.23-6.05-4.78,0-9.74.93-14.11,1.74-1.94.37-3.79.71-5.49.96-5.03.75-9.96-.47-14.09-3.3l-18.23-14.01c-3.99-3.44-6.41-7.98-6.98-12.92-.2-1.72-.34-3.59-.49-5.56-.79-10.44-1.68-22.26-11.95-28.22-3.1-1.79-6.37-2.67-9.99-2.68h-.02c-7.09,0-14.16,3.38-20.41,6.37-1.78.85-3.48,1.65-5.07,2.34-4.47,1.94-9.68,2.13-14.45.47l-21.24-8.83c-4.75-2.28-8.26-6.04-10.09-10.67-.64-1.6-1.26-3.38-1.91-5.25-3.47-9.87-7.39-21.06-18.85-24.15-1.73-.46-3.65-.38-5.18-.7-9.07,0-16.6,6.44-23.25,12.12-1.5,1.3-2.93,2.51-4.29,3.58-3.49,2.75-7.84,4.47-12.35,4.25-.52,0-1.05-.02-1.58-.07l-22.71-3.01c-5.19-.99-9.55-3.71-12.51-7.7-1.03-1.39-2.09-2.94-3.21-4.58C442.32,9.8,435.63,0,423.77,0h-.03c-11.85,0-18.56,9.77-24.47,18.38-1.12,1.64-2.19,3.19-3.23,4.58-2.98,3.99-7.34,6.7-12.29,7.63l-24.53,3.06c-4.5-.01-8.88-1.54-12.34-4.28-1.35-1.08-2.79-2.3-4.29-3.6-7.88-6.78-17.61-14.36-28.39-11.49-11.47,3.06-15.42,14.24-18.9,24.11-.66,1.86-1.29,3.64-1.93,5.24-1.83,4.62-5.34,8.36-9.89,10.56l-21.26,8.77c-5.15,1.82-10.15,1.57-14.68-.41-1.59-.68-3.28-1.5-5.06-2.35-9.41-4.53-21.14-9.09-30.41-3.76-10.29,5.92-11.21,17.76-12.02,28.19-.16,1.97-.3,3.85-.5,5.56-.59,4.95-3.01,9.47-6.83,12.75l-18.26,13.99c-4.43,3-9.58,4.04-14.27,3.4-1.73-.25-3.58-.6-5.54-.97-4.38-.83-9.34-1.76-14.12-1.77h-.06c-6.9,0-12.03,1.91-16.15,6.01-8.4,8.39-6.23,20.05-4.31,30.34.36,1.94.7,3.79.95,5.5.71,4.93-.45,9.92-3.3,14.08l-14.02,18.24c-3.43,3.99-7.96,6.4-12.91,6.98-1.72.2-3.59.35-5.57.5-10.44.79-22.26,1.67-28.21,11.94-5.94,10.27-.83,20.97,3.67,30.41.86,1.79,1.67,3.5,2.35,5.09,1.96,4.55,2.13,9.68.46,14.45l-3.97,9.38h0s-4.86,11.86-4.86,11.86c-2.3,4.75-6.05,8.25-10.67,10.08-1.6.64-3.38,1.26-5.24,1.9-9.88,3.47-21.08,7.39-24.16,18.85-3.09,11.47,4.62,20.48,11.43,28.44,1.29,1.51,2.51,2.93,3.58,4.29,3.08,3.9,4.57,8.81,4.19,13.85l-3.02,22.8c-.99,5.17-3.7,9.53-7.7,12.49-1.39,1.03-2.93,2.09-4.57,3.2C9.81,404.2.01,410.9,0,422.76c-.02,11.87,9.77,18.58,18.4,24.51,1.63,1.12,3.18,2.18,4.56,3.21,3.99,2.98,6.7,7.34,7.63,12.29l2.98,22.8c.39,5.26-1.11,10.17-4.19,14.07-1.07,1.36-2.3,2.78-3.59,4.29-6.83,7.94-14.56,16.93-11.5,28.39,3.06,11.47,14.24,15.41,24.1,18.9,1.87.66,3.64,1.29,5.25,1.92,4.62,1.86,8.36,5.36,10.55,9.91l8.78,21.26c1.74,4.98,1.57,10.11-.41,14.67-.69,1.59-1.5,3.28-2.36,5.07-4.54,9.43-9.68,20.12-3.75,30.41,5.92,10.29,17.74,11.21,28.17,12.02,1.98.15,3.85.3,5.57.51,4.94.58,9.46,2.99,12.75,6.81l13.98,18.27c2.97,4.37,4.13,9.37,3.4,14.29-.25,1.72-.6,3.56-.97,5.5-1.94,10.29-4.14,21.94,4.24,30.35,4.11,4.12,9.26,6.04,16.18,6.04,4.75.46,9.74-.92,14.11-1.72,1.96-.37,3.83-.71,5.56-.96,4.88-.74,9.95.48,14.07,3.29l18.24,14.03c3.99,3.43,6.41,7.97,6.98,12.91.2,1.71.34,3.6.49,5.57.79,10.43,1.69,22.25,11.95,28.21,3.11,1.79,6.38,2.67,9.98,2.67h.04c7.08,0,14.15-3.38,20.38-6.36,1.79-.86,3.49-1.66,5.09-2.35,4.6-1.94,9.9-2.06,14.47-.45l21.23,8.81c4.74,2.28,8.25,6.03,10.09,10.66.64,1.62,1.26,3.39,1.91,5.25,3.46,9.88,7.38,21.08,18.84,24.16,1.72.46,3.46.7,5.18.71h.02c9.05,0,16.58-6.44,23.23-12.12,1.51-1.29,2.95-2.51,4.31-3.59,3.47-2.74,7.86-4.25,12.34-4.25.5,0,.99.02,1.49.06l22.81,3.02c5.18.99,9.54,3.71,12.5,7.7,1.03,1.39,2.09,2.94,3.21,4.58,5.9,8.64,12.58,18.44,24.46,18.45h.02c11.86,0,18.56-9.78,24.48-18.4,1.12-1.63,2.18-3.18,3.22-4.57,2.97-3.98,7.33-6.69,12.29-7.62l22.8-2.99c.73-.06,1.23-.08,1.73-.08,4.5.01,8.87,1.54,12.34,4.28,1.35,1.08,2.78,2.29,4.27,3.58,6.64,5.71,14.17,12.18,23.26,12.19,1.79.21,3.41-.22,5.15-.69,11.47-3.05,15.42-14.24,18.91-24.11.66-1.86,1.29-3.64,1.93-5.24,1.85-4.63,5.36-8.37,9.9-10.55l21.25-8.78c5.15-1.82,10.1-1.56,14.68.41,1.6.69,3.3,1.51,5.09,2.37,9.42,4.52,21.21,9.05,30.38,3.74,10.29-5.91,11.21-17.74,12.02-28.18.15-1.97.3-3.86.5-5.57.59-4.95,3.01-9.47,6.83-12.74l18.25-13.99c3.55-2.41,7.64-3.46,11.45-3.61.95,0,1.91.07,2.87.22,1.67.24,3.51.59,5.45.96,4.39.82,9.36,1.76,14.16,1.77h.05c6.9,0,12.04-1.91,16.15-6.01,8.4-8.37,6.23-20.04,4.31-30.33-.36-1.94-.7-3.8-.95-5.51-.71-4.93.45-9.92,3.29-14.08l14.01-18.24c3.44-3.99,7.98-6.4,12.92-6.98,1.72-.2,3.59-.35,5.57-.5,10.44-.79,22.26-1.68,28.21-11.94,5.95-10.28.83-20.98-3.68-30.42-.85-1.78-1.67-3.48-2.35-5.07-1.96-4.59-2.12-9.72-.45-14.46l8.81-21.25c2.29-4.75,6.05-8.26,10.67-10.09,1.61-.64,3.38-1.26,5.24-1.91,9.88-3.46,21.08-7.38,24.16-18.84,3.09-11.46-4.62-20.47-11.42-28.42-1.29-1.5-2.51-2.94-3.58-4.3-3.08-3.92-4.57-8.83-4.19-13.85l3.03-22.8c.98-5.17,3.7-9.54,7.69-12.5,1.39-1.04,2.94-2.09,4.57-3.2,8.64-5.9,18.45-12.59,18.46-24.46.02-11.86-9.76-18.58-18.39-24.51ZM821.98,439.28c-1.64,1.12-3.34,2.28-4.93,3.46-6.17,4.59-10.38,11.31-11.83,18.92-.14.9-1.76,13.53-1.76,13.53l-1.37,9.8c-.68,8.66,1.62,16.24,6.38,22.28,1.22,1.55,2.56,3.11,3.86,4.63,6.53,7.63,10.69,13.04,9.2,18.58-1.49,5.54-7.81,8.13-17.28,11.45-1.88.66-3.82,1.34-5.66,2.07-7.15,2.83-12.95,8.24-16.33,15.22-.37.83-5.19,12.6-5.19,12.6l-3.86,9.13c-2.9,8.18-2.64,16.11.4,23.17.78,1.81,1.67,3.67,2.53,5.47,4.33,9.06,6.95,15.37,4.08,20.33-2.87,4.96-9.65,5.83-19.66,6.58-1.98.15-4.04.31-6,.53-7.64.89-14.64,4.6-19.71,10.47-.57.7-8.29,10.84-8.29,10.84l-6.08,7.8c-4.92,7.16-6.72,14.88-5.61,22.49.28,1.96.66,3.98,1.02,5.93,1.84,9.87,2.74,16.64-1.32,20.69-1.49,1.49-3.55,2.86-8.54,2.85-3.79,0-8.04-.81-12.15-1.58-1.96-.37-3.98-.75-5.93-1.04-1.45-.21-2.94-.32-4.4-.33-6.19,0-12.19,1.84-17.34,5.34-.74.53-10.8,8.32-10.8,8.32l-7.91,5.97c-6.6,5.64-10.34,12.63-11.24,20.27-.23,1.96-.39,4.01-.55,6-.78,10.01-1.66,16.78-6.63,19.64-1.47.84-2.88,1.22-4.58,1.22-4.64,0-10.54-2.84-15.74-5.34-1.79-.86-3.65-1.76-5.46-2.54-3.83-1.66-7.9-2.5-12.1-2.51-3.48,0-6.91.57-10.2,1.72-.85.32-12.6,5.25-12.6,5.25l-9.17,3.71c-7.84,3.74-13.26,9.52-16.1,16.67-.73,1.83-1.42,3.78-2.08,5.65-3.34,9.47-5.95,15.78-11.49,17.26-.82.22-1.59.32-2.36.32-5.07,0-10.98-5.09-16.2-9.57-1.51-1.3-3.07-2.64-4.62-3.87-5.37-4.26-12.14-6.61-19.04-6.61-.76,0-1.54.03-2.3.08-.9.09-13.51,1.8-13.51,1.8l-9.84,1.22c-8.54,1.58-15.27,5.77-19.87,11.93-1.18,1.58-2.35,3.28-3.47,4.92-5.68,8.28-9.83,13.7-15.56,13.7-5.73,0-9.87-5.44-15.53-13.73-1.12-1.64-2.28-3.34-3.46-4.93-4.59-6.17-11.31-10.38-18.92-11.83-.9-.14-13.53-1.75-13.53-1.75l-9.8-1.37c-1.69-.16-2.46-.19-3.22-.19-6.91,0-13.68,2.32-19.06,6.57-1.55,1.22-3.11,2.56-4.63,3.86-5.23,4.47-11.15,9.54-16.22,9.53-.77,0-1.54-.11-2.36-.33-5.54-1.49-8.13-7.81-11.45-17.28-.66-1.88-1.34-3.82-2.07-5.66-2.83-7.15-8.24-12.95-15.22-16.33-.83-.37-12.6-5.19-12.6-5.19l-9.13-3.86c-4.16-1.49-7.59-2.07-11.07-2.08-4.2,0-8.27.83-12.11,2.48-1.81.78-3.67,1.67-5.47,2.53-5.21,2.49-11.11,5.31-15.75,5.31-1.7,0-3.11-.38-4.57-1.23-4.96-2.87-5.83-9.65-6.58-19.66-.15-1.98-.31-4.04-.53-6-.89-7.64-4.6-14.64-10.47-19.71-.71-.57-10.85-8.29-10.85-8.29l-7.8-6.08c-5.9-4.06-11.89-5.92-18.08-5.93-1.47,0-2.95.11-4.41.32-1.95.28-3.98.66-5.93,1.02-4.11.77-8.37,1.56-12.15,1.55-4.99,0-7.05-1.38-8.54-2.87-4.05-4.06-3.13-10.83-1.27-20.69.37-1.96.75-3.98,1.04-5.93,1.12-7.61-.66-15.33-5.01-21.75-.53-.74-8.32-10.8-8.32-10.8l-5.97-7.9c-5.64-6.6-12.63-10.34-20.27-11.24-1.96-.23-4.01-.39-6-.55-10.01-.78-16.78-1.66-19.64-6.63-2.86-4.97-.22-11.27,4.13-20.32.86-1.79,1.76-3.65,2.54-5.46,3.05-7.06,3.33-14.98.79-22.3-.32-.85-5.24-12.59-5.24-12.59l-3.72-9.18c-3.74-7.84-9.52-13.26-16.67-16.1-1.83-.73-3.77-1.42-5.65-2.08-9.47-3.34-15.78-5.95-17.26-11.49-1.48-5.54,2.7-10.94,9.24-18.56,1.3-1.51,2.64-3.07,3.87-4.62,4.78-6.03,7.1-13.61,6.53-21.34-.09-.9-1.8-13.51-1.8-13.51l-1.22-9.83c-1.58-8.54-5.77-15.27-11.93-19.87-1.58-1.18-3.28-2.35-4.92-3.47-8.28-5.68-13.7-9.83-13.7-15.56,0-5.73,5.44-9.87,13.73-15.53,1.64-1.12,3.34-2.28,4.93-3.46,6.17-4.59,10.38-11.31,11.83-18.92.14-.9,1.76-13.52,1.76-13.52l1.37-9.81c.68-8.66-1.62-16.24-6.38-22.28-1.22-1.55-2.56-3.12-3.85-4.63-6.53-7.63-10.69-13.04-9.2-18.58,1.49-5.54,7.81-8.13,17.28-11.45,1.88-.66,3.82-1.34,5.66-2.07,7.15-2.83,12.95-8.24,16.33-15.22.37-.83,5.2-12.61,5.2-12.61l3.86-9.12c2.9-8.19,2.64-16.11-.4-23.17-.78-1.81-1.67-3.67-2.53-5.47-4.33-9.06-6.95-15.37-4.08-20.33,2.87-4.96,9.65-5.83,19.66-6.58,1.98-.15,4.04-.31,6-.53,7.64-.88,14.64-4.6,19.71-10.47.57-.7,8.27-10.82,8.27-10.82l6.1-7.82c4.92-7.16,6.72-14.88,5.61-22.49-.28-1.95-.66-3.98-1.03-5.93-1.84-9.87-2.74-16.64,1.32-20.69,1.49-1.49,3.56-2.86,8.54-2.85,3.79,0,8.04.81,12.15,1.58,1.96.37,3.98.75,5.93,1.04,1.45.21,2.93.32,4.41.33,6.19,0,12.19-1.84,17.34-5.34.74-.53,10.8-8.32,10.8-8.32l7.91-5.97c6.6-5.64,10.34-12.63,11.24-20.27.23-1.96.39-4.01.55-6,.78-10.01,1.66-16.78,6.63-19.64,1.46-.84,2.88-1.22,4.58-1.22,4.64,0,10.54,2.84,15.74,5.34,1.79.86,3.65,1.75,5.46,2.54,3.83,1.66,7.9,2.5,12.1,2.51,3.48,0,6.91-.57,10.2-1.72.85-.33,12.59-5.24,12.59-5.24l9.18-3.72c7.84-3.74,13.26-9.52,16.1-16.67.73-1.83,1.42-3.77,2.08-5.65,3.34-9.47,5.95-15.78,11.49-17.26.82-.22,1.59-.32,2.36-.32,5.08,0,10.99,5.09,16.2,9.57,1.51,1.3,3.07,2.64,4.62,3.86,5.37,4.26,12.14,6.61,19.04,6.61.76,0,1.54-.03,2.3-.08.9-.09,13.51-1.8,13.51-1.8l9.83-1.22c8.54-1.58,15.27-5.77,19.87-11.93,1.18-1.58,2.35-3.28,3.47-4.92,5.68-8.28,9.83-13.7,15.56-13.7,5.73,0,9.87,5.44,15.53,13.73,1.12,1.64,2.28,3.34,3.46,4.93,4.59,6.17,11.31,10.38,18.92,11.83.9.14,13.53,1.75,13.53,1.75l9.8,1.37c1.68.16,2.46.19,3.22.19,6.91,0,13.68-2.32,19.06-6.57,1.55-1.22,3.12-2.56,4.63-3.86,5.22-4.47,11.15-9.54,16.22-9.53.77,0,1.54.11,2.36.33,5.54,1.49,8.13,7.81,11.45,17.28.66,1.88,1.34,3.82,2.07,5.66,2.83,7.15,8.24,12.95,15.22,16.33.83.37,12.6,5.19,12.6,5.19l9.13,3.86c4.16,1.49,7.59,2.08,11.07,2.08,4.2,0,8.27-.83,12.11-2.48,1.81-.78,3.67-1.67,5.47-2.52,5.21-2.49,11.11-5.31,15.75-5.31,1.7,0,3.11.38,4.57,1.23,4.96,2.87,5.83,9.65,6.58,19.66.15,1.98.31,4.04.53,6,.89,7.64,4.6,14.64,10.47,19.71.71.57,10.83,8.28,10.83,8.28l7.82,6.09c5.9,4.06,11.89,5.92,18.08,5.93,1.47,0,2.95-.1,4.4-.32,1.96-.28,3.98-.66,5.94-1.03,4.11-.77,8.37-1.56,12.15-1.55,4.99,0,7.05,1.38,8.54,2.87,4.05,4.06,3.13,10.83,1.27,20.69-.37,1.96-.75,3.98-1.04,5.93-1.12,7.61.66,15.33,5.01,21.75.53.74,8.32,10.8,8.32,10.8l5.97,7.9c5.64,6.6,12.63,10.34,20.27,11.24,1.96.23,4.01.39,6,.55,10.01.78,16.78,1.66,19.64,6.63,2.86,4.97.22,11.27-4.13,20.32-.86,1.79-1.75,3.65-2.54,5.46-3.05,7.06-3.33,14.98-.79,22.3.32.85,5.25,12.6,5.25,12.6l3.71,9.16c3.74,7.84,9.52,13.26,16.67,16.1,1.83.73,3.77,1.42,5.65,2.08,9.47,3.34,15.78,5.95,17.26,11.49,1.48,5.54-2.7,10.94-9.24,18.56-1.3,1.51-2.64,3.07-3.87,4.62-4.78,6.03-7.1,13.61-6.53,21.34.09.9,1.8,13.51,1.8,13.51l1.22,9.84c1.58,8.54,5.77,15.27,11.93,19.87,1.58,1.18,3.28,2.35,4.92,3.47,8.28,5.68,13.7,9.83,13.7,15.56s-5.44,9.87-13.73,15.53Z"/>
    <g>
      <path class="cls-5" d="M394.07,768.23c12.09,1.76,24.39,2.87,36.87,3.29,193.64,6.59,350.24-149.08,344.78-342.75-1.34-47.65-12.69-92.79-32-133.41-.55-1.16-2.32-.56-2.04.7,8.75,39.91,16.17,110.99,16.17,142.29,0,169.38-123.72,264.17-196.75,291.36-61.36,22.85-106.38,33.53-166.93,36.65-1.13.06-1.22,1.7-.1,1.86Z"/>
      <path class="cls-5" d="M728.75,571.72c5.8-13.17,10.12-55.47,6.09-86.29-.13-1.03,1.29-1.43,1.69-.48,4.9,11.43,9.15,34.35,8.92,42.62l-1.02,24.31-15.68,19.83Z"/>
    </g>
    <path class="cls-2" d="M182.97,605.34c-48.52-62.12-73.01-143.91-59.54-231.38,19.29-125.16,116.29-224.73,241.01-246.64,72.05-12.66,140.48.51,197.59,31.77,1.04.57.35,2.15-.77,1.78-77.21-24.94-80.48-21.85-142.23-21.92-99.54-.12-264.67,60.15-264.93,282.22,0,6.35-.14,14.28.06,20.66.04,1.16-1.63,1.4-1.91.27-4.62-18.41-9.16-53.55-6.35-86.34.1-1.18-1.61-1.47-1.92-.33-4.95,18.38-7.63,39.18-7.66,65.71-.09,72.64,35.64,155.78,48.3,183.18.48,1.05-.94,1.91-1.65,1.01Z"/>
    <g>
      <path class="cls-3" d="M730.91,423.27H112.74s8.65,305.1,300.36,305.1c320.78,0,317.82-305.1,317.82-305.1Z"/>
      <path class="cls-1" d="M136.36,423.27h-16.59c.28,68.83,23.83,132.19,63.19,182.6.71.91,2.13.04,1.65-1-12.57-27.2-47.83-109.32-48.25-181.59Z"/>
    </g>
    <g>
      <path class="cls-1" d="M266.01,315.1c5.7-13.61,8.4-15.27,13.7-15.61,6.3-.41,9.8,4.53,9.8,9.63,0,1.6-.5,3.64-1.8,5.13-3.9.57-5.2,1.67-11.4,10.96-6.1,9.18-11.1,15.34-15.8,19.67,3.6,2.23,7.1,9.14,10.6,15.94,1.2,2.33,2.2,2.87,3.7,2.78.9-.05,2.9-.48,4.1-.85.8.85,1.2,2.32,1.2,3.52,0,5.5-7.6,11-14.7,11.36-3.8.2-5.6-1.22-8.1-6.5-6.3-13.42-8.5-18.04-13.1-19.39-1.53,7.12-3.07,14.23-4.6,21.34-.9.93-2.4,1.37-4.2,1.41-5.4.14-11.2-4.89-11.2-10.39,0-3.7,2.4-9.82,6.6-15.91.43-2.04.87-4.08,1.3-6.13-.9.12-2.2.24-3.1.26-8.7.16-16-5.06-16-13.76,0-14.26,19-31.86,31.3-32.33,7-.24,10.2,3.41,10.2,8.71,0,3.1-3,17.24-7.8,37.21,1.4-.25,3.1-.41,5-.49,4.6-5.88,10.2-16.75,14.3-26.57ZM239.21,311.99c0-1.8-.6-2.58-1.8-2.55-2.8.09-11.6,8.65-11.6,15.44,0,4.2,2.7,6.27,8.7,8.04,3-10.37,4.7-18.32,4.7-20.92Z"/>
      <path class="cls-1" d="M319.31,334.18c2.7-.15,5.3,2.51,5.3,5.71,0,6.68-8,10.92-25.7,14.43-1.5-.38-2.6-1.9-2.6-3.7,0-2.8,1.4-4.4,6.2-6.49,7.4-3.11,11-5.23,16.8-9.95Z"/>
      <path class="cls-1" d="M374.21,289.74c17.9-.77,24.3,8.23,24.3,20.24,0,20.3-19.1,38.81-35.2,41.3-4.9,14.45-13.1,23.16-24.1,24.28-6.9.7-11.2-2.89-11.2-8.89,0-4,3.4-8.03,7-8.59,2.1,2.09,4.2,3.28,6.1,3.08,3.2-.33,5.7-5.39,8.3-15.07,3.2-12.04,6.8-28.83,9.3-39.51-5.7,1.63-11.4,4.83-14.2,7.72-2.2.23-4.6-1.32-4.6-4.83,0-6.5,9.3-14.54,22.7-18.03.8-3.39,5.4-6.4,8.6-6.77,2.8-.32,3,.46,3,5.06ZM371.41,305.26c-1,8.51-2.8,21.72-5,33.27.5.04,1.1-.02,1.4-.06,8.7-.98,15-11.43,15-22.23,0-5.6-2.3-10.32-11.4-10.98Z"/>
      <path class="cls-1" d="M396.51,347.71c0-7.1,5-16.1,15.6-22.49-2.9-2.75-5-7.39-5-13.29,0-12.7,11.5-27.6,25.3-29.29,9.3-1.14,13.4,2.77,13.4,10.27,0,9.9-6.1,15.34-11.7,16.03-2.2.27-3.2-.41-3.6-1.36,1.3-2.86,2-5.65,2-8.25,0-3.8-1.3-4.94-2.9-4.74-3.6.44-7.7,8.04-7.7,15.74,0,3.5.8,7.3,1.8,9.78,2.2-.77,5.5-1.47,7.4-1.71,3.8-.47,4.8.51,4.8,1.91,0,5.7-4.7,11.88-9.6,12.48-1.9.23-4.6-.54-6.7-1.88-2.7,3.13-4.5,7.65-4.5,10.45,0,5,2.7,7.87,8.6,7.15,9.4-1.15,21.9-11.68,27.7-21.18,2.1-.25,3.8.34,3.8,2.74,0,6.39-17.5,30.02-38.5,32.6-12.5,1.53-20.2-4.65-20.2-14.95Z"/>
      <path class="cls-1" d="M449.51,323.56c0-5.9,8.9-17.48,15.1-18.21,3.4-.4,4.3.69,4.3,3.69,0,2.5-1.3,9.65-4,14.87,7.3-13.47,14.2-18.77,18.6-19.27,4.6-.52,6.9,2.22,6.9,6.12,0,2.7-.8,6.29-2.9,11.33-1.8,4.6-5,12.07-5,14.57,0,1.1.5,1.44,1.4,1.34,2-.23,8.3-6.04,14.5-15.62,1.9-.21,3.9.88,3.9,2.88,0,6.29-16.9,25.04-26.1,26.13-5.9.69-7.9-1.67-7.9-7.18,0-6.6,5.1-17.3,5.1-19.5,0-.8-.4-1.15-1.2-1.06-.9.11-4.2,1.99-8.1,7.86-1.4,7.87-2,12.44-2.3,19.27-1,1.12-1.7,1.5-4,1.78-5.6.67-9.7-4.13-9.8-10.12,0-3.8.8-8,2.5-12.8-.8-1.8-1-4.08-1-6.08Z"/>
      <path class="cls-1" d="M504.21,318.66c1.7-.18,3.2.16,4.1,1.17,0,.63,0,1.27,0,1.9,0,13.6,6.2,18.95,12.9,18.29,3.8-.38,6.8-4.16,6.8-9.26,0-3.3-.6-5.96-9.9-16.83-5.3-6.27-7-11.69-7-17.89,0-11.09,8.6-23.91,21.2-25.09,10.8-1,15.1,4.87,15.1,10.86,0,3.9-2.1,7.28-4.3,8.57-5.3-3.94-9-5.6-12.7-5.25-2.2.21-4,2.28-4,5.18,0,3.2,1.7,6.93,7.5,14.5,8.4,11.13,9.8,15.23,9.8,21.13,0,11.31-10.4,25.66-27.2,27.36-15.4,1.57-23.2-6.63-23.2-17.64,0-7.3,3.9-16.24,10.9-16.99Z"/>
      <path class="cls-1" d="M583.81,318.03c5.8-7.94,16.4-24.08,26.5-38.9,1.9-7.76,6.8-14.33,15.1-14.48,5.4-.09,8.2,3.4,8.5,6.59,0,2.01-1.6,3.59-9.5,8.83-1.4,7.33-2.2,18.04-2.7,26.86,2.4.35,3.9,1.83,3.9,4.73,0,2.8-1.8,5.93-4.3,8.08,0,4.3,0,6.6,1.5,6.57,1.4-.03,7.1-3.05,14.2-13.08.13,0,.27,0,.4,0,1.9,0,3.8,1.39,3.8,3.29,0,6.66-17.8,24.57-27.5,24.92-6.2.19-8.8-2.5-8.8-8.2,0-3.2,0-4.6.3-9.51-4.3.56-10.9,1.25-16,1.72-11.2,16.8-18.1,22.06-27.1,22.72-9.7.72-15.5-4.67-15.5-14.87,0-8.1,5.7-15.69,13.2-16.26,2.8-.21,4.6.76,5.3,3.01,5.6-.5,11.5-1.19,18.7-2ZM576.71,326.85c-5.7.56-10.1.87-14.2,1.17-.2.71-.3,1.72-.3,2.22,0,3.2,1.6,4.58,3.8,4.43,3.3-.23,6-2.12,10.7-7.82ZM605.91,315.38c.5-5.22,1.6-16.46,2.8-22.3-3.3,6.31-9.8,17.87-13.1,23.53,3.3-.36,7.7-.84,10.3-1.23Z"/>
    </g>
    <g>
      <path class="cls-6" d="M275.85,581.97c-1,10.6-4.4,13.4-16.2,13.4-13.2,0-14-3.2-14-21.2,0-10.2.2-24.6.8-36.8.2-7,.4-14.4.6-21.8-1-4.2-1.4-8.2-1.4-12,0-8,4.6-11.6,23.6-13.2,8.2-3.2,14.8-4.8,24.4-4.8,23.2,0,30,14,30,32.2,0,35.2-16.2,54.6-39.6,54.6-2.4,0-4.8,0-7.4-.6l-.8,10.2ZM277.65,545.97c2.2,1.2,7.6,2.2,10.6,2.2,5.4,0,6-10.2,6-22.2,0-8-2.4-13-15-14l-1.6,34Z"/>
      <path class="cls-6" d="M392.85,593.17c-5.6,1.2-13.2,1.6-27,1.6-5.6,0-9.2,0-13-.6-8.8-1-18.6-7.2-18.6-14.2,0-10,.2-26.2.8-39.8.2-8,.4-16.2.6-24.8-2.2-5.6-2.8-9.4-2.8-15.2,0-8.8,4.8-13.2,24-13.2,10.8,0,40.4.6,47.4.6,2.2,2.2,3.4,7.6,3.4,11.4,0,11.2-5,15.8-14.4,16.4-4.2.6-16.4.8-25.8.8l-.6,18.6c8.6-.8,26.8-.8,29.6-.8,1.4,1.8,2.2,4.4,2.2,7.4,0,10.2-4.2,15.4-10.6,16-2.8.6-11.4.2-21.6.8l-.2,11.2,34.8.2c1.6,2.2,2.2,4.2,2.2,7.2,0,9.8-4.2,15.4-10.4,16.4Z"/>
      <path class="cls-6" d="M473.04,489.77c3.8-2.6,7.2-3.6,12.6-3.6,9.6,0,15.8,3.8,15.8,13,0,17.2,0,68.8-3.2,84.8-1.4,8.6-6.8,11.8-17,11.8s-10.8-5.2-11.8-19.4c-7.8-13.4-15.2-26.6-23.2-39.4,0,14.4-.4,34.6-2,45.6-1,8.6-6.4,13-16.2,13-4.6,0-8.2-1.4-9.2-4.6,0-13.6-.4-49.6-.4-76.8-1.6-4.8-2.8-10.6-2.8-14.4,0-7.8,8.8-13.6,24.2-13.6,7.4,0,11,1.6,13,4.6,4.4,6,15,25.8,20,35,0-12,.2-30.8.2-36Z"/>
      <path class="cls-6" d="M571.04,489.77c3.8-2.6,7.2-3.6,12.6-3.6,9.6,0,15.8,3.8,15.8,13,0,17.2,0,68.8-3.2,84.8-1.4,8.6-6.8,11.8-17,11.8s-10.8-5.2-11.8-19.4c-7.8-13.4-15.2-26.6-23.2-39.4,0,14.4-.4,34.6-2,45.6-1,8.6-6.4,13-16.2,13-4.6,0-8.2-1.4-9.2-4.6,0-13.6-.4-49.6-.4-76.8-1.6-4.8-2.8-10.6-2.8-14.4,0-7.8,8.8-13.6,24.2-13.6,7.4,0,11,1.6,13,4.6,4.4,6,15,25.8,20,35,0-12,.2-30.8.2-36Z"/>
    </g>
  </g>
</svg>